<?xml version="1.0" standalone="no"?>
<!DOCTYPE svg PUBLIC "-//W3C//DTD SVG 1.1//EN" "http://www.w3.org/Graphics/SVG/1.1/DTD/svg11.dtd" >
<svg xmlns="http://www.w3.org/2000/svg" xmlns:xlink="http://www.w3.org/1999/xlink" version="1.1">
<metadata>
Created by FontForge 20161013 at Thu Jun 24 09:29:42 2004
 By ,,,
</metadata>
<defs>
<font id="DIN-Light" horiz-adv-x="526" >
  <font-face 
    font-family="DIN-Light"
    font-weight="400"
    font-stretch="normal"
    units-per-em="1024"
    panose-1="2 11 6 0 5 3 2 2 2 4"
    ascent="819"
    descent="-205"
    x-height="493"
    cap-height="729"
    bbox="-28 -242 1126 998"
    underline-thickness="0"
    underline-position="-242"
    unicode-range="U+0020-2122"
  />
<missing-glyph horiz-adv-x="512" 
 />
    <glyph glyph-name=".notdef" horiz-adv-x="512" 
 />
    <glyph glyph-name=".null" horiz-adv-x="0" 
 />
    <glyph glyph-name="nonmarkingreturn" horiz-adv-x="341" 
 />
    <glyph glyph-name="space" unicode=" " horiz-adv-x="261" 
 />
    <glyph glyph-name="exclam" unicode="!" horiz-adv-x="311" 
d="M137 68v-68h68v68h-68v0zM196 196l3 533h-56l3 -533h50v0z" />
    <glyph glyph-name="quotedbl" unicode="&#x22;" horiz-adv-x="418" 
d="M256 569h65v160h-65v-160v0zM98 569h64v160h-64v-160v0z" />
    <glyph glyph-name="numbersign" unicode="#" horiz-adv-x="654" 
d="M492 729l-37 -236h-179l38 236h-54l-37 -236h-107v-46h101l-25 -156h-106v-45h99l-39 -246h52l38 246h180l-40 -246h52l39 246h106v45h-99l26 156h102v46h-96l37 236h-51v0zM269 447h179l-26 -156h-179l26 156v0z" />
    <glyph glyph-name="dollar" unicode="$" horiz-adv-x="601" 
d="M419 712q-44 19 -101 22v91h-46v-91q-96 -7 -150 -59q-53 -52 -54 -140q0 -42 14 -76q15 -33 43 -58q21 -18 56 -33q34 -14 74 -20l17 -2v-302q-54 3 -95 22q-42 19 -86 63l-39 -39q46 -47 98 -70q51 -24 122 -26v-111h46v112q105 6 164 59q58 52 59 141q0 44 -17 81
q-16 36 -47 61q-21 18 -50 29l-80 19l-29 5v297q51 -4 86 -22t64 -45l36 36q-42 37 -85 56v0zM272 687v-290q-29 4 -58 14q-29 11 -54 31q-19 16 -29 40q-9 24 -9 55q1 65 40 105q38 39 110 45v0zM364 331l42 -11q20 -8 40 -24q20 -18 30 -44t10 -59q-1 -68 -46 -106
q-44 -38 -122 -43v294l46 -7v0z" />
    <glyph glyph-name="percent" unicode="%" horiz-adv-x="848" 
d="M572 729l-340 -729h46l340 729h-46v0zM295 597v-106q0 -46 -21 -72q-21 -27 -68 -27q-48 0 -69 27q-21 26 -21 72v106q0 46 21 73t69 27t69 -27t20 -73v0zM71 599v-110q1 -61 37 -98q37 -37 98 -38q60 1 97 38q36 37 37 98v110q-1 62 -37 99q-37 37 -97 38
q-61 -1 -98 -38q-36 -37 -37 -99v0zM712 311q21 -27 20 -74v-105q1 -47 -20 -73q-21 -27 -69 -28q-48 1 -69 28q-21 26 -21 73v105q0 47 21 74q21 26 69 27q48 -1 69 -27v0zM643 377q-61 -1 -98 -38q-36 -37 -37 -100v-109q1 -63 37 -100q37 -37 98 -37q60 0 97 37
q36 37 37 100v109q-1 63 -37 100q-37 37 -97 38v0z" />
    <glyph glyph-name="ampersand" unicode="&#x26;" horiz-adv-x="764" 
d="M449 663q-20 33 -53 52q-34 20 -75 20q-42 0 -75 -20q-34 -19 -53 -51q-20 -33 -21 -74q1 -32 13 -60q12 -29 30 -54l38 -48l-81 -59q-38 -30 -61 -70q-24 -40 -25 -98q1 -62 29 -108q29 -47 79 -73q51 -26 119 -26q60 1 105 17q45 17 75 39l44 36l70 -86h71l-104 127
q34 43 49 98q15 56 14 124h-54l-4 -77l-13 -56l-26 -48l-209 253l21 14l23 15l10 7q36 24 60 55q23 32 24 77q0 41 -20 74v0zM388 658q26 -26 27 -69q-1 -36 -23 -60l-51 -43l-7 -5l-18 -12l-17 -12l-44 57l-22 41q-6 19 -5 37q0 41 26 67t67 27q41 -1 67 -28v0zM285 391
l221 -267q-55 -48 -103 -65t-91 -16q-78 1 -123 45q-46 44 -47 117q0 46 21 79q22 33 54 59l68 48v0z" />
    <glyph glyph-name="quotesingle" unicode="'" horiz-adv-x="259" 
d="M98 569h64v160h-64v-160v0z" />
    <glyph glyph-name="parenleft" unicode="(" horiz-adv-x="291" 
d="M147 784l-28 -41q-12 -24 -16 -47l-3 -48v-567q-1 -25 3 -48q4 -24 16 -48l28 -41l40 -41l35 36l-31 33q-15 15 -24 34q-8 16 -11 37l-4 44v555l4 44q3 21 11 37q9 18 24 34l31 32l-35 36l-40 -41v0z" />
    <glyph glyph-name="parenright" unicode=")" horiz-adv-x="291" 
d="M99 755l23 -34l11 -36l3 -43v-555l-3 -43l-11 -36l-23 -34l-32 -33l38 -38l39 41l28 41l17 48l3 48v567l-3 48l-17 47l-28 41l-39 41l-38 -38l32 -32v0z" />
    <glyph glyph-name="asterisk" unicode="*" horiz-adv-x="478" 
d="M200 557l-126 -70l22 -39l123 75l-3 -144h46l-3 144l123 -75l23 39l-126 70l126 69l-23 39l-123 -74l3 144h-46l3 -144l-123 74l-22 -39l126 -69v0z" />
    <glyph glyph-name="plus" unicode="+" 
d="M240 294h-186v-48h186v-186h48v186h184v48h-184v184h-48v-184v0z" />
    <glyph glyph-name="comma" unicode="," horiz-adv-x="264" 
d="M98 69v-209l69 70v139h-69v0z" />
    <glyph glyph-name="hyphen" unicode="-" horiz-adv-x="436" 
d="M84 246h269v48h-269v-48v0z" />
    <glyph glyph-name="period" unicode="." horiz-adv-x="270" 
d="M97 76v-76h76v76h-76v0z" />
    <glyph glyph-name="slash" unicode="/" horiz-adv-x="346" 
d="M292 805l-292 -881h55l291 881h-54v0z" />
    <glyph glyph-name="zero" unicode="0" 
d="M430 641q-24 44 -67 69t-100 25q-56 0 -99 -25t-67 -69q-25 -43 -25 -101v-352q0 -57 25 -101q24 -43 67 -68t99 -25q57 0 100 25t67 68q24 44 25 101v352q-1 58 -25 101v0zM140 613q16 35 47 55t76 21q46 -1 77 -21t47 -55q16 -34 16 -78v-342q0 -43 -16 -78
q-16 -34 -47 -55q-31 -20 -77 -20q-45 0 -76 20q-31 21 -47 55q-16 35 -16 78v342q0 44 16 78v0z" />
    <glyph glyph-name="one" unicode="1" 
d="M269 669v-669h52v729h-52l-132 -114v-62l132 116v0z" />
    <glyph glyph-name="two" unicode="2" 
d="M408 682q-52 52 -140 53q-61 -1 -104 -26t-66 -68t-23 -98h52q1 52 20 84t50 47q32 15 71 15q67 -1 103 -40t37 -106q0 -31 -10 -58q-10 -28 -31 -55l-293 -384v-46h386v46h-324l274 357q27 35 39 68q11 33 11 72q-1 88 -52 139v0z" />
    <glyph glyph-name="three" unicode="3" 
d="M419 645q-24 43 -68 67q-43 24 -101 24q-54 0 -96 -21t-69 -61t-33 -97h53q7 62 44 97q36 35 101 36q40 0 72 -17t50 -50q19 -33 19 -81q1 -71 -35 -108q-35 -38 -109 -38h-12v-46h12q83 -1 121 -41t38 -115q-1 -49 -21 -83q-20 -35 -55 -54q-35 -18 -79 -18
q-39 -1 -73 13q-33 14 -56 45q-22 30 -27 80h-52q5 -63 33 -104q27 -41 73 -61q45 -20 102 -19q60 0 106 23q47 23 74 68q26 45 27 110q0 70 -28 116q-29 46 -90 67q55 23 80 65q24 42 24 100q-1 60 -25 103v0z" />
    <glyph glyph-name="four" unicode="4" 
d="M313 729l-268 -563v-46h288v-120h52v120h97v46h-97v231h-52v-231h-233l268 563h-55v0z" />
    <glyph glyph-name="five" unicode="5" 
d="M446 729h-351v-373h47q12 37 46 57q35 20 86 20q58 -1 88 -30q29 -29 39 -74q10 -44 9 -91l-2 -57q-2 -29 -12 -56q-9 -28 -30 -49q-18 -18 -44 -28l-57 -9q-64 0 -96 31q-33 32 -41 91h-52q3 -38 15 -68q13 -30 34 -51q24 -25 60 -37q35 -12 80 -12l79 13q36 13 62 39
q25 26 38 58q12 31 15 66l3 69q1 53 -10 105t-49 92q-23 22 -53 33l-70 11q-46 0 -80 -14q-35 -13 -58 -40v258h304v46v0z" />
    <glyph glyph-name="six" unicode="6" 
d="M301 729l-187 -378q-22 -45 -32 -81q-9 -36 -9 -72q0 -59 23 -105t66 -73q43 -26 104 -26q62 0 105 29q43 28 65 76q23 48 23 107q0 57 -22 103q-23 46 -65 73t-101 27l-46 -4l-39 -13l168 337h-53v0zM391 282q16 -36 16 -81q-1 -74 -39 -117q-37 -43 -103 -44
q-65 1 -102 44t-38 117q1 75 38 118t102 44q47 0 79 -22q31 -22 47 -59v0z" />
    <glyph glyph-name="seven" unicode="7" 
d="M417 683l-258 -683h53l258 683v46h-382v-161h52v115h277v0z" />
    <glyph glyph-name="eight" unicode="8" 
d="M431 641q-24 43 -67 68t-101 26q-57 -1 -100 -26t-67 -68q-25 -43 -25 -96q0 -57 26 -98q25 -41 74 -68q-53 -28 -84 -73q-31 -46 -31 -110q0 -59 27 -104q27 -46 74 -72t106 -26q60 0 107 26q46 26 74 72q27 45 27 104q0 64 -31 110q-31 45 -83 73q49 27 74 68t25 98
q0 53 -25 96v0zM404 545q-1 -65 -39 -105q-38 -39 -102 -40q-63 1 -101 40q-38 40 -39 105q1 64 39 104q38 39 101 40q64 -1 102 -40q38 -40 39 -104v0zM398 277q21 -36 21 -81t-21 -80q-20 -36 -55 -56t-80 -20q-44 0 -79 20t-55 56q-21 35 -21 80t21 81q20 35 55 56t79 21
q45 0 80 -21t55 -56v0z" />
    <glyph glyph-name="nine" unicode="9" 
d="M431 636q-23 46 -66 72t-105 27q-61 -1 -104 -29t-66 -76q-22 -48 -22 -107q0 -57 22 -103t63 -73q42 -27 102 -28l46 5l40 13l-168 -337h53l187 378q22 45 32 81q9 36 9 71q0 60 -23 106v0zM402 527q-1 -75 -39 -118q-37 -43 -103 -44q-46 1 -77 23q-32 22 -47 58
q-16 37 -16 81q1 75 38 118t102 44q66 -1 103 -44q38 -43 39 -118v0z" />
    <glyph glyph-name="colon" unicode=":" horiz-adv-x="299" 
d="M126 319h76v76h-76v-76v0zM126 76v-76h76v76h-76v0z" />
    <glyph glyph-name="semicolon" unicode=";" horiz-adv-x="299" 
d="M126 319h76v76h-76v-76v0zM128 69v-209l70 70v139h-70v0z" />
    <glyph glyph-name="less" unicode="&#x3c;" 
d="M419 80v56l-260 133l260 133v57l-311 -165v-50l311 -164v0z" />
    <glyph glyph-name="equal" unicode="=" 
d="M55 323h417v48h-417v-48v0zM55 167h417v48h-417v-48v0z" />
    <glyph glyph-name="greater" unicode="&#x3e;" 
d="M419 244v50l-311 165v-57l260 -133l-260 -133v-56l311 164v0z" />
    <glyph glyph-name="question" unicode="?" horiz-adv-x="500" 
d="M424 647q-23 41 -65 64q-41 23 -94 24q-55 -1 -96 -25t-64 -65q-22 -40 -23 -90h52q1 36 17 66q16 31 45 49t69 19q58 -1 94 -38t38 -96q-1 -29 -10 -50l-25 -44l-86 -127q-16 -22 -23 -43q-7 -20 -7 -50v-46h52v48l4 30l15 32l87 128l33 58q12 28 12 64q-1 51 -25 92v0z
M238 68v-68h68v68h-68v0z" />
    <glyph glyph-name="at" unicode="@" horiz-adv-x="714" 
d="M583 522v-91q-27 36 -62 53t-81 16q-47 0 -85 -17q-38 -18 -61 -51q-21 -30 -31 -74q-9 -45 -9 -111q0 -69 10 -113q11 -44 34 -75q26 -33 61 -50q36 -16 82 -16q48 -1 83 16q34 17 59 51v-60h52v519q0 48 -14 87q-15 39 -43 68q-27 27 -63 41t-82 14h-153
q-91 0 -145 -55q-27 -28 -41 -67q-15 -39 -15 -88v-358q0 -44 7 -74q7 -29 25 -51q17 -22 48 -43l36 35l-39 36q-14 17 -20 40q-5 22 -5 57v361q0 44 9 72q10 27 33 50q22 22 50 32l66 11h135l67 -11q28 -10 50 -32q23 -23 33 -51q9 -28 9 -71v0zM354 423q30 30 91 31
q60 -1 90 -31q30 -31 39 -78q10 -47 9 -98q1 -52 -9 -99q-9 -47 -39 -78q-30 -30 -90 -31q-61 1 -91 31q-30 31 -39 78t-9 99q0 51 9 98t39 78v0z" />
    <glyph glyph-name="A" unicode="A" horiz-adv-x="616" 
d="M308 655l153 -429h-305l152 429v0zM478 177l64 -177h59l-268 729h-49l-268 -729h59l63 177h340v0z" />
    <glyph glyph-name="B" unicode="B" horiz-adv-x="687" 
d="M537 538q-1 -50 -23 -81q-21 -31 -58 -46q-36 -14 -81 -14h-207v283h207q45 0 81 -15q37 -14 58 -45q22 -32 23 -82v0zM564 641q-27 43 -74 65q-48 23 -109 23h-268v-729h276q65 0 113 22q48 23 74 67q27 44 27 109t-33 110q-32 45 -92 67q54 18 84 61q30 44 30 102
q0 60 -28 103v0zM383 348q76 -1 120 -40q44 -38 45 -110q-1 -71 -45 -110t-120 -39h-215v299h215v0z" />
    <glyph glyph-name="C" unicode="C" horiz-adv-x="659" 
d="M498 678q-65 56 -164 57q-53 0 -99 -19q-47 -20 -83 -56q-33 -32 -47 -69q-15 -38 -18 -91q-3 -54 -3 -136q0 -81 3 -134q3 -54 18 -92q14 -37 47 -70q36 -36 83 -55q46 -19 99 -19q98 1 163 57t85 156h-54q-17 -77 -68 -120q-51 -44 -126 -44q-39 0 -75 14
q-35 14 -63 42q-26 25 -38 57q-12 33 -15 82q-4 49 -3 126q-1 77 3 127q3 49 15 81t38 58q28 27 63 41q36 15 75 15q75 -1 125 -44t67 -120h56q-19 99 -84 156v0z" />
    <glyph glyph-name="D" unicode="D" horiz-adv-x="694" 
d="M541 550q11 -42 13 -88l1 -87l-1 -93q-2 -51 -13 -98q-12 -48 -40 -79q-32 -32 -72 -44q-41 -13 -85 -12h-176v631h176l85 -12q40 -12 72 -45q28 -30 40 -73v0zM540 662q-33 33 -79 50t-103 17h-245v-729h245q57 0 103 17q46 16 79 49q36 38 51 91t18 110l2 108l-2 101
q-3 53 -18 101t-51 85v0z" />
    <glyph glyph-name="E" unicode="E" horiz-adv-x="612" 
d="M555 729h-442v-729h442v49h-387v294h330v49h-330v288h387v49v0z" />
    <glyph glyph-name="F" unicode="F" horiz-adv-x="590" 
d="M168 680h387v49h-442v-729h55v331h330v49h-330v300v0z" />
    <glyph glyph-name="G" unicode="G" horiz-adv-x="667" 
d="M450 708q-52 27 -116 27q-53 0 -99 -19q-47 -20 -83 -56q-33 -32 -47 -69q-15 -38 -18 -91q-3 -54 -3 -136q0 -81 3 -134q3 -54 18 -92q14 -37 47 -70q36 -36 83 -55q46 -19 99 -19q56 0 105 22q50 21 87 62q32 34 46 76q13 43 13 100v118h-251v-49h196v-65
q0 -46 -10 -81q-11 -34 -34 -64q-29 -34 -69 -52q-39 -18 -83 -18q-39 0 -75 14q-35 14 -63 42q-26 25 -38 57q-12 33 -15 82q-4 49 -3 126q-1 77 3 127q3 49 15 81t38 58q28 27 63 41q36 15 75 15q75 -1 126 -44t68 -120h55q-11 64 -46 112t-87 74v0z" />
    <glyph glyph-name="H" unicode="H" horiz-adv-x="716" 
d="M548 343v-343h55v729h-55v-337h-380v337h-55v-729h55v343h380v0z" />
    <glyph glyph-name="I" unicode="I" horiz-adv-x="281" 
d="M113 729v-729h55v729h-55v0z" />
    <glyph glyph-name="J" unicode="J" horiz-adv-x="510" 
d="M381 98q26 50 27 117v514h-55v-503q-1 -89 -42 -136t-120 -47q-48 0 -75 15t-47 36l-38 -38q31 -31 71 -47q40 -15 89 -15q66 0 115 27q48 28 75 77v0z" />
    <glyph glyph-name="K" unicode="K" horiz-adv-x="660" 
d="M342 408l235 -408h65l-263 450l225 279h-66l-370 -456v456h-55v-729h55v197l174 211v0z" />
    <glyph glyph-name="L" unicode="L" horiz-adv-x="586" 
d="M113 729v-729h442v49h-387v680h-55v0z" />
    <glyph glyph-name="M" unicode="M" horiz-adv-x="838" 
d="M670 601v-601h55v729h-55l-248 -562l-254 562h-55v-729h55v601l225 -499h56l221 499v0z" />
    <glyph glyph-name="N" unicode="N" horiz-adv-x="757" 
d="M113 729v-729h55v634l421 -634h55v729h-55v-632l-421 632h-55v0z" />
    <glyph glyph-name="O" unicode="O" horiz-adv-x="668" 
d="M510 572q12 -32 16 -81l3 -127l-3 -126q-4 -49 -16 -82q-12 -32 -38 -57q-28 -28 -63 -42t-75 -14q-39 0 -75 14q-35 14 -63 42q-26 25 -38 57q-12 33 -15 82q-4 49 -3 126q-1 77 3 127q3 49 15 81t38 58q28 27 63 41q36 15 75 15q40 0 75 -15q35 -14 63 -41
q26 -26 38 -58v0zM563 591q-14 37 -47 69q-36 36 -83 56q-46 19 -99 19t-99 -19q-47 -20 -83 -56q-33 -32 -47 -69q-15 -38 -18 -91q-3 -54 -3 -136q0 -81 3 -134q3 -54 18 -92q14 -37 47 -70q36 -36 83 -55q46 -19 99 -19t99 19q47 19 83 55q33 33 47 70q15 38 18 92l3 134
l-3 136q-3 53 -18 91v0z" />
    <glyph glyph-name="P" unicode="P" horiz-adv-x="646" 
d="M545 519q-1 -82 -47 -122q-47 -39 -124 -39h-206v322h206q77 0 124 -40q46 -39 47 -121v0zM571 633q-28 47 -78 71q-49 25 -113 25h-267v-729h55v309h212q64 0 113 25q50 24 78 71q29 47 29 114t-29 114v0z" />
    <glyph glyph-name="Q" unicode="Q" horiz-adv-x="667" 
d="M510 572q12 -32 16 -81l3 -127l-2 -110l-10 -77q-7 -31 -23 -53l-102 101l-36 -37l102 -102q-27 -22 -58 -32q-31 -11 -66 -11q-39 0 -75 14q-35 14 -63 42q-26 25 -38 57q-12 33 -15 82q-4 49 -3 126q-1 77 3 127q3 49 15 81t38 58q28 27 63 41q36 15 75 15q40 0 75 -15
q35 -14 63 -41q26 -26 38 -58v0zM563 591q-14 37 -47 69q-36 36 -83 56q-46 19 -99 19t-99 -19q-47 -20 -83 -56q-33 -32 -47 -69q-15 -38 -18 -91q-3 -54 -3 -136q0 -81 3 -134q3 -54 18 -92q14 -37 47 -70q36 -36 83 -55q46 -19 99 -19l85 14q42 14 76 41l86 -86l37 37
l-86 86q25 29 36 65t14 88l2 125l-3 136q-3 53 -18 91v0z" />
    <glyph glyph-name="R" unicode="R" horiz-adv-x="673" 
d="M544 532q-1 -76 -45 -112t-116 -35h-215v295h215q72 0 116 -36t45 -112v0zM572 640q-28 44 -75 66q-47 23 -107 23h-277v-729h55v336h201l174 -336h64l-176 337q78 13 123 63q44 51 45 133q0 64 -27 107v0z" />
    <glyph glyph-name="S" unicode="S" horiz-adv-x="601" 
d="M409 716q-48 19 -115 19q-106 -1 -166 -54q-59 -53 -60 -146q0 -43 14 -76q15 -34 43 -58q24 -21 56 -34q33 -13 74 -19l85 -13l48 -9l31 -12l27 -18q20 -18 30 -44t10 -59q-1 -72 -51 -111q-49 -39 -137 -39l-78 7q-34 8 -65 27t-64 52l-39 -39q49 -50 106 -73
q58 -24 137 -23q116 1 180 54q65 53 66 147q0 44 -17 81q-16 36 -47 61q-21 19 -50 30t-80 18l-78 12l-60 17l-49 28q-19 16 -29 40q-9 24 -9 55q1 71 45 111q44 39 124 40q64 -1 105 -19t72 -49l36 36q-46 41 -95 60v0z" />
    <glyph glyph-name="T" unicode="T" horiz-adv-x="552" 
d="M248 680v-680h55v680h218v49h-490v-49h217v0z" />
    <glyph glyph-name="U" unicode="U" horiz-adv-x="705" 
d="M547 729v-486q-1 -91 -53 -145t-141 -55q-90 1 -142 55t-53 145v486h-55v-493q0 -71 32 -126q32 -54 88 -85t130 -31q73 0 129 31t88 85q32 55 32 126v493h-55v0z" />
    <glyph glyph-name="V" unicode="V" horiz-adv-x="547" 
d="M10 729l240 -729h47l240 729h-59l-204 -632l-205 632h-59v0z" />
    <glyph glyph-name="W" unicode="W" horiz-adv-x="862" 
d="M21 729l182 -729h56l172 635l172 -635h57l182 729h-58l-154 -634l-170 634h-57l-170 -634l-154 634h-58v0z" />
    <glyph glyph-name="X" unicode="X" horiz-adv-x="545" 
d="M242 373l-223 -373h62l191 324l190 -324h65l-226 373l209 356h-63l-175 -306l-174 306h-65l209 -356v0z" />
    <glyph glyph-name="Y" unicode="Y" horiz-adv-x="506" 
d="M225 302v-302h56v302l215 427h-60l-181 -369l-185 369h-60l215 -427v0z" />
    <glyph glyph-name="Z" unicode="Z" horiz-adv-x="572" 
d="M65 58v-58h443v49h-387l387 631v49h-428v-49h369l-384 -622v0z" />
    <glyph glyph-name="bracketleft" unicode="[" horiz-adv-x="297" 
d="M100 805v-881h151v46h-99v789h99v46h-151v0z" />
    <glyph glyph-name="backslash" unicode="\" horiz-adv-x="346" 
d="M0 805l292 -881h54l-291 881h-55v0z" />
    <glyph glyph-name="bracketright" unicode="]" horiz-adv-x="297" 
d="M149 762v-795h-103v-43h152v881h-152v-43h103v0z" />
    <glyph glyph-name="asciicircum" unicode="^" 
d="M397 432h52l-162 303h-47l-162 -303h52l133 247l134 -247v0z" />
    <glyph glyph-name="underscore" unicode="_" 
d="M0 -164h527v39h-527v-39v0z" />
    <glyph glyph-name="grave" unicode="`" horiz-adv-x="512" 
d="M245 604h59l-99 150h-69l109 -150v0z" />
    <glyph glyph-name="a" unicode="a" horiz-adv-x="537" 
d="M389 333v-56h-159q-82 0 -127 -37t-45 -105q0 -28 9 -53t26 -43q23 -25 57 -35l89 -10l85 12q35 12 65 43v-49h53v338q0 78 -47 119q-47 42 -145 42q-60 1 -102 -16q-41 -16 -72 -59l38 -33q23 33 54 48t82 14q75 0 108 -30q32 -31 31 -90v0zM141 211q32 24 95 24h153
v-63q0 -34 -7 -58q-6 -23 -20 -36q-27 -25 -58 -32l-65 -6q-67 0 -98 23q-32 24 -31 73q0 50 31 75v0z" />
    <glyph glyph-name="b" unicode="b" horiz-adv-x="553" 
d="M100 729v-729h52v63q33 -42 68 -56q36 -14 78 -13q40 0 71 12q31 11 50 31q37 38 51 94q13 56 13 116q0 59 -13 115q-14 56 -51 94q-19 20 -50 32l-71 11q-42 1 -78 -13q-35 -14 -68 -56v299h-52v0zM381 423q30 -30 40 -77t9 -99q1 -53 -9 -100t-40 -76q-30 -30 -90 -31
q-60 1 -90 31q-30 29 -40 76t-9 100q-1 52 9 99t40 77q30 29 90 30q60 -1 90 -30v0z" />
    <glyph glyph-name="c" unicode="c" horiz-adv-x="505" 
d="M355 440q29 -14 60 -49l36 33q-38 43 -76 59q-37 17 -87 16q-102 -1 -159 -67q-57 -67 -58 -185q1 -119 58 -186q57 -66 159 -67q50 -1 87 16q38 16 76 59l-36 33q-31 -34 -60 -48q-29 -15 -67 -14q-42 0 -76 16q-33 16 -55 49q-18 26 -26 59t-8 83q0 49 8 82t26 59
q22 33 55 49q34 16 76 16q38 1 67 -13v0z" />
    <glyph glyph-name="d" unicode="d" horiz-adv-x="553" 
d="M392 346q10 -47 10 -99q0 -53 -10 -100t-40 -76q-30 -30 -90 -31q-59 1 -89 31q-31 29 -41 76t-9 100q-1 52 9 99t41 77q30 29 89 30q60 -1 90 -30q30 -30 40 -77v0zM333 486q-36 14 -78 13l-70 -11q-31 -12 -51 -32q-37 -38 -50 -94q-14 -56 -13 -115q-1 -60 13 -116
q13 -56 50 -94q20 -20 51 -31q31 -12 70 -12q42 -1 78 13t69 56v-63h52v729h-52v-299q-33 42 -69 56v0z" />
    <glyph glyph-name="e" unicode="e" horiz-adv-x="536" 
d="M397 370l9 -26l5 -28l3 -39h-291l4 39q1 15 5 27l9 27q16 40 50 61q34 22 78 22q43 0 77 -22q34 -21 51 -61v0zM125 58q53 -64 156 -64q60 0 101 19t77 56l-39 31q-31 -31 -62 -45q-31 -15 -74 -14q-79 0 -120 50q-41 49 -41 144h343v24q-1 114 -52 177q-52 63 -145 63
q-94 0 -146 -66q-51 -66 -52 -186q0 -124 54 -189v0z" />
    <glyph glyph-name="f" unicode="f" horiz-adv-x="311" 
d="M115 600v-107h-68v-39h68v-454h52v454h112v39h-112v108q0 39 18 60q19 22 58 22h36v46h-45q-59 -1 -89 -37q-30 -35 -30 -92v0z" />
    <glyph glyph-name="g" unicode="g" horiz-adv-x="553" 
d="M392 346q10 -47 10 -99q0 -53 -10 -100t-40 -76q-30 -30 -90 -31q-59 1 -89 31q-31 29 -41 76t-9 100q-1 52 9 99t41 77q30 29 89 30q60 -1 90 -30q30 -30 40 -77v0zM333 486q-36 14 -78 13l-70 -11q-31 -12 -51 -32q-37 -38 -50 -94q-14 -56 -13 -115q-1 -60 13 -116
q13 -56 50 -94q20 -20 51 -31q31 -12 70 -12q42 -1 78 13t69 56v-88q0 -49 -16 -88q-16 -38 -49 -60t-85 -23l-52 6q-22 6 -39 18l-37 30l-35 -34l49 -38q23 -14 51 -21l63 -7q64 1 109 28t69 76q24 48 24 110v521h-52v-63q-33 42 -69 56v0z" />
    <glyph glyph-name="h" unicode="h" horiz-adv-x="572" 
d="M100 729v-729h52v306q0 71 36 109t103 38t102 -38q34 -37 34 -109v-306h52v315q0 87 -48 135q-48 49 -134 49q-45 0 -81 -16q-37 -16 -64 -48v294h-52v0z" />
    <glyph glyph-name="i" unicode="i" horiz-adv-x="251" 
d="M94 664h64v65h-64v-65v0zM100 493v-493h52v493h-52v0z" />
    <glyph glyph-name="j" unicode="j" horiz-adv-x="251" 
d="M93 664h65v65h-65v-65v0zM100 493v-600q0 -42 -16 -62q-17 -21 -60 -21h-36v-46h45q61 1 90 35t29 93v601h-52v0z" />
    <glyph glyph-name="k" unicode="k" horiz-adv-x="540" 
d="M264 271l170 -271h65l-199 309l163 184h-67l-244 -278v514h-52v-729h52v141l112 130v0z" />
    <glyph glyph-name="l" unicode="l" horiz-adv-x="294" 
d="M127 35q29 -35 89 -35h45v46h-35q-44 0 -60 20q-17 21 -16 63v600h-52v-601q-1 -59 29 -93v0z" />
    <glyph glyph-name="m" unicode="m" horiz-adv-x="899" 
d="M393 415q34 -37 34 -109v-306h52v315q1 65 38 101q37 37 102 37q67 0 101 -38q35 -37 35 -109v-306h51v315q0 44 -13 78q-13 35 -38 59q-24 23 -57 35q-32 12 -73 12q-56 0 -98 -23t-70 -67q-23 44 -63 67t-96 23q-45 0 -82 -16t-64 -48v58h-52v-493h52v306q0 71 36 109
t103 38t102 -38v0z" />
    <glyph glyph-name="n" unicode="n" horiz-adv-x="572" 
d="M393 415q34 -37 34 -109v-306h52v315q0 44 -12 78q-13 35 -39 59q-24 24 -57 36l-74 11q-45 0 -81 -16q-37 -16 -64 -48v58h-52v-493h52v306q0 71 36 109t103 38t102 -38v0z" />
    <glyph glyph-name="o" unicode="o" horiz-adv-x="539" 
d="M372 411q30 -31 37 -76l7 -88q1 -45 -7 -89q-7 -45 -37 -76q-21 -21 -47 -32q-25 -10 -55 -10t-56 10q-26 11 -47 32q-29 31 -37 76q-8 44 -7 89q-1 44 7 88q8 45 37 76q21 21 47 32l56 10l55 -10q26 -11 47 -32v0zM82 353q-12 -53 -11 -106q-1 -54 11 -107
q12 -52 50 -92q27 -27 62 -41q34 -13 76 -13t76 13q34 14 61 41q38 40 50 92q12 53 11 107q1 53 -11 106q-12 52 -50 92q-27 27 -61 41q-34 13 -76 13t-76 -13q-35 -14 -62 -41q-38 -40 -50 -92v0z" />
    <glyph glyph-name="p" unicode="p" horiz-adv-x="553" 
d="M381 423q30 -30 40 -77t9 -99q1 -53 -9 -100t-40 -76q-30 -30 -90 -31q-60 1 -90 31q-30 29 -40 76t-9 100q-1 52 9 99t40 77q30 29 90 30q60 -1 90 -30v0zM100 493v-729h52v299q33 -42 68 -56q36 -14 78 -13q40 0 71 12q31 11 50 31q37 38 51 94q13 56 13 116
q0 59 -13 115q-14 56 -51 94q-19 20 -50 32l-71 11q-42 1 -78 -13q-35 -14 -68 -56v63h-52v0z" />
    <glyph glyph-name="q" unicode="q" horiz-adv-x="553" 
d="M392 346q10 -47 10 -99q0 -53 -10 -100t-40 -76q-30 -30 -90 -31q-59 1 -89 31q-31 29 -41 76t-9 100q-1 52 9 99t41 77q30 29 89 30q60 -1 90 -30q30 -30 40 -77v0zM333 486q-36 14 -78 13l-70 -11q-31 -12 -51 -32q-37 -38 -50 -94q-14 -56 -13 -115q-1 -60 13 -116
q13 -56 50 -94q20 -20 51 -31q31 -12 70 -12q42 -1 78 13t69 56v-299h52v729h-52v-63q-33 42 -69 56v0z" />
    <glyph glyph-name="r" unicode="r" horiz-adv-x="419" 
d="M377 414l38 38q-26 27 -55 37q-28 11 -64 10q-44 0 -83 -18t-61 -53v65h-52v-493h52v304q0 40 15 74q15 33 45 54q29 21 72 21l51 -8l42 -31v0z" />
    <glyph glyph-name="s" unicode="s" horiz-adv-x="506" 
d="M325 444q35 -11 63 -32l35 35q-33 25 -77 39l-96 13q-82 0 -129 -37q-47 -38 -48 -103q0 -58 37 -90q37 -33 111 -39l82 -7q49 -5 72 -25q23 -19 23 -58q-1 -50 -38 -75q-38 -25 -111 -25q-52 0 -93 15q-40 15 -69 45l-36 -36q38 -36 87 -53t113 -17q92 0 145 39
q52 39 53 107q-1 48 -19 74q-19 27 -52 39q-32 12 -74 16l-79 7q-52 5 -77 25q-24 19 -24 58q0 46 32 71q32 24 94 24l75 -10v0z" />
    <glyph glyph-name="t" unicode="t" horiz-adv-x="333" 
d="M112 651v-158h-68v-39h68v-325q0 -57 30 -93q30 -35 89 -36h45v46h-36q-39 0 -58 21q-18 21 -18 61v326h112v39h-112v158h-52v0z" />
    <glyph glyph-name="u" unicode="u" horiz-adv-x="572" 
d="M93 493v-315q0 -44 13 -78q13 -35 39 -59q24 -24 57 -36l74 -11q45 0 81 16t64 48v-58h52v493h-52v-306q0 -71 -36 -109t-103 -38t-102 38q-34 37 -34 109v306h-53v0z" />
    <glyph glyph-name="v" unicode="v" horiz-adv-x="440" 
d="M15 493l180 -493h51l180 493h-57l-149 -432l-148 432h-57v0z" />
    <glyph glyph-name="w" unicode="w" horiz-adv-x="729" 
d="M15 493l157 -493h54l139 411l139 -411h53l158 493h-57l-126 -432l-142 432h-51l-141 -432l-126 432h-57v0z" />
    <glyph glyph-name="x" unicode="x" horiz-adv-x="471" 
d="M208 252l-167 -252h64l132 208l130 -208h63l-167 252l160 241h-63l-123 -198l-125 198h-64l160 -241v0z" />
    <glyph glyph-name="y" unicode="y" horiz-adv-x="440" 
d="M15 493l180 -493l-40 -110l-19 -39q-10 -15 -27 -22l-44 -6h-20v-46h25l50 7l43 24l18 23l16 35l229 627h-57l-149 -432l-148 432h-57v0z" />
    <glyph glyph-name="z" unicode="z" horiz-adv-x="463" 
d="M56 49v-49h352v46h-298l298 398v49h-336v-46h281l-297 -398v0z" />
    <glyph glyph-name="braceleft" unicode="{" horiz-adv-x="324" 
d="M259 759h14v46h-15l-61 -7q-23 -6 -38 -21q-14 -14 -21 -35q-6 -21 -6 -62v-212q0 -43 -18 -62l-19 -14l-25 -5h-19v-45h19l25 -6l19 -14q18 -18 18 -61v-212q0 -41 6 -63q7 -21 21 -34q15 -16 38 -22l61 -6h15v46h-14l-39 2l-21 11q-8 8 -11 24q-4 15 -3 43v212
q0 39 -15 63t-48 39q33 16 48 40q15 23 15 63v212q-1 28 3 43q3 15 11 23l21 11l39 3v0z" />
    <glyph glyph-name="bar" unicode="|" horiz-adv-x="325" 
d="M137 805v-881h52v881h-52v0z" />
    <glyph glyph-name="braceright" unicode="}" horiz-adv-x="324" 
d="M127 798l-61 7h-15v-46h14l40 -3l20 -11l12 -23l3 -43v-212q-1 -40 14 -63q15 -24 48 -40q-33 -15 -48 -39t-14 -63v-212l-3 -43q-4 -16 -12 -24l-20 -11l-40 -2h-14v-46h15l61 6q23 6 38 22q15 13 21 34q6 22 6 63v212q0 43 18 61l19 14l25 6h19v45h-19l-25 5l-19 14
q-18 19 -18 62v212q0 41 -6 62t-21 35q-15 15 -38 21v0z" />
    <glyph glyph-name="asciitilde" unicode="~" 
d="M249 252l53 -22q26 -10 52 -10l36 4q17 5 36 18l46 41l-31 32l-34 -30l-25 -13l-26 -3l-39 7q-18 7 -39 17l-54 21l-51 10l-36 -4q-17 -4 -36 -18l-46 -41l31 -32l47 39l38 7l39 -7l39 -16v0z" />
    <glyph glyph-name="uni007F" horiz-adv-x="559" 
d="M364 198q38 22 60 60q22 37 23 84q-1 46 -23 84t-60 60t-84 23q-47 -1 -84 -23q-38 -22 -60 -60q-23 -38 -23 -84q0 -47 23 -84q22 -38 60 -60q37 -23 84 -23q46 0 84 23v0z" />
    <glyph glyph-name="uni0081" horiz-adv-x="559" 
d="M364 198q38 22 60 60q22 37 23 84q-1 46 -23 84t-60 60t-84 23q-47 -1 -84 -23q-38 -22 -60 -60q-23 -38 -23 -84q0 -47 23 -84q22 -38 60 -60q37 -23 84 -23q46 0 84 23v0z" />
    <glyph glyph-name="uni008D" horiz-adv-x="559" 
d="M364 198q38 22 60 60q22 37 23 84q-1 46 -23 84t-60 60t-84 23q-47 -1 -84 -23q-38 -22 -60 -60q-23 -38 -23 -84q0 -47 23 -84q22 -38 60 -60q37 -23 84 -23q46 0 84 23v0z" />
    <glyph glyph-name="uni008F" horiz-adv-x="559" 
d="M364 198q38 22 60 60q22 37 23 84q-1 46 -23 84t-60 60t-84 23q-47 -1 -84 -23q-38 -22 -60 -60q-23 -38 -23 -84q0 -47 23 -84q22 -38 60 -60q37 -23 84 -23q46 0 84 23v0z" />
    <glyph glyph-name="uni0090" horiz-adv-x="559" 
d="M364 198q38 22 60 60q22 37 23 84q-1 46 -23 84t-60 60t-84 23q-47 -1 -84 -23q-38 -22 -60 -60q-23 -38 -23 -84q0 -47 23 -84q22 -38 60 -60q37 -23 84 -23q46 0 84 23v0z" />
    <glyph glyph-name="uni009D" horiz-adv-x="559" 
d="M364 198q38 22 60 60q22 37 23 84q-1 46 -23 84t-60 60t-84 23q-47 -1 -84 -23q-38 -22 -60 -60q-23 -38 -23 -84q0 -47 23 -84q22 -38 60 -60q37 -23 84 -23q46 0 84 23v0z" />
    <glyph glyph-name="uni00A0" unicode="&#xa0;" horiz-adv-x="261" 
 />
    <glyph glyph-name="exclamdown" unicode="&#xa1;" horiz-adv-x="311" 
d="M107 425h68v68h-68v-68v0zM116 297l-3 -533h56l-3 533h-50v0z" />
    <glyph glyph-name="cent" unicode="&#xa2;" horiz-adv-x="510" 
d="M451 552q-37 40 -71 57q-35 17 -81 18v102h-44v-104q-87 -12 -135 -77q-48 -64 -49 -173q1 -109 49 -174t135 -77v-124h44v122q46 1 81 18q34 17 71 57l-36 33q-29 -32 -56 -46q-26 -15 -60 -16v413q34 -1 60 -15l56 -47l36 33v0zM255 578v-407q-31 5 -56 21
q-24 16 -42 41q-18 26 -26 59t-8 83q0 49 8 82t26 59l42 41q25 16 56 21v0z" />
    <glyph glyph-name="sterling" unicode="&#xa3;" horiz-adv-x="550" 
d="M422 719q-40 16 -88 16q-66 0 -115 -28q-49 -27 -75 -77q-27 -49 -27 -116v-125h-66v-39h66v-350h377v49h-322v301h162v39h-162v114q1 88 42 135t120 48q47 -1 75 -15q27 -15 47 -36l38 38q-32 31 -72 46v0z" />
    <glyph glyph-name="currency" unicode="&#xa4;" horiz-adv-x="673" 
d="M336 444q49 0 88 -23t62 -62t23 -88t-23 -88t-62 -61q-39 -23 -88 -24q-49 1 -88 24q-39 22 -61 61q-23 39 -24 88q1 49 24 88q22 39 61 62t88 23v0zM260 481q-36 -12 -64 -36l-76 75l-33 -33l76 -75q-24 -28 -36 -64q-13 -37 -13 -77t13 -76q12 -36 36 -64l-76 -76
l33 -33l76 76q28 -24 64 -36l76 -13q40 0 76 13q36 12 64 36l77 -76l33 33l-76 76q24 28 36 64t12 76t-12 77q-12 36 -36 64l76 75l-33 33l-77 -75q-28 24 -64 36l-76 12l-76 -12v0z" />
    <glyph glyph-name="yen" unicode="&#xa5;" horiz-adv-x="505" 
d="M437 729l-183 -370l-185 370h-59l168 -334h-111v-39h131l27 -54v-54h-158v-39h158v-209h56v209h157v39h-157v54l27 54h130v39h-110l167 334h-58v0z" />
    <glyph glyph-name="brokenbar" unicode="&#xa6;" horiz-adv-x="336" 
d="M137 446h52v359h-52v-359v0zM137 282v-358h52v358h-52v0z" />
    <glyph glyph-name="section" unicode="&#xa7;" horiz-adv-x="580" 
d="M444 665q-25 34 -66 52q-40 18 -88 18q-50 0 -90 -20q-41 -19 -65 -56q-24 -36 -24 -88q0 -55 26 -90q27 -34 75 -54q-30 -14 -56 -39q-25 -24 -41 -58q-15 -34 -15 -77q0 -68 36 -117q35 -49 101 -69l85 -23q44 -13 70 -43q25 -31 26 -72q-1 -59 -35 -90
q-34 -32 -93 -32t-93 27q-34 28 -40 83h-55q4 -51 29 -86q26 -36 67 -54q40 -19 92 -19q54 0 95 22t65 61q23 38 23 88q0 56 -28 94q-28 39 -77 56q30 13 56 38q25 24 41 58q15 35 16 78q-1 67 -37 116q-36 50 -101 69l-85 24q-40 11 -66 37t-27 72q1 58 34 87t91 29
q56 0 89 -25t39 -82h54q-3 50 -28 85v0zM389 356q22 -22 29 -48q8 -25 7 -55q0 -36 -9 -60q-9 -25 -27 -44q-19 -21 -44 -31q-25 -11 -55 -11t-55 11q-25 10 -44 31q-18 19 -27 44t-9 60q0 32 7 57q8 24 29 46q19 21 44 31q25 11 55 11q29 0 54 -11q25 -10 45 -31v0z" />
    <glyph glyph-name="dieresis" unicode="&#xa8;" horiz-adv-x="512" 
d="M333 614h59v79h-59v-79v0zM120 614h60v79h-60v-79v0z" />
    <glyph glyph-name="copyright" unicode="&#xa9;" horiz-adv-x="915" 
d="M462 576q-62 0 -102 -29q-41 -29 -60 -77t-19 -106t19 -105q19 -48 60 -76q40 -29 102 -30q42 0 74 14q31 13 60 40l-31 30q-26 -24 -50 -33l-53 -9q-51 1 -81 24t-42 61q-12 39 -12 84q0 46 12 84q12 39 42 62q30 24 81 24l53 -9q24 -10 50 -34l31 31q-30 28 -61 41
t-73 13v0zM735 527q43 -74 45 -163q-2 -89 -45 -162q-43 -74 -115 -118q-73 -44 -162 -45q-89 1 -162 45q-72 44 -115 118q-43 73 -45 162q2 89 45 163q43 73 115 118q73 44 162 45q89 -1 162 -45q72 -45 115 -118v0zM645 684q-83 50 -187 51q-104 -1 -187 -51
q-84 -49 -133 -133q-50 -83 -51 -187q1 -103 51 -187q49 -83 133 -133q83 -49 187 -50q104 1 187 50q84 50 133 133q49 84 51 187q-2 104 -51 187q-49 84 -133 133v0z" />
    <glyph glyph-name="ordfeminine" unicode="&#xaa;" horiz-adv-x="458" 
d="M202 520h119v-48l-5 -45q-6 -19 -16 -29q-21 -19 -45 -24l-51 -5q-52 0 -76 18q-24 19 -23 56q0 39 24 58q25 19 73 19v0zM97 526q-36 -29 -36 -84q0 -22 7 -42t21 -35q19 -20 46 -28l69 -8l66 10q27 9 51 32v-36h44v268q0 62 -38 95q-37 34 -114 34q-46 1 -79 -13
q-34 -13 -60 -49l33 -27q17 27 42 38q24 11 64 11q58 0 83 -24q25 -23 25 -69v-43h-124q-65 -1 -100 -30v0z" />
    <glyph glyph-name="guillemotleft" unicode="&#xab;" horiz-adv-x="540" 
d="M244 70v68l-133 133l133 133v68l-201 -201l201 -201v0zM456 472l-201 -201l201 -201v68l-133 133l133 133v68v0z" />
    <glyph glyph-name="logicalnot" unicode="&#xac;" 
d="M424 109h48v185h-417v-48h369v-137v0z" />
    <glyph glyph-name="uni00AD" unicode="&#xad;" horiz-adv-x="436" 
d="M84 246h269v48h-269v-48v0z" />
    <glyph glyph-name="registered" unicode="&#xae;" horiz-adv-x="915" 
d="M529 506q23 -22 24 -57q-1 -34 -24 -56q-24 -21 -62 -22h-80v157h80q38 -1 62 -22v0zM472 570h-131v-411h46v172h68l101 -172h54l-104 176q42 11 67 40q26 28 26 74q0 35 -17 63q-18 27 -46 42q-29 16 -64 16v0zM736 528q43 -74 45 -164q-2 -89 -45 -163t-116 -118
q-72 -44 -162 -45q-90 1 -162 45q-73 44 -116 118q-44 74 -45 163q1 90 45 164q43 73 116 118q72 44 162 45q90 -1 162 -45q73 -45 116 -118v0zM645 684q-83 50 -187 51q-104 -1 -187 -51q-84 -49 -133 -133q-50 -83 -51 -187q1 -103 51 -187q49 -83 133 -133
q83 -49 187 -50q104 1 187 50q84 50 133 133q49 84 51 187q-2 104 -51 187q-49 84 -133 133v0z" />
    <glyph glyph-name="macron" unicode="&#xaf;" horiz-adv-x="512" 
d="M105 622h303v47h-303v-47v0z" />
    <glyph glyph-name="degree" unicode="&#xb0;" horiz-adv-x="469" 
d="M74 575q0 -45 22 -81q21 -36 57 -58q37 -21 82 -22q45 1 81 22q36 22 58 58q21 36 22 81q-1 45 -22 82q-22 36 -58 57q-36 22 -81 22t-82 -22q-36 -21 -57 -57q-22 -37 -22 -82v0zM152 660q32 32 82 33q50 -1 82 -34t33 -84q-1 -52 -32 -84q-32 -33 -82 -34q-50 1 -82 34
q-32 32 -33 84q1 53 32 85v0z" />
    <glyph glyph-name="plusminus" unicode="&#xb1;" 
d="M240 510v-186h-186v-48h186v-186h48v186h184v48h-184v186h-48v0zM54 48v-48h418v48h-418v0z" />
    <glyph glyph-name="uni00B2" unicode="&#xb2;" horiz-adv-x="344" 
d="M84 700q-32 -33 -33 -86h46q0 43 22 61q22 17 53 17q37 0 56 -21q19 -20 19 -57l-6 -32l-18 -31l-172 -218v-41h242v41h-187l152 192q19 23 27 43t8 46q-1 56 -33 87t-88 32q-56 -1 -88 -33v0z" />
    <glyph glyph-name="uni00B3" unicode="&#xb3;" horiz-adv-x="360" 
d="M170 534v-40h8q45 0 66 -22q21 -21 20 -61q0 -40 -23 -62q-23 -21 -60 -22q-32 0 -56 18t-27 58h-47q2 -39 20 -65t47 -39q28 -13 63 -13q37 1 66 15q28 14 45 42t17 68q0 41 -16 67q-17 27 -50 39q29 13 44 37q14 25 14 60q0 55 -33 87q-32 31 -88 32q-50 0 -84 -30
q-34 -29 -38 -83h45q3 34 23 53t54 19q33 0 54 -20t22 -59q0 -37 -19 -58q-19 -20 -59 -21h-8v0z" />
    <glyph glyph-name="acute" unicode="&#xb4;" horiz-adv-x="512" 
d="M268 604l108 150h-69l-99 -150h60v0z" />
    <glyph glyph-name="mu" unicode="&#xb5;" horiz-adv-x="569" 
d="M279 40q-67 0 -102 38q-34 37 -34 109v306h-53v-729h53v276q24 -23 57 -35l73 -11q45 0 81 16t64 48v-58h52v493h-52v-306q0 -71 -36 -109t-103 -38v0z" />
    <glyph glyph-name="paragraph" unicode="&#xb6;" horiz-adv-x="593" 
d="M428 680v-916h53v965h-219q-70 -1 -118 -28q-48 -28 -73 -72t-25 -95q0 -48 24 -92q24 -45 69 -73t111 -29v-576h52v916h126v0z" />
    <glyph glyph-name="periodcentered" unicode="&#xb7;" horiz-adv-x="270" 
d="M97 232h76v76h-76v-76v0z" />
    <glyph glyph-name="cedilla" unicode="&#xb8;" horiz-adv-x="512" 
d="M250 -226l66 154h-57l-73 -154h64v0z" />
    <glyph glyph-name="uni00B9" unicode="&#xb9;" horiz-adv-x="255" 
d="M128 292h45v437h-45l-82 -71v-52l82 73v-387v0z" />
    <glyph glyph-name="ordmasculine" unicode="&#xba;" horiz-adv-x="463" 
d="M188 684l44 8l43 -8l37 -25q22 -24 28 -59l5 -69q1 -34 -5 -68q-6 -35 -28 -60l-36 -24q-20 -8 -44 -9l-44 9l-36 24q-23 25 -29 60q-6 34 -5 68q-1 34 5 69t29 59q16 16 36 25v0zM74 531q-1 -43 9 -84t40 -73q22 -22 49 -33q27 -10 60 -10l60 10q27 11 48 33
q31 32 41 73q9 41 8 84q1 44 -8 85q-10 41 -41 73q-21 21 -48 32l-60 11q-33 0 -60 -11l-49 -32q-30 -32 -40 -73t-9 -85v0z" />
    <glyph glyph-name="guillemotright" unicode="&#xbb;" horiz-adv-x="540" 
d="M296 70l201 201l-201 201v-68l133 -133l-133 -133v-68v0zM285 271l-201 201v-68l133 -133l-133 -133v-68l201 201v0z" />
    <glyph glyph-name="onequarter" unicode="&#xbc;" horiz-adv-x="774" 
d="M512 729l-340 -729h46l340 729h-46v0zM128 679v-388h45v438h-45l-82 -71v-52l82 73v0zM619 437l-158 -328v-41h174v-68h45v68h53v41h-53v123h-45v-123h-125l157 328h-48v0z" />
    <glyph glyph-name="onehalf" unicode="&#xbd;" horiz-adv-x="782" 
d="M497 729l-340 -729h46l340 729h-46v0zM128 679v-387h45v437h-45l-82 -71v-52l82 73v0zM662 259l-172 -218v-41h241v41h-187l153 192l26 43q8 20 8 46q0 56 -33 87q-32 32 -87 32q-56 -1 -89 -33q-32 -33 -32 -86h45q1 43 23 61t53 17q36 0 55 -21q19 -20 19 -57l-6 -32
l-17 -31v0z" />
    <glyph glyph-name="threequarters" unicode="&#xbe;" horiz-adv-x="825" 
d="M574 729l-340 -729h46l340 729h-46v0zM170 534v-40h8q45 0 66 -22q21 -21 20 -61q0 -40 -23 -62q-23 -21 -60 -22q-32 0 -56 18t-27 58h-47q2 -39 20 -65t47 -39q28 -13 63 -13q37 1 66 15q28 14 45 42t17 68q0 41 -16 67q-17 27 -50 39q29 13 44 37q14 25 14 60
q0 55 -33 87q-32 31 -88 32q-50 0 -84 -30q-34 -29 -38 -83h45q3 34 23 53t54 19q33 0 54 -20t22 -59q0 -37 -19 -58q-19 -20 -59 -21h-8v0zM670 437l-158 -328v-41h174v-68h45v68h54v41h-54v123h-45v-123h-125l157 328h-48v0z" />
    <glyph glyph-name="questiondown" unicode="&#xbf;" horiz-adv-x="500" 
d="M262 493h-68v-68h68v68v0zM254 298h-52v-48l-4 -30l-14 -32l-87 -128q-21 -29 -33 -58q-12 -28 -13 -64q1 -51 25 -92q24 -40 65 -64q41 -23 94 -24q55 1 96 25t64 65t23 90h-52q0 -36 -16 -66q-16 -31 -46 -49q-29 -18 -69 -19q-58 1 -94 38q-36 38 -37 96q0 29 9 50
l25 45l87 126q15 22 22 43q7 20 7 50v46v0z" />
    <glyph glyph-name="Agrave" unicode="&#xc0;" horiz-adv-x="616" 
d="M284 729l-268 -729h59l63 177h340l64 -177h59l-268 729h-49v0zM357 798l-100 151h-68l108 -151h60v0zM461 226h-305l152 429l153 -429v0z" />
    <glyph glyph-name="Aacute" unicode="&#xc1;" horiz-adv-x="616" 
d="M284 729l-268 -729h59l63 177h340l64 -177h59l-268 729h-49v0zM260 798h60l108 151h-68l-100 -151v0zM461 226h-305l152 429l153 -429v0z" />
    <glyph glyph-name="Acircumflex" unicode="&#xc2;" horiz-adv-x="616" 
d="M404 798h58l-126 151h-55l-126 -151h58l95 112l96 -112v0zM284 729l-268 -729h59l63 177h340l64 -177h59l-268 729h-49v0zM461 226h-305l152 429l153 -429v0z" />
    <glyph glyph-name="Atilde" unicode="&#xc3;" horiz-adv-x="616" 
d="M461 863l-31 30q-23 -23 -36 -29l-24 -5l-28 6q-14 5 -29 15l-34 18l-37 7l-22 -2q-12 -3 -29 -14q-17 -10 -40 -33l30 -30l36 29l25 5l29 -7l28 -15q17 -10 34 -17q16 -7 37 -7l21 2q13 3 30 13l40 34v0zM284 729l-268 -729h59l63 177h340l64 -177h59l-268 729h-49v0z
M461 226h-305l152 429l153 -429v0z" />
    <glyph glyph-name="Adieresis" unicode="&#xc4;" horiz-adv-x="616" 
d="M445 888h-60v-79h60v79v0zM284 729l-268 -729h59l64 177h339l64 -177h59l-268 729h-49v0zM232 809v79h-60v-79h60v0zM461 226h-305l153 429l152 -429v0z" />
    <glyph glyph-name="Aring" unicode="&#xc5;" horiz-adv-x="616" 
d="M425 881q-1 50 -34 83t-83 34q-49 -1 -82 -34t-34 -83q0 -32 16 -59q15 -26 42 -42q26 -16 58 -16q33 0 59 16q27 16 42 42q16 27 16 59v0zM383 881q-1 -31 -22 -52q-21 -22 -53 -22q-31 0 -52 22q-21 21 -22 52q1 32 22 53q21 20 52 21q32 -1 53 -21q21 -21 22 -53v0z
M284 729l-268 -729h59l63 177h340l64 -177h59l-268 729h-49v0zM461 226h-305l152 429l153 -429v0z" />
    <glyph glyph-name="AE" unicode="&#xc6;" horiz-adv-x="923" 
d="M479 340h329v49h-329v291h387v49h-469l-386 -729h60l92 177h261v-177h442v49h-387v291v0zM424 226h-237l237 454v-454v0z" />
    <glyph glyph-name="Ccedilla" unicode="&#xc7;" horiz-adv-x="659" 
d="M498 678q-65 56 -164 57q-53 0 -99 -19q-47 -20 -83 -56q-33 -32 -47 -69q-15 -38 -18 -91q-3 -54 -3 -136q0 -81 3 -134q3 -54 18 -92q14 -37 47 -70q36 -36 83 -55q46 -19 99 -19q98 1 163 57t85 156h-54q-17 -77 -68 -120q-51 -44 -126 -44q-39 0 -75 14
q-35 14 -63 42q-26 25 -38 57q-12 33 -15 82q-4 49 -3 126q-1 77 3 127q3 49 15 81t38 58q28 27 63 41q36 15 75 15q75 -1 125 -44t67 -120h56q-19 99 -84 156v0zM309 -226l66 154h-56l-74 -154h64v0z" />
    <glyph glyph-name="Egrave" unicode="&#xc8;" horiz-adv-x="612" 
d="M555 729h-442v-729h442v49h-387v294h330v49h-330v288h387v49v0zM311 798h59l-99 151h-69l109 -151v0z" />
    <glyph glyph-name="Eacute" unicode="&#xc9;" horiz-adv-x="612" 
d="M555 729h-442v-729h442v49h-387v294h330v49h-330v288h387v49v0zM333 798l109 151h-69l-99 -151h59v0z" />
    <glyph glyph-name="Ecircumflex" unicode="&#xca;" horiz-adv-x="612" 
d="M475 798l-126 151h-55l-126 -151h59l95 112l95 -112h58v0zM555 729h-442v-729h442v49h-387v294h330v49h-330v288h387v49v0z" />
    <glyph glyph-name="Edieresis" unicode="&#xcb;" horiz-adv-x="612" 
d="M458 888h-59v-79h59v79v0zM555 729h-442v-729h442v49h-387v294h330v49h-330v288h387v49v0zM186 809h59v79h-59v-79v0z" />
    <glyph glyph-name="Igrave" unicode="&#xcc;" horiz-adv-x="281" 
d="M136 798h60l-100 151h-68l108 -151v0zM113 729v-729h55v729h-55v0z" />
    <glyph glyph-name="Iacute" unicode="&#xcd;" horiz-adv-x="281" 
d="M172 798l109 151h-69l-99 -151h59v0zM113 729v-729h55v729h-55v0z" />
    <glyph glyph-name="Icircumflex" unicode="&#xce;" horiz-adv-x="281" 
d="M238 798h58l-126 151h-55l-126 -151h58l96 112l95 -112v0zM113 729v-729h55v729h-55v0z" />
    <glyph glyph-name="Idieresis" unicode="&#xcf;" horiz-adv-x="281" 
d="M217 809h60v79h-60v-79v0zM4 809h60v79h-60v-79v0zM113 729v-729h55v729h-55v0z" />
    <glyph glyph-name="Eth" unicode="&#xd0;" horiz-adv-x="706" 
d="M554 544q9 -29 11 -72l2 -113l-2 -112l-9 -67q-8 -25 -24 -49q-29 -43 -73 -63q-45 -20 -103 -20h-177v298h183v43h-183v292h177q54 0 96 -18q41 -18 74 -63q20 -26 28 -56v0zM603 572l-20 39q-34 59 -88 88q-54 30 -125 30h-246v-340h-83v-43h83v-346h239q80 1 134 33
q55 32 86 82l19 34l11 42l7 66l2 107l-2 101l-5 64l-12 43v0z" />
    <glyph glyph-name="Ntilde" unicode="&#xd1;" horiz-adv-x="757" 
d="M532 863l-31 30l-36 -29l-24 -5l-29 6l-29 15l-33 18l-37 7l-22 -2q-12 -3 -29 -14l-41 -33l31 -30l36 29l25 5l29 -7l28 -15q17 -10 33 -17l38 -7l21 2q12 3 29 13l41 34v0zM589 729v-632l-421 632h-55v-729h55v634l421 -634h55v729h-55v0z" />
    <glyph glyph-name="Ograve" unicode="&#xd2;" horiz-adv-x="668" 
d="M510 572q12 -32 16 -81l3 -127l-3 -126q-4 -49 -16 -82q-12 -32 -38 -57q-28 -28 -63 -42t-75 -14q-39 0 -75 14q-35 14 -63 42q-26 25 -38 57q-12 33 -15 82q-4 49 -3 126q-1 77 3 127q3 49 15 81t38 58q28 27 63 41q36 15 75 15q40 0 75 -15q35 -14 63 -41
q26 -26 38 -58v0zM563 591q-14 37 -47 69q-36 36 -83 56q-46 19 -99 19t-99 -19q-47 -20 -83 -56q-33 -32 -47 -69q-15 -38 -18 -91q-3 -54 -3 -136q0 -81 3 -134q3 -54 18 -92q14 -37 47 -70q36 -36 83 -55q46 -19 99 -19t99 19q47 19 83 55q33 33 47 70q15 38 18 92l3 134
l-3 136q-3 53 -18 91v0zM323 798h59l-99 151h-69l109 -151v0z" />
    <glyph glyph-name="Oacute" unicode="&#xd3;" horiz-adv-x="668" 
d="M510 572q12 -32 16 -81l3 -127l-3 -126q-4 -49 -16 -82q-12 -32 -38 -57q-28 -28 -63 -42t-75 -14q-39 0 -75 14q-35 14 -63 42q-26 25 -38 57q-12 33 -15 82q-4 49 -3 126q-1 77 3 127q3 49 15 81t38 58q28 27 63 41q36 15 75 15q40 0 75 -15q35 -14 63 -41
q26 -26 38 -58v0zM563 591q-14 37 -47 69q-36 36 -83 56q-46 19 -99 19t-99 -19q-47 -20 -83 -56q-33 -32 -47 -69q-15 -38 -18 -91q-3 -54 -3 -136q0 -81 3 -134q3 -54 18 -92q14 -37 47 -70q36 -36 83 -55q46 -19 99 -19t99 19q47 19 83 55q33 33 47 70q15 38 18 92l3 134
l-3 136q-3 53 -18 91v0zM286 798h59l109 151h-69l-99 -151v0z" />
    <glyph glyph-name="Ocircumflex" unicode="&#xd4;" horiz-adv-x="668" 
d="M488 798l-126 151h-56l-126 -151h59l95 112l95 -112h59v0zM510 572q12 -32 16 -81l3 -127l-3 -126q-4 -49 -16 -82q-12 -32 -38 -57q-28 -28 -63 -42t-75 -14q-39 0 -75 14q-35 14 -63 42q-26 25 -38 57q-12 33 -15 82q-4 49 -3 126q-1 77 3 127q3 49 15 81t38 58
q28 27 63 41q36 15 75 15q40 0 75 -15q35 -14 63 -41q26 -26 38 -58v0zM563 591q-14 37 -47 69q-36 36 -83 56q-46 19 -99 19t-99 -19q-47 -20 -83 -56q-33 -32 -47 -69q-15 -38 -18 -91q-3 -54 -3 -136q0 -81 3 -134q3 -54 18 -92q14 -37 47 -70q36 -36 83 -55
q46 -19 99 -19t99 19q47 19 83 55q33 33 47 70q15 38 18 92l3 134l-3 136q-3 53 -18 91v0z" />
    <glyph glyph-name="Otilde" unicode="&#xd5;" horiz-adv-x="668" 
d="M456 893l-36 -29l-24 -5l-29 6l-29 15l-33 18l-37 7l-22 -2q-13 -3 -29 -14l-41 -33l31 -30l36 29l25 5l29 -7l28 -15q17 -10 33 -17t38 -7l21 2q12 3 29 13l41 34l-31 30v0zM433 716q-46 19 -99 19t-99 -19q-47 -20 -83 -56q-33 -32 -47 -69q-15 -38 -18 -91
q-3 -54 -3 -136q0 -81 3 -134q3 -54 18 -92q14 -37 47 -70q36 -36 83 -55q46 -19 99 -19t99 19q47 19 83 55q33 33 47 70q15 38 18 92l3 134l-3 136q-3 53 -18 91q-14 37 -47 69q-36 36 -83 56v0zM472 630q26 -26 38 -58t16 -81l3 -127l-3 -126q-4 -49 -16 -82
q-12 -32 -38 -57q-28 -28 -63 -42t-75 -14q-39 0 -75 14q-35 14 -63 42q-26 25 -38 57q-12 33 -15 82q-4 49 -3 126q-1 77 3 127q3 49 15 81t38 58q28 27 63 41q36 15 75 15q40 0 75 -15q35 -14 63 -41v0z" />
    <glyph glyph-name="Odieresis" unicode="&#xd6;" horiz-adv-x="668" 
d="M470 809v79h-59v-79h59v0zM433 716q-46 19 -99 19t-99 -19q-47 -20 -83 -56q-33 -32 -47 -69q-15 -38 -18 -91q-3 -54 -3 -136q0 -81 3 -134q3 -54 18 -92q14 -37 47 -70q36 -36 83 -55q46 -19 99 -19t99 19q47 19 83 55q33 33 47 70q15 38 18 92l3 134l-3 136
q-3 53 -18 91q-14 37 -47 69q-36 36 -83 56v0zM472 630q26 -26 38 -58t16 -81l3 -127l-3 -126q-4 -49 -16 -82q-12 -32 -38 -57q-28 -28 -63 -42t-75 -14q-39 0 -75 14q-35 14 -63 42q-26 25 -38 57q-12 33 -15 82q-4 49 -3 126q-1 77 3 127q3 49 15 81t38 58q28 27 63 41
q36 15 75 15q40 0 75 -15q35 -14 63 -41v0zM257 888h-59v-79h59v79v0z" />
    <glyph glyph-name="multiply" unicode="&#xd7;" 
d="M263 239l159 -159l32 32l-159 158l159 159l-32 32l-159 -159l-158 159l-32 -32l159 -159l-159 -158l32 -32l158 159v0z" />
    <glyph glyph-name="Oslash" unicode="&#xd8;" horiz-adv-x="668" 
d="M514 563q10 -32 12 -80l3 -119l-3 -126q-4 -49 -16 -82q-12 -32 -38 -57q-28 -28 -63 -42t-75 -14q-63 0 -111 34l260 541q21 -24 31 -55v0zM563 591q-14 37 -47 69l-9 9l50 105h-54l-36 -75q-30 18 -63 27l-70 9q-53 0 -99 -19q-47 -20 -83 -56q-33 -32 -47 -69
q-15 -38 -18 -91q-3 -54 -3 -136q0 -81 3 -134q3 -54 18 -92q14 -37 47 -70l9 -9l-50 -104h54l36 74q30 -17 63 -26l70 -9q53 0 99 19q47 19 83 55q33 33 47 70q15 38 18 92l3 134l-3 136q-3 53 -18 91v0zM196 630q28 27 63 41q36 15 75 15l58 -8q29 -8 53 -26l-259 -542
q-22 24 -32 56t-12 79l-2 119q-1 77 3 127q3 49 15 81t38 58v0z" />
    <glyph glyph-name="Ugrave" unicode="&#xd9;" horiz-adv-x="705" 
d="M547 729v-486q-1 -91 -53 -145t-141 -55q-90 1 -142 55t-53 145v486h-55v-493q0 -71 32 -126q32 -54 88 -85t130 -31q73 0 129 31t88 85q32 55 32 126v493h-55v0zM341 798h60l-100 151h-68l108 -151v0z" />
    <glyph glyph-name="Uacute" unicode="&#xda;" horiz-adv-x="705" 
d="M547 729v-486q-1 -91 -53 -145t-141 -55q-90 1 -142 55t-53 145v486h-55v-493q0 -71 32 -126q32 -54 88 -85t130 -31q73 0 129 31t88 85q32 55 32 126v493h-55v0zM364 798l108 151h-68l-100 -151h60v0z" />
    <glyph glyph-name="Ucircumflex" unicode="&#xdb;" horiz-adv-x="705" 
d="M506 798l-126 151h-55l-126 -151h58l96 112l95 -112h58v0zM547 729v-486q-1 -91 -53 -145t-141 -55q-90 1 -142 55t-53 145v486h-55v-493q0 -71 32 -126q32 -54 88 -85t130 -31q73 0 129 31t88 85q32 55 32 126v493h-55v0z" />
    <glyph glyph-name="Udieresis" unicode="&#xdc;" horiz-adv-x="705" 
d="M429 809h60v79h-60v-79v0zM547 729v-486q-1 -91 -53 -145t-141 -55q-90 1 -142 55t-53 145v486h-55v-493q0 -71 32 -126q32 -54 88 -85t130 -31q73 0 129 31t88 85q32 55 32 126v493h-55v0zM216 809h60v79h-60v-79v0z" />
    <glyph glyph-name="Yacute" unicode="&#xdd;" horiz-adv-x="506" 
d="M436 729l-181 -369l-185 369h-60l215 -427v-302h56v302l215 427h-60v0zM264 798l109 151h-69l-99 -151h59v0z" />
    <glyph glyph-name="Thorn" unicode="&#xde;" horiz-adv-x="662" 
d="M374 528q77 0 124 -39q46 -40 47 -122q-1 -82 -47 -121q-47 -40 -124 -39h-206v321h206v0zM168 577v152h-55v-729h55v157h212q64 1 113 25q50 25 78 72q29 47 29 113q0 68 -29 114q-28 47 -78 72q-49 24 -113 24h-212v0z" />
    <glyph glyph-name="germandbls" unicode="&#xdf;" horiz-adv-x="563" 
d="M432 570q0 -47 -27 -76q-26 -28 -73 -28h-40v-46h50l39 -6q16 -6 28 -18q13 -12 18 -29q6 -16 5 -41v-183q0 -26 -7 -45q-7 -18 -21 -30l-29 -17l-38 -5h-45v-46h55l55 8q23 8 43 27q18 17 29 43q10 26 11 59v181q0 48 -13 78q-14 30 -53 49q32 22 48 53q17 31 17 72
q-1 57 -26 94t-68 54q-42 18 -94 18q-93 -1 -145 -53q-51 -52 -51 -146v-537h52v537q-1 69 32 110q33 42 106 43l63 -8q27 -9 44 -25t26 -38q9 -23 9 -49v0z" />
    <glyph glyph-name="agrave" unicode="&#xe0;" horiz-adv-x="537" 
d="M244 604h59l-99 150h-69l109 -150v0zM389 333v-56h-159q-82 0 -127 -37t-45 -105q0 -28 9 -53t26 -43q23 -25 57 -35l89 -10l85 12q35 12 65 43v-49h53v338q0 78 -47 119q-47 42 -145 42q-60 1 -102 -16q-41 -16 -72 -59l38 -33q23 33 54 48t82 14q75 0 108 -30
q32 -31 31 -90v0zM141 211q32 24 95 24h153v-63q0 -34 -7 -58q-6 -23 -20 -36q-27 -25 -58 -32l-65 -6q-67 0 -98 23q-32 24 -31 73q0 50 31 75v0z" />
    <glyph glyph-name="aacute" unicode="&#xe1;" horiz-adv-x="537" 
d="M266 604l109 150h-69l-99 -150h59v0zM389 333v-56h-159q-82 0 -127 -37t-45 -105q0 -28 9 -53t26 -43q23 -25 57 -35l89 -10l85 12q35 12 65 43v-49h53v338q0 78 -47 119q-47 42 -145 42q-60 1 -102 -16q-41 -16 -72 -59l38 -33q23 33 54 48t82 14q75 0 108 -30
q32 -31 31 -90v0zM141 211q32 24 95 24h153v-63q0 -34 -7 -58q-6 -23 -20 -36q-27 -25 -58 -32l-65 -6q-67 0 -98 23q-32 24 -31 73q0 50 31 75v0z" />
    <glyph glyph-name="acircumflex" unicode="&#xe2;" horiz-adv-x="537" 
d="M350 604h59l-126 150h-55l-126 -150h58l95 112l95 -112v0zM389 333v-56h-159q-82 0 -127 -37t-45 -105q0 -28 9 -53t26 -43q23 -25 57 -35l89 -10l85 12q35 12 65 43v-49h53v338q0 78 -47 119q-47 42 -145 42q-60 1 -102 -16q-41 -16 -72 -59l38 -33q23 33 54 48t82 14
q75 0 108 -30q32 -31 31 -90v0zM141 211q32 24 95 24h153v-63q0 -34 -7 -58q-6 -23 -20 -36q-27 -25 -58 -32l-65 -6q-67 0 -98 23q-32 24 -31 73q0 50 31 75v0z" />
    <glyph glyph-name="atilde" unicode="&#xe3;" horiz-adv-x="537" 
d="M189 665l29 -6l28 -15q17 -10 33 -17q17 -7 38 -8l21 3q12 2 29 13l41 33l-31 30l-36 -29q-13 -6 -24 -5q-15 0 -29 6l-29 16l-33 18l-37 6l-22 -2l-29 -13l-40 -34l30 -29q23 23 36 28l25 5v0zM389 333v-56h-159q-82 0 -127 -37t-45 -105q0 -28 9 -53t26 -43
q23 -25 57 -35l89 -10l85 12q35 12 65 43v-49h53v338q0 78 -47 119q-47 42 -145 42q-60 1 -102 -16q-41 -16 -72 -59l38 -33q23 33 54 48t82 14q75 0 108 -30q32 -31 31 -90v0zM141 211q32 24 95 24h153v-63q0 -34 -7 -58q-6 -23 -20 -36q-27 -25 -58 -32l-65 -6
q-67 0 -98 23q-32 24 -31 73q0 50 31 75v0z" />
    <glyph glyph-name="adieresis" unicode="&#xe4;" horiz-adv-x="537" 
d="M332 614h59v79h-59v-79v0zM119 614h59v79h-59v-79v0zM389 333v-56h-159q-82 0 -127 -37t-45 -105q0 -28 9 -53t26 -43q23 -25 57 -35l89 -10l85 12q35 12 65 43v-49h53v338q0 78 -47 119q-47 42 -145 42q-60 1 -102 -16q-41 -16 -72 -59l38 -33q23 33 54 48t82 14
q75 0 108 -30q32 -31 31 -90v0zM141 211q32 24 95 24h153v-63q0 -34 -7 -58q-6 -23 -20 -36q-27 -25 -58 -32l-65 -6q-67 0 -98 23q-32 24 -31 73q0 50 31 75v0z" />
    <glyph glyph-name="aring" unicode="&#xe5;" horiz-adv-x="537" 
d="M308 745q21 -21 22 -52q-1 -32 -22 -53t-53 -22q-31 1 -53 22q-21 21 -22 53q1 31 22 52q22 21 53 22q32 -1 53 -22v0zM255 810q-49 -2 -82 -34q-33 -33 -35 -83q1 -33 16 -59q16 -27 42 -43q27 -15 59 -16q33 1 59 16q26 16 42 43q16 26 16 59q-1 50 -34 83
q-33 32 -83 34v0zM389 333v-56h-159q-82 0 -127 -37t-45 -105q0 -28 9 -53t26 -43q23 -25 57 -35l89 -10l85 12q35 12 65 43v-49h53v338q0 78 -47 119q-47 42 -145 42q-60 1 -102 -16q-41 -16 -72 -59l38 -33q23 33 54 48t82 14q75 0 108 -30q32 -31 31 -90v0zM141 211
q32 24 95 24h153v-63q0 -34 -7 -58q-6 -23 -20 -36q-27 -25 -58 -32l-65 -6q-67 0 -98 23q-32 24 -31 73q0 50 31 75v0z" />
    <glyph glyph-name="ae" unicode="&#xe6;" horiz-adv-x="854" 
d="M358 423q32 -31 31 -90v-56h-159q-82 0 -127 -37t-45 -105q0 -28 9 -53t26 -43q23 -25 57 -35l89 -10q67 -1 110 21q43 21 73 71q26 -46 70 -69t106 -23q61 0 102 19t77 56l-38 31q-31 -31 -62 -45q-32 -15 -75 -14q-79 0 -120 50q-40 49 -40 144h343v24q-1 114 -53 177
q-51 63 -145 63q-53 0 -94 -22q-40 -22 -66 -65q-19 44 -63 66q-44 21 -114 21q-60 1 -102 -16q-41 -16 -72 -59l38 -33q23 33 54 48t82 14q75 0 108 -30v0zM141 211q32 24 95 24h153v-63q0 -34 -7 -58q-6 -23 -20 -36q-27 -25 -58 -32l-65 -6q-67 0 -98 23q-32 24 -31 73
q0 50 31 75v0zM732 277h-290l3 39l5 27l9 27q17 40 51 61q33 22 77 22t77 -22q34 -21 51 -61l10 -26l4 -28l3 -39v0z" />
    <glyph glyph-name="ccedilla" unicode="&#xe7;" horiz-adv-x="505" 
d="M355 440q29 -14 60 -49l36 33q-38 43 -76 59q-37 17 -87 16q-102 -1 -159 -67q-57 -67 -58 -185q1 -119 58 -186q57 -66 159 -67q50 -1 87 16q38 16 76 59l-36 33q-31 -34 -60 -48q-29 -15 -67 -14q-42 0 -76 16q-33 16 -55 49q-18 26 -26 59t-8 83q0 49 8 82t26 59
q22 33 55 49q34 16 76 16q38 1 67 -13v0zM250 -226l66 154h-57l-73 -154h64v0z" />
    <glyph glyph-name="egrave" unicode="&#xe8;" horiz-adv-x="536" 
d="M259 604h60l-100 150h-68l108 -150v0zM397 370l9 -26l5 -28l3 -39h-291l4 39q1 15 5 27l9 27q16 40 50 61q34 22 78 22q43 0 77 -22q34 -21 51 -61v0zM125 58q53 -64 156 -64q60 0 101 19t77 56l-39 31q-31 -31 -62 -45q-31 -15 -74 -14q-79 0 -120 50q-41 49 -41 144
h343v24q-1 114 -52 177q-52 63 -145 63q-94 0 -146 -66q-51 -66 -52 -186q0 -124 54 -189v0z" />
    <glyph glyph-name="eacute" unicode="&#xe9;" horiz-adv-x="536" 
d="M282 604l108 150h-68l-100 -150h60v0zM397 370l9 -26l5 -28l3 -39h-291l4 39q1 15 5 27l9 27q16 40 50 61q34 22 78 22q43 0 77 -22q34 -21 51 -61v0zM125 58q53 -64 156 -64q60 0 101 19t77 56l-39 31q-31 -31 -62 -45q-31 -15 -74 -14q-79 0 -120 50q-41 49 -41 144
h343v24q-1 114 -52 177q-52 63 -145 63q-94 0 -146 -66q-51 -66 -52 -186q0 -124 54 -189v0z" />
    <glyph glyph-name="ecircumflex" unicode="&#xea;" horiz-adv-x="536" 
d="M366 604h58l-126 150h-55l-126 -150h58l96 112l95 -112v0zM397 370l9 -26l5 -28l3 -39h-291l4 39q1 15 5 27l9 27q16 40 50 61q34 22 78 22q43 0 77 -22q34 -21 51 -61v0zM125 58q53 -64 156 -64q60 0 101 19t77 56l-39 31q-31 -31 -62 -45q-31 -15 -74 -14
q-79 0 -120 50q-41 49 -41 144h343v24q-1 114 -52 177q-52 63 -145 63q-94 0 -146 -66q-51 -66 -52 -186q0 -124 54 -189v0z" />
    <glyph glyph-name="edieresis" unicode="&#xeb;" horiz-adv-x="536" 
d="M407 693h-60v-79h60v79v0zM134 614h60v79h-60v-79v0zM397 370l9 -26l5 -28l3 -39h-291l4 39q1 15 5 27l9 27q16 40 50 61q34 22 78 22q43 0 77 -22q34 -21 51 -61v0zM125 58q53 -64 156 -64q60 0 101 19t77 56l-39 31q-31 -31 -62 -45q-31 -15 -74 -14q-79 0 -120 50
q-41 49 -41 144h343v24q-1 114 -52 177q-52 63 -145 63q-94 0 -146 -66q-51 -66 -52 -186q0 -124 54 -189v0z" />
    <glyph glyph-name="igrave" unicode="&#xec;" horiz-adv-x="251" 
d="M127 604h60l-100 150h-68l108 -150v0zM100 493v-493h52v493h-52v0z" />
    <glyph glyph-name="iacute" unicode="&#xed;" horiz-adv-x="251" 
d="M159 604l108 150h-68l-99 -150h59v0zM100 493v-493h52v493h-52v0z" />
    <glyph glyph-name="icircumflex" unicode="&#xee;" horiz-adv-x="251" 
d="M220 604h59l-126 150h-55l-126 -150h58l95 111l95 -111v0zM100 493v-493h52v493h-52v0z" />
    <glyph glyph-name="idieresis" unicode="&#xef;" horiz-adv-x="251" 
d="M49 693h-59v-79h59v79v0zM203 614h59v79h-59v-79v0zM100 493v-493h52v493h-52v0z" />
    <glyph glyph-name="eth" unicode="&#xf0;" horiz-adv-x="539" 
d="M158 598h120l68 -116l-36 13l-40 4q-42 0 -76 -13q-35 -14 -62 -41q-38 -40 -50 -92q-12 -53 -11 -106q-1 -54 11 -107q12 -52 50 -92q27 -27 62 -41q34 -13 76 -13t76 13q34 14 61 41q38 40 50 92q12 53 11 107l-4 75q-4 33 -18 68l-41 82l-74 126h58v39h-81l-53 92h-54
l54 -92h-97v-39v0zM372 411q30 -31 37 -76l7 -88q1 -45 -7 -89q-7 -45 -37 -76q-21 -21 -47 -32q-25 -10 -55 -10t-56 10q-26 11 -47 32q-29 31 -37 76q-8 44 -7 89q-1 44 7 88q8 45 37 76q21 21 47 32l56 10l55 -10q26 -11 47 -32v0z" />
    <glyph glyph-name="ntilde" unicode="&#xf1;" horiz-adv-x="572" 
d="M413 698q-23 -23 -36 -29l-24 -5l-29 6l-29 16l-33 18l-37 6l-22 -2q-13 -3 -29 -13l-41 -34l31 -29q23 23 36 28l25 5l29 -6l28 -15l33 -17l38 -8l21 3q12 2 29 13l41 33l-31 30v0zM393 415q34 -37 34 -109v-306h52v315q0 44 -12 78q-13 35 -39 59q-24 24 -57 36l-74 11
q-45 0 -81 -16q-37 -16 -64 -48v58h-52v-493h52v306q0 71 36 109t103 38t102 -38v0z" />
    <glyph glyph-name="ograve" unicode="&#xf2;" horiz-adv-x="512" 
d="M245 604h59l-99 150h-69l109 -150v0zM394 335l7 -88q1 -45 -7 -89q-8 -45 -37 -76q-21 -21 -47 -32q-26 -10 -56 -10l-56 10q-25 11 -46 32q-30 31 -38 76q-7 44 -6 89q-1 44 6 88q8 45 38 76q21 21 46 32l56 10l56 -10q26 -11 47 -32q29 -31 37 -76v0zM330 486
q-34 13 -76 13l-76 -13q-34 -14 -61 -41q-38 -40 -50 -92q-13 -53 -11 -106q-2 -54 11 -107q12 -52 50 -92q27 -27 61 -41l76 -13q42 0 76 13q35 14 61 41q39 40 51 92q12 53 11 107q1 53 -11 106q-12 52 -51 92q-26 27 -61 41v0z" />
    <glyph glyph-name="oacute" unicode="&#xf3;" horiz-adv-x="539" 
d="M281 604l108 150h-68l-100 -150h60v0zM372 411q30 -31 37 -76l7 -88q1 -45 -7 -89q-7 -45 -37 -76q-21 -21 -47 -32q-25 -10 -55 -10t-56 10q-26 11 -47 32q-29 31 -37 76q-8 44 -7 89q-1 44 7 88q8 45 37 76q21 21 47 32l56 10l55 -10q26 -11 47 -32v0zM82 353
q-12 -53 -11 -106q-1 -54 11 -107q12 -52 50 -92q27 -27 62 -41q34 -13 76 -13t76 13q34 14 61 41q38 40 50 92q12 53 11 107q1 53 -11 106q-12 52 -50 92q-27 27 -61 41q-34 13 -76 13t-76 -13q-35 -14 -62 -41q-38 -40 -50 -92v0z" />
    <glyph glyph-name="ocircumflex" unicode="&#xf4;" horiz-adv-x="539" 
d="M365 604h58l-126 150h-55l-126 -150h58l96 112l95 -112v0zM372 411q30 -31 37 -76l7 -88q1 -45 -7 -89q-7 -45 -37 -76q-21 -21 -47 -32q-25 -10 -55 -10t-56 10q-26 11 -47 32q-29 31 -37 76q-8 44 -7 89q-1 44 7 88q8 45 37 76q21 21 47 32l56 10l55 -10q26 -11 47 -32
v0zM82 353q-12 -53 -11 -106q-1 -54 11 -107q12 -52 50 -92q27 -27 62 -41q34 -13 76 -13t76 13q34 14 61 41q38 40 50 92q12 53 11 107q1 53 -11 106q-12 52 -50 92q-27 27 -61 41q-34 13 -76 13t-76 -13q-35 -14 -62 -41q-38 -40 -50 -92v0z" />
    <glyph glyph-name="otilde" unicode="&#xf5;" horiz-adv-x="539" 
d="M179 660l24 5l29 -6l28 -15q18 -10 34 -17l37 -8l21 3l30 13l40 33l-31 30l-36 -29l-24 -5q-15 0 -28 6l-29 16l-34 18l-37 6l-22 -2q-12 -3 -29 -13q-17 -11 -40 -34l31 -29l36 28v0zM372 411q30 -31 37 -76l7 -88q1 -45 -7 -89q-7 -45 -37 -76q-21 -21 -47 -32
q-25 -10 -55 -10t-56 10q-26 11 -47 32q-29 31 -37 76q-8 44 -7 89q-1 44 7 88q8 45 37 76q21 21 47 32l56 10l55 -10q26 -11 47 -32v0zM82 353q-12 -53 -11 -106q-1 -54 11 -107q12 -52 50 -92q27 -27 62 -41q34 -13 76 -13t76 13q34 14 61 41q38 40 50 92q12 53 11 107
q1 53 -11 106q-12 52 -50 92q-27 27 -61 41q-34 13 -76 13t-76 -13q-35 -14 -62 -41q-38 -40 -50 -92v0z" />
    <glyph glyph-name="odieresis" unicode="&#xf6;" horiz-adv-x="539" 
d="M406 693h-60v-79h60v79v0zM133 614h60v79h-60v-79v0zM372 411q30 -31 37 -76l7 -88q1 -45 -7 -89q-7 -45 -37 -76q-21 -21 -47 -32q-25 -10 -55 -10t-56 10q-26 11 -47 32q-29 31 -37 76q-8 44 -7 89q-1 44 7 88q8 45 37 76q21 21 47 32l56 10l55 -10q26 -11 47 -32v0z
M82 353q-12 -53 -11 -106q-1 -54 11 -107q12 -52 50 -92q27 -27 62 -41q34 -13 76 -13t76 13q34 14 61 41q38 40 50 92q12 53 11 107q1 53 -11 106q-12 52 -50 92q-27 27 -61 41q-34 13 -76 13t-76 -13q-35 -14 -62 -41q-38 -40 -50 -92v0z" />
    <glyph glyph-name="divide" unicode="&#xf7;" 
d="M228 407h71v71h-71v-71v0zM299 61v72h-71v-72h71v0zM55 246h417v48h-417v-48v0z" />
    <glyph glyph-name="oslash" unicode="&#xf8;" horiz-adv-x="539" 
d="M418 538l-41 -69q-46 30 -107 30q-42 0 -76 -13q-35 -14 -62 -41q-38 -40 -50 -92q-12 -53 -11 -106q-1 -53 11 -105q11 -51 47 -91l-57 -96h49l41 68q24 -14 51 -22l57 -7q42 0 76 13q34 14 61 41q38 40 50 92q12 53 11 107q1 53 -11 104q-11 51 -47 91l57 96h-49v0z
M353 428l-197 -333q-23 32 -28 72q-6 40 -5 80q-1 44 7 88q8 45 37 76q21 21 47 32l56 10l43 -6l40 -19v0zM226 46q-21 6 -39 19l196 333q23 -32 29 -72l4 -79q1 -45 -7 -89q-7 -45 -37 -76q-21 -21 -47 -32q-25 -10 -55 -10l-44 6v0z" />
    <glyph glyph-name="ugrave" unicode="&#xf9;" horiz-adv-x="572" 
d="M272 604h59l-99 150h-69l109 -150v0zM93 493v-315q0 -44 13 -78q13 -35 39 -59q24 -24 57 -36l74 -11q45 0 81 16t64 48v-58h52v493h-52v-306q0 -71 -36 -109t-103 -38t-102 38q-34 37 -34 109v306h-53v0z" />
    <glyph glyph-name="uacute" unicode="&#xfa;" horiz-adv-x="572" 
d="M294 604l109 150h-69l-99 -150h59v0zM93 493v-315q0 -44 13 -78q13 -35 39 -59q24 -24 57 -36l74 -11q45 0 81 16t64 48v-58h52v493h-52v-306q0 -71 -36 -109t-103 -38t-102 38q-34 37 -34 109v306h-53v0z" />
    <glyph glyph-name="ucircumflex" unicode="&#xfb;" horiz-adv-x="572" 
d="M378 604h58l-125 150h-56l-126 -150h59l95 112l95 -112v0zM93 493v-315q0 -44 13 -78q13 -35 39 -59q24 -24 57 -36l74 -11q45 0 81 16t64 48v-58h52v493h-52v-306q0 -71 -36 -109t-103 -38t-102 38q-34 37 -34 109v306h-53v0z" />
    <glyph glyph-name="udieresis" unicode="&#xfc;" horiz-adv-x="572" 
d="M419 693h-59v-79h59v79v0zM147 614h59v79h-59v-79v0zM93 493v-315q0 -44 13 -78q13 -35 39 -59q24 -24 57 -36l74 -11q45 0 81 16t64 48v-58h52v493h-52v-306q0 -71 -36 -109t-103 -38t-102 38q-34 37 -34 109v306h-53v0z" />
    <glyph glyph-name="yacute" unicode="&#xfd;" horiz-adv-x="440" 
d="M232 604l108 150h-68l-100 -150h60v0zM15 493l180 -493l-40 -110l-19 -39q-10 -15 -27 -22l-44 -6h-20v-46h25l50 7l43 24l18 23l16 35l229 627h-57l-149 -432l-148 432h-57v0z" />
    <glyph glyph-name="thorn" unicode="&#xfe;" horiz-adv-x="553" 
d="M100 729v-965h52v299q33 -42 68 -56q36 -14 78 -13q40 0 71 12q31 11 50 31q37 38 51 94q13 56 13 116q0 59 -13 115q-14 56 -51 94q-19 20 -50 32l-71 11q-42 1 -78 -13q-35 -14 -68 -56v299h-52v0zM381 423q30 -30 40 -77t9 -99q1 -53 -9 -100t-40 -76q-30 -30 -90 -31
q-60 1 -90 31q-30 29 -40 76t-9 100q-1 52 9 99t40 77q30 29 90 30q60 -1 90 -30v0z" />
    <glyph glyph-name="ydieresis" unicode="&#xff;" horiz-adv-x="440" 
d="M84 614h60v79h-60v-79v0zM357 614v79h-60v-79h60v0zM220 61l-148 432h-57l180 -493l-40 -110l-19 -39q-10 -15 -27 -22l-44 -6h-20v-46h25l50 7l43 24l18 23l16 35l229 627h-57l-149 -432v0z" />
    <glyph glyph-name="OE" unicode="&#x152;" horiz-adv-x="1021" 
d="M510 572q12 -32 16 -81l3 -127l-3 -126q-4 -49 -16 -82q-12 -32 -38 -57q-28 -28 -63 -42t-75 -14q-39 0 -75 14q-35 14 -63 42q-26 25 -38 57q-12 33 -15 82q-4 49 -3 126q-1 77 3 127q3 49 15 81t38 58q28 27 63 41q36 15 75 15q40 0 75 -15q35 -14 63 -41
q26 -26 38 -58v0zM583 681h378v48h-432v-87q-38 47 -87 70q-48 23 -108 23q-53 0 -99 -19q-47 -20 -83 -56q-33 -32 -47 -69q-15 -38 -18 -91q-3 -54 -3 -136q0 -81 3 -134q3 -54 18 -92q14 -37 47 -70q36 -36 83 -55q46 -19 99 -19q57 0 107 23q50 24 88 70v-87h435v48
h-381v149l1 149h320v43h-320l-1 146v146v0z" />
    <glyph glyph-name="oe" unicode="&#x153;" horiz-adv-x="881" 
d="M372 411q30 -31 37 -76l7 -88q1 -45 -7 -89q-7 -45 -37 -76q-21 -21 -47 -32q-25 -10 -55 -10t-56 10q-26 11 -47 32q-29 31 -37 76q-8 44 -7 89q-1 44 7 88q8 45 37 76q21 21 47 32l56 10l55 -10q26 -11 47 -32v0zM82 353q-12 -53 -11 -106q-1 -54 11 -107
q12 -52 50 -92q27 -27 62 -41q34 -13 76 -13q58 0 103 27q46 28 71 80q25 -54 70 -81q46 -26 112 -26q60 0 101 19t77 56l-39 31q-30 -31 -62 -45q-31 -15 -74 -14q-79 0 -120 50q-41 49 -41 144h343v24q0 114 -52 177t-145 63q-60 0 -103 -27q-43 -28 -67 -80
q-25 52 -70 80q-45 27 -104 27q-42 0 -76 -13q-35 -14 -62 -41q-38 -40 -50 -92v0zM759 277h-291l4 39l5 27l9 27q16 40 50 61q34 22 78 22q43 0 77 -22q34 -21 51 -61l9 -26l5 -28l3 -39v0z" />
    <glyph glyph-name="Scaron" unicode="&#x160;" horiz-adv-x="601" 
d="M409 716q-48 19 -115 19q-106 -1 -166 -54q-59 -53 -60 -146q0 -43 14 -76q15 -34 43 -58q24 -21 56 -34q33 -13 74 -19l85 -13l48 -9l31 -12l27 -18q20 -18 30 -44t10 -59q-1 -72 -51 -111q-49 -39 -137 -39l-78 7q-34 8 -65 27t-64 52l-39 -39q49 -50 106 -73
q58 -24 137 -23q116 1 180 54q65 53 66 147q0 44 -17 81q-16 36 -47 61q-21 19 -50 30t-80 18l-78 12l-60 17l-49 28q-19 16 -29 40q-9 24 -9 55q1 71 45 111q44 39 124 40q64 -1 105 -19t72 -49l36 36q-46 41 -95 60v0zM322 798l126 151h-59l-95 -112l-95 112h-58l125 -151
h56v0z" />
    <glyph glyph-name="scaron" unicode="&#x161;" horiz-adv-x="506" 
d="M278 604l126 150h-59l-95 -111l-95 111h-58l125 -150h56v0zM325 444q35 -11 63 -32l35 35q-33 25 -77 39l-96 13q-82 0 -129 -37q-47 -38 -48 -103q0 -58 37 -90q37 -33 111 -39l82 -7q49 -5 72 -25q23 -19 23 -58q-1 -50 -38 -75q-38 -25 -111 -25q-52 0 -93 15
q-40 15 -69 45l-36 -36q38 -36 87 -53t113 -17q92 0 145 39q52 39 53 107q-1 48 -19 74q-19 27 -52 39q-32 12 -74 16l-79 7q-52 5 -77 25q-24 19 -24 58q0 46 32 71q32 24 94 24l75 -10v0z" />
    <glyph glyph-name="Ydieresis" unicode="&#x178;" horiz-adv-x="506" 
d="M436 729l-181 -369l-185 369h-60l215 -427v-302h56v302l215 427h-60v0zM330 888v-79h59v79h-59v0zM176 809v79h-59v-79h59v0z" />
    <glyph glyph-name="Zcaron" unicode="&#x17d;" horiz-adv-x="572" 
d="M508 729h-428v-49h369l-384 -622v-58h443v49h-387l387 631v49v0zM322 798l126 151h-59l-95 -112l-95 112h-58l125 -151h56v0z" />
    <glyph glyph-name="zcaron" unicode="&#x17e;" horiz-adv-x="463" 
d="M268 604l125 150h-58l-95 -111l-95 111h-59l126 -150h56v0zM72 447h281l-297 -398v-49h352v46h-298l298 398v49h-336v-46v0z" />
    <glyph glyph-name="florin" unicode="&#x192;" horiz-adv-x="403" 
d="M329 683h44v46h-45q-59 -1 -95 -37q-36 -35 -46 -92l-37 -211h-119v-39h112l-104 -586h52l104 586h119v39h-112l37 212q7 39 29 60q22 22 61 22v0z" />
    <glyph glyph-name="circumflex" unicode="&#x2c6;" horiz-adv-x="512" 
d="M351 604h59l-126 150h-55l-126 -150h58l95 111l95 -111v0z" />
    <glyph glyph-name="tilde" unicode="&#x2dc;" horiz-adv-x="512" 
d="M190 665l29 -6l28 -15l33 -17q17 -7 38 -8l21 3q12 2 29 13q17 10 41 33l-31 30l-36 -29q-13 -6 -24 -5l-29 6l-29 16l-33 18l-37 6l-22 -2q-12 -3 -29 -13l-40 -34l30 -29l36 28l25 5v0z" />
    <glyph glyph-name="endash" unicode="&#x2013;" 
d="M55 246h417v48h-417v-48v0z" />
    <glyph glyph-name="emdash" unicode="&#x2014;" horiz-adv-x="894" 
d="M84 246h726v48h-726v-48v0z" />
    <glyph glyph-name="quoteleft" unicode="&#x2018;" horiz-adv-x="266" 
d="M98 657h71v144l-71 -72v-72v0z" />
    <glyph glyph-name="quoteright" unicode="&#x2019;" horiz-adv-x="266" 
d="M98 585l71 72v72h-71v-144v0z" />
    <glyph glyph-name="quotesinglbase" unicode="&#x201a;" horiz-adv-x="266" 
d="M98 71v-143l71 72v71h-71v0z" />
    <glyph glyph-name="quotedblleft" unicode="&#x201c;" horiz-adv-x="426" 
d="M257 657h72v144l-72 -72v-72v0zM98 657h71v144l-71 -72v-72v0z" />
    <glyph glyph-name="quotedblright" unicode="&#x201d;" horiz-adv-x="426" 
d="M257 585l72 72v72h-72v-144v0zM98 585l71 72v72h-71v-144v0z" />
    <glyph glyph-name="quotedblbase" unicode="&#x201e;" horiz-adv-x="426" 
d="M257 71v-143l72 72v71h-72v0zM98 71v-143l71 72v71h-71v0z" />
    <glyph glyph-name="dagger" unicode="&#x2020;" horiz-adv-x="629" 
d="M339 729h-52v-215h-205v-46h205v-468h52v468h208v46h-208v215v0z" />
    <glyph glyph-name="daggerdbl" unicode="&#x2021;" horiz-adv-x="629" 
d="M339 729h-52v-215h-205v-46h205v-443h-205v-46h205v-215h52v215h208v46h-208v443h208v46h-208v215v0z" />
    <glyph glyph-name="bullet" unicode="&#x2022;" horiz-adv-x="559" 
d="M364 198q38 22 60 60q22 37 23 84q-1 46 -23 84t-60 60t-84 23q-47 -1 -84 -23q-38 -22 -60 -60q-23 -38 -23 -84q0 -47 23 -84q22 -38 60 -60q37 -23 84 -23q46 0 84 23v0z" />
    <glyph glyph-name="ellipsis" unicode="&#x2026;" horiz-adv-x="741" 
d="M97 76v-76h76v76h-76v0zM568 76v-76h76v76h-76v0zM333 76v-76h76v76h-76v0z" />
    <glyph glyph-name="perthousand" unicode="&#x2030;" horiz-adv-x="1196" 
d="M572 729l-340 -729h46l340 729h-46v0zM295 597v-106q0 -46 -21 -72q-21 -27 -68 -27q-48 0 -69 27q-21 26 -21 72v106q0 46 21 73t69 27t69 -27t20 -73v0zM71 599v-110q1 -61 37 -98q37 -37 98 -38q60 1 97 38q36 37 37 98v110q-1 62 -37 99q-37 37 -97 38
q-61 -1 -98 -38q-36 -37 -37 -99v0zM712 311q21 -27 20 -74v-105q1 -47 -20 -73q-21 -27 -69 -28q-48 1 -69 28q-21 26 -21 73v105q0 47 21 74q21 26 69 27q48 -1 69 -27v0zM643 377q-61 -1 -98 -38q-36 -37 -37 -100v-109q1 -63 37 -100q37 -37 98 -37q60 0 97 37
q36 37 37 100v109q-1 63 -37 100q-37 37 -97 38v0zM991 338q48 -1 69 -27q21 -27 21 -74v-106q0 -47 -21 -73t-69 -27q-48 1 -69 28q-21 26 -21 73v105q0 47 21 74q21 26 69 27v0zM894 339q-37 -37 -38 -100v-109q1 -63 38 -100q36 -37 97 -37t97 37q37 37 38 100v109
q-1 63 -38 100q-36 37 -97 38q-61 -1 -97 -38v0z" />
    <glyph glyph-name="guilsinglleft" unicode="&#x2039;" horiz-adv-x="328" 
d="M43 271l201 -201v68l-133 133l133 133v68l-201 -201v0z" />
    <glyph glyph-name="guilsinglright" unicode="&#x203a;" horiz-adv-x="328" 
d="M84 70l201 201l-201 201v-68l133 -133l-133 -133v-68v0z" />
    <glyph glyph-name="Euro" unicode="&#x20ac;" horiz-adv-x="692" 
d="M531 678q-65 56 -164 57q-53 0 -99 -19q-47 -20 -83 -56q-39 -38 -52 -85q-14 -46 -15 -114h-67v-39h66v-109h-66v-39h67q1 -48 7 -84t20 -65t40 -57q36 -36 83 -55q46 -19 99 -19q98 1 163 57t85 156h-55q-17 -77 -68 -120q-51 -44 -125 -44q-40 0 -75 14t-63 42
q-21 20 -32 43q-12 24 -17 55q-5 32 -7 77h250v39h-251v109h251v39h-250q2 63 14 101q12 39 42 68q28 27 63 41q35 15 75 15q74 -1 124 -44t67 -120h57q-20 99 -84 156v0z" />
    <glyph glyph-name="trademark" unicode="&#x2122;" horiz-adv-x="828" 
d="M726 729l-136 -277l-136 277h-45v-437h45v335l112 -223h48l112 223v-335h45v437h-45v0zM158 687v-395h45v395h125v42h-295v-42h125v0z" />
  </font>
</defs>
</svg>
