<?xml version="1.0" standalone="no"?>
<!DOCTYPE svg PUBLIC "-//W3C//DTD SVG 1.1//EN" "http://www.w3.org/Graphics/SVG/1.1/DTD/svg11.dtd" >
<svg xmlns="http://www.w3.org/2000/svg" xmlns:xlink="http://www.w3.org/1999/xlink" version="1.1">
<metadata>
Created by FontForge 20161013 at Thu Jun 24 09:30:22 2004
 By ,,,
</metadata>
<defs>
<font id="DIN-Medium" horiz-adv-x="546" >
  <font-face 
    font-family="DIN-Medium"
    font-weight="400"
    font-stretch="normal"
    units-per-em="1024"
    panose-1="2 11 6 0 5 3 2 2 2 4"
    ascent="819"
    descent="-205"
    x-height="519"
    cap-height="729"
    bbox="-38 -216.059 1166 1024"
    underline-thickness="0"
    underline-position="-216"
    unicode-range="U+0020-2122"
  />
<missing-glyph horiz-adv-x="512" 
 />
    <glyph glyph-name=".notdef" horiz-adv-x="512" 
 />
    <glyph glyph-name=".null" horiz-adv-x="0" 
 />
    <glyph glyph-name="nonmarkingreturn" horiz-adv-x="341" 
 />
    <glyph glyph-name="space" unicode=" " horiz-adv-x="246" 
 />
    <glyph glyph-name="exclam" unicode="!" horiz-adv-x="340" 
d="M130 111v-111h115v111h-115v0zM251 729h-127l23 -512h81l23 512v0z" />
    <glyph glyph-name="quotedbl" unicode="&#x22;" horiz-adv-x="455" 
d="M184 533v196h-104v-196h104v0zM375 533v196h-103v-196h103v0z" />
    <glyph glyph-name="numbersign" unicode="#" horiz-adv-x="688" 
d="M558 532l32 201h-108l-32 -201h-139l31 201h-109l-32 -201h-97v-96h83l-21 -127h-96v-96h81l-34 -213h110l32 213h141l-34 -213h108l34 213h96v96h-80l20 127h94v96h-80v0zM295 436h139l-19 -127h-140l20 127v0z" />
    <glyph glyph-name="dollar" unicode="$" horiz-adv-x="623" 
d="M456 711q-47 20 -108 23v91h-84v-92q-99 -11 -153 -67q-54 -57 -55 -145q0 -45 13 -79q14 -35 41 -60q23 -21 58 -37t79 -22l27 -3v-227q-49 2 -91 18q-41 15 -78 52l-74 -73q48 -49 105 -71q56 -23 128 -25v-111h84v114q67 6 117 33q49 27 77 72q27 45 28 106
q0 47 -15 85t-45 64q-22 21 -54 34l-82 20l-35 5v221l74 -16q34 -14 61 -39l70 70q-41 39 -88 59v0zM274 636v-212l-46 11q-21 8 -37 22q-15 13 -21 31q-7 17 -7 37q0 45 29 75q28 30 82 36v0zM388 303q23 -5 44 -23q14 -13 21 -32l7 -43q0 -48 -32 -76q-31 -28 -89 -34v217
l49 -9v0z" />
    <glyph glyph-name="percent" unicode="%" horiz-adv-x="862" 
d="M561 729l-344 -729h84l343 729h-83v0zM79 671q-19 -31 -19 -75v-104q0 -44 19 -75t51 -47q33 -17 73 -17t73 17q32 16 51 47t19 75v104q0 44 -19 75t-51 48q-33 17 -73 17t-73 -17q-32 -17 -51 -48v0zM154 647q16 19 49 19t49 -19q15 -20 15 -54v-98q0 -34 -15 -53
q-16 -19 -49 -19t-49 18q-15 19 -15 54v98q0 35 15 54v0zM709 288q15 -20 15 -55v-97q0 -35 -15 -54q-16 -19 -49 -20q-33 0 -49 19t-16 55v97q0 36 16 55t49 19t49 -19v0zM660 377q-41 0 -73 -17t-51 -48t-20 -75v-104q1 -44 20 -76q19 -31 51 -47q32 -17 73 -17
q40 0 72 17q33 16 52 47q19 32 19 76v104q0 44 -19 75t-52 48q-32 17 -72 17v0z" />
    <glyph glyph-name="ampersand" unicode="&#x26;" horiz-adv-x="748" 
d="M407 713q-38 21 -90 22q-55 -1 -95 -21q-40 -21 -62 -58q-21 -36 -22 -83q1 -34 13 -62q12 -29 29 -52l34 -43l-69 -51q-33 -29 -54 -66q-21 -38 -21 -88q0 -101 61 -158q60 -58 174 -59l95 14q39 13 65 31l42 32l60 -71h134l-122 145q36 43 54 99q17 56 19 125h-101
q0 -49 -10 -84q-9 -34 -29 -62l-153 183l21 15l22 15l10 7q35 24 56 55t22 74q-1 47 -22 84q-22 36 -61 57v0zM389 571q0 -25 -16 -43l-37 -33l-13 -9l-22 -14q-28 31 -42 55q-14 23 -14 45q0 31 19 51q18 20 53 21q32 -1 52 -21q20 -21 20 -52v0zM305 89q-58 1 -94 34
q-37 34 -38 90q1 49 29 80t70 58l173 -206q-36 -32 -70 -44q-33 -13 -70 -12v0z" />
    <glyph glyph-name="quotesingle" unicode="'" horiz-adv-x="263" 
d="M184 533v196h-104v-196h104v0z" />
    <glyph glyph-name="parenleft" unicode="(" horiz-adv-x="325" 
d="M149 778q-22 -23 -37 -50q-16 -29 -20 -58l-4 -61v-490l4 -60q4 -30 20 -58q15 -28 37 -51l46 -47l70 71l-32 32q-14 15 -25 36q-8 14 -11 35l-4 49v477l4 48q3 21 11 36l25 35l32 33l-70 70l-46 -47v0z" />
    <glyph glyph-name="parenright" unicode=")" horiz-adv-x="325" 
d="M233 670q-4 29 -20 58l-36 50l-46 47l-71 -71l31 -33l25 -35q15 -29 15 -83v-477q0 -54 -15 -83l-25 -36l-31 -32l71 -72l46 47l36 51q16 28 20 58l5 60v490l-5 61v0z" />
    <glyph glyph-name="asterisk" unicode="*" horiz-adv-x="497" 
d="M181 539l-118 -62l38 -67l113 71l-4 -134h77l-4 134l113 -71l38 67l-118 62l118 64l-38 66l-113 -70l4 133h-77l4 -133l-113 70l-38 -66l118 -64v0z" />
    <glyph glyph-name="plus" unicode="+" 
d="M224 498v-170h-172v-98h172v-172h98v172h172v98h-172v170h-98v0z" />
    <glyph glyph-name="comma" unicode="," horiz-adv-x="279" 
d="M80 119v-278l119 98v180h-119v0z" />
    <glyph glyph-name="hyphen" unicode="-" horiz-adv-x="436" 
d="M368 235v98h-299v-98h299v0z" />
    <glyph glyph-name="period" unicode="." horiz-adv-x="285" 
d="M80 125v-125h125v125h-125v0z" />
    <glyph glyph-name="slash" unicode="/" horiz-adv-x="389" 
d="M292 805l-292 -881h101l291 881h-100v0z" />
    <glyph glyph-name="zero" unicode="0" 
d="M455 638q-29 47 -76 72q-48 24 -106 25q-59 -1 -106 -25q-47 -25 -76 -72q-28 -47 -28 -112v-324q0 -65 28 -111q29 -47 76 -72t106 -25q58 0 106 25q47 25 76 72q28 46 29 111v324q-1 65 -29 112v0zM379 523v-317q0 -54 -28 -86t-78 -33q-51 1 -78 33t-28 86v317
q1 54 28 86t78 33q50 -1 78 -33t28 -86v0z" />
    <glyph glyph-name="one" unicode="1" 
d="M259 615v-615h105v729h-105l-142 -123v-116l142 125v0z" />
    <glyph glyph-name="two" unicode="2" 
d="M462 639q-27 46 -74 71q-47 24 -110 25q-63 -1 -110 -26q-48 -25 -75 -72q-27 -46 -27 -108h104q1 41 16 66t39 36q25 11 53 11q51 -1 78 -31q28 -30 28 -80q0 -27 -9 -50q-9 -22 -30 -47l-280 -341v-93h424v93h-297l228 279l38 52q15 23 23 49q8 25 8 57q-1 63 -27 109
v0z" />
    <glyph glyph-name="three" unicode="3" 
d="M451 639q-27 45 -75 71q-47 25 -110 26q-59 -1 -106 -24q-47 -24 -75 -68q-29 -45 -33 -107h105q4 49 33 77q28 27 76 28q46 0 76 -29q31 -29 32 -84q0 -51 -27 -80q-27 -30 -84 -31h-17v-91h17q62 0 92 -32t30 -87q-1 -58 -34 -90q-33 -31 -85 -31q-30 0 -56 11
q-26 12 -43 36q-17 25 -19 64h-105q3 -71 34 -117q31 -45 81 -67q49 -21 108 -21q62 0 113 24q50 23 80 71q30 47 31 116v1q-1 67 -28 109t-75 62q43 21 67 59q24 39 24 97q0 61 -27 107v0z" />
    <glyph glyph-name="four" unicode="4" 
d="M331 109v-109h101v109h78v98h-78v170h-101v-170h-181l256 522h-113l-257 -522v-98h295v0z" />
    <glyph glyph-name="five" unicode="5" 
d="M474 729h-393v-398h95q9 27 34 46t70 19q41 0 65 -20q23 -20 32 -54q10 -34 9 -78q1 -38 -6 -71q-6 -34 -29 -58l-33 -21l-42 -7q-49 0 -75 26t-32 75h-104q2 -39 14 -74q13 -36 41 -65q24 -24 64 -40q39 -16 92 -16t91 16t62 41q39 40 51 87q12 48 11 107q1 52 -11 102
q-13 50 -53 92q-22 23 -55 35l-76 12l-71 -11l-50 -31v193h299v93v0z" />
    <glyph glyph-name="six" unicode="6" 
d="M278 729l-166 -338q-24 -47 -39 -91t-15 -88q0 -68 28 -117q27 -49 76 -75q48 -26 112 -26q63 0 111 28q49 27 76 77q27 49 28 117q-1 64 -26 111q-26 48 -69 73q-43 26 -97 27l-33 -3l-31 -9l156 314h-111v0zM355 304q29 -35 29 -90q-1 -59 -31 -93t-80 -34t-80 34
t-31 93q1 59 31 92t80 34q52 -1 82 -36v0z" />
    <glyph glyph-name="seven" unicode="7" 
d="M387 636l-244 -636h112l244 636v93h-434v-208h100v115h222v0z" />
    <glyph glyph-name="eight" unicode="8" 
d="M457 640q-28 45 -76 70q-48 24 -108 25q-60 -1 -108 -25q-48 -25 -76 -70t-28 -107q1 -57 26 -96t62 -60q-26 -15 -49 -39q-23 -23 -37 -56t-15 -76q1 -67 31 -114q29 -47 80 -73q50 -25 113 -25q64 0 114 25q51 26 81 73t31 114q-1 43 -15 76t-37 56l-49 39q37 21 62 60
q26 39 27 96q-1 62 -29 107v0zM381 530q-1 -49 -30 -79q-30 -30 -78 -31q-49 1 -78 31t-30 79q1 49 30 80t78 32q48 -1 78 -32q29 -31 30 -80v0zM376 269q16 -27 16 -61q-1 -52 -34 -86q-34 -34 -86 -35q-51 1 -85 35q-33 34 -34 86q0 34 16 61q15 28 42 44t61 17
q35 -1 62 -17t42 -44v0z" />
    <glyph glyph-name="nine" unicode="9" 
d="M461 633q-28 49 -76 75q-49 26 -112 27q-64 -1 -112 -28t-75 -77q-28 -50 -28 -117q0 -65 26 -112q25 -47 68 -73t96 -26l34 2l32 9l-157 -313h112l165 338q25 47 39 91q15 44 16 88q-1 68 -28 116v0zM384 515q-1 -60 -31 -93t-80 -33q-53 1 -82 36q-28 35 -29 90
q1 59 31 92q30 34 80 35q50 -1 80 -35q30 -33 31 -92v0z" />
    <glyph glyph-name="colon" unicode=":" horiz-adv-x="310" 
d="M107 125v-125h124v125h-124v0zM231 292v125h-124v-125h124v0z" />
    <glyph glyph-name="semicolon" unicode=";" horiz-adv-x="310" 
d="M231 292v125h-124v-125h124v0zM109 119v-278l119 98v180h-119v0z" />
    <glyph glyph-name="less" unicode="&#x3c;" 
d="M462 56v111l-251 116l251 118v111l-378 -181v-94l378 -181v0z" />
    <glyph glyph-name="equal" unicode="=" 
d="M494 136v97h-442v-97h442v0zM494 334v98h-442v-98h442v0z" />
    <glyph glyph-name="greater" unicode="&#x3e;" 
d="M462 237v94l-378 181v-111l251 -118l-251 -116v-111l378 181v0z" />
    <glyph glyph-name="question" unicode="?" horiz-adv-x="523" 
d="M453 644q-27 43 -73 67q-47 23 -103 24q-59 -1 -105 -26q-46 -24 -72 -68q-27 -44 -27 -103h104q0 28 12 52q12 23 34 37t54 15q45 -1 72 -30q28 -29 28 -73q0 -21 -9 -40l-23 -37l-79 -108q-19 -24 -27 -47q-8 -24 -8 -54v-36h104v30l5 28l14 28l79 110l35 59
q13 31 14 67q-1 61 -29 105v0zM225 111v-111h115v111h-115v0z" />
    <glyph glyph-name="at" unicode="@" horiz-adv-x="754" 
d="M580 554q8 -27 8 -63v-62q-24 28 -56 43q-31 14 -73 14q-43 0 -78 -16q-34 -15 -57 -42q-27 -32 -36 -77t-8 -112q-1 -68 8 -112q9 -45 38 -77q24 -27 58 -42t76 -15q44 0 75 14q31 15 55 44v-51l98 -2v494q0 58 -14 102q-15 45 -47 77q-33 32 -77 47l-98 14h-150
l-100 -14q-44 -15 -76 -47t-46 -77q-14 -44 -14 -102v-325q0 -45 7 -76q8 -32 26 -56t48 -48l71 72q-19 16 -31 31q-11 15 -15 34q-5 19 -5 48v319q0 37 8 63q8 25 30 48q21 21 48 30l60 8h129l60 -9q27 -9 48 -29q21 -22 30 -48v0zM380 239q0 45 8 81t31 57q22 21 64 21
q43 0 66 -21q22 -21 31 -57q8 -36 8 -81q0 -44 -8 -80q-9 -35 -31 -56q-23 -21 -66 -21q-42 0 -64 21q-23 21 -31 56q-8 36 -8 80v0z" />
    <glyph glyph-name="A" unicode="A" horiz-adv-x="640" 
d="M433 240h-224l114 324l110 -324v0zM464 146l50 -146h118l-267 729h-89l-268 -729h118l50 146h288v0z" />
    <glyph glyph-name="B" unicode="B" horiz-adv-x="679" 
d="M489 525q-1 -51 -33 -77q-32 -27 -86 -27h-164v208h164q54 0 86 -27q32 -26 33 -77v0zM540 675q-58 53 -161 54h-283v-729h295q65 0 114 23q49 24 77 70q28 45 29 113q-1 46 -16 79q-16 34 -40 56l-54 34q25 9 47 31q23 21 37 52q14 32 14 71q-1 93 -59 146v0zM380 321
q58 -1 89 -31t31 -79q0 -50 -31 -80q-31 -31 -89 -32h-174v222h174v0z" />
    <glyph glyph-name="C" unicode="C" horiz-adv-x="643" 
d="M452 709q-54 26 -121 26q-57 0 -106 -20q-48 -20 -86 -58q-35 -36 -50 -77t-18 -94l-2 -122l2 -122q3 -53 18 -94t50 -76q38 -38 86 -58q49 -20 106 -20q66 0 120 26q55 25 91 75t49 123h-112q-13 -56 -50 -90t-98 -35q-33 0 -61 12q-27 11 -47 32q-17 19 -27 44t-13 68
l-4 115l4 116q3 43 13 68t27 43q20 21 47 33q28 11 61 11q60 -1 97 -34q37 -34 50 -90h113q-13 72 -49 122t-90 76v0z" />
    <glyph glyph-name="D" unicode="D" horiz-adv-x="682" 
d="M498 497q6 -53 5 -128q1 -75 -5 -132t-34 -89q-23 -25 -54 -37q-30 -12 -70 -12h-134v530h134q40 0 70 -12q31 -12 54 -37q28 -31 34 -83v0zM540 660q-35 35 -83 52t-105 17h-256v-729h256q57 0 105 17t83 51q39 40 54 90q16 50 18 104l2 107l-2 105q-2 52 -18 99
q-15 47 -54 87v0z" />
    <glyph glyph-name="E" unicode="E" horiz-adv-x="617" 
d="M562 729h-466v-729h466v99h-356v219h303v99h-303v212h356v100v0z" />
    <glyph glyph-name="F" unicode="F" horiz-adv-x="599" 
d="M562 629v100h-466v-729h110v308h303v99h-303v222h356v0z" />
    <glyph glyph-name="G" unicode="G" horiz-adv-x="665" 
d="M464 704q-55 30 -133 31q-58 0 -106 -20t-86 -58q-35 -36 -50 -77t-18 -94l-2 -122l2 -122q3 -53 18 -94t50 -76q38 -38 87 -58q48 -20 105 -20q58 0 109 19q50 20 92 64q35 37 51 86q15 50 14 119v112h-266v-94h156v-41q0 -35 -9 -64q-8 -28 -28 -51q-22 -24 -52 -38
q-30 -13 -67 -13q-32 0 -60 12q-28 11 -48 32q-17 19 -27 44t-13 68l-4 115l4 115q3 43 13 68t27 43q20 21 48 33t60 12q62 0 101 -33t53 -94h111q-10 64 -43 115t-89 81v0z" />
    <glyph glyph-name="H" unicode="H" horiz-adv-x="708" 
d="M502 318v-318h111v729h-111v-311h-296v311h-110v-729h110v318h296v0z" />
    <glyph glyph-name="I" unicode="I" horiz-adv-x="301" 
d="M96 729v-729h110v729h-110v0z" />
    <glyph glyph-name="J" unicode="J" horiz-adv-x="518" 
d="M400 102q32 52 33 128v499h-110v-491q-1 -71 -36 -108q-34 -37 -96 -37q-39 1 -62 13l-42 31l-73 -73q37 -37 79 -54q42 -16 98 -16q68 0 122 27q55 28 87 81v0z" />
    <glyph glyph-name="K" unicode="K" horiz-adv-x="674" 
d="M329 359l205 -359h130l-261 443l236 286h-135l-298 -367v367h-110v-729h110v212l123 147v0z" />
    <glyph glyph-name="L" unicode="L" horiz-adv-x="588" 
d="M96 729v-729h461v99h-351v630h-110v0z" />
    <glyph glyph-name="M" unicode="M" horiz-adv-x="833" 
d="M628 487v-487h111v729h-111l-209 -454l-213 454h-110v-729h110v487l172 -355h82l168 355v0z" />
    <glyph glyph-name="N" unicode="N" horiz-adv-x="739" 
d="M96 729v-729h110v513l337 -513h101v729h-110v-512l-337 512h-101v0z" />
    <glyph glyph-name="O" unicode="O" horiz-adv-x="662" 
d="M467 547l13 -68l3 -115l-3 -115l-13 -67q-10 -25 -27 -44q-20 -21 -48 -33t-61 -12t-61 12t-48 33q-17 19 -27 44q-9 24 -13 67q-3 43 -3 115t3 115q4 43 13 68q10 25 27 43q20 21 48 33t61 12t61 -12l48 -33l27 -43v0zM524 657q-38 38 -86 58q-49 20 -107 20t-106 -20
t-86 -58q-35 -36 -50 -77t-18 -94l-2 -122l2 -122q3 -53 18 -94t50 -76q38 -38 86 -58t106 -20t107 20q48 20 86 58q35 35 50 76q14 41 17 94l2 122l-2 122q-3 53 -17 94q-15 41 -50 77v0z" />
    <glyph glyph-name="P" unicode="P" horiz-adv-x="644" 
d="M495 507q-1 -57 -36 -89q-35 -31 -93 -31h-160v242h160q58 0 93 -32t36 -90v0zM576 621q-28 50 -80 79q-53 28 -124 29h-276v-729h110v286h166q71 1 124 29q52 29 80 79q29 49 29 113q0 65 -29 114v0z" />
    <glyph glyph-name="Q" unicode="Q" horiz-adv-x="662" 
d="M467 547l13 -68l3 -115l-4 -111q-4 -42 -18 -69l-71 71l-61 -62l77 -76q-16 -12 -35 -18l-40 -6q-33 0 -61 12t-48 33q-17 19 -27 44q-9 24 -13 67q-3 43 -3 115t3 115q4 43 13 68q10 25 27 43q20 21 48 33t61 12t61 -12l48 -33l27 -43v0zM524 657q-38 38 -86 58
q-49 20 -107 20t-106 -20t-86 -58q-35 -36 -50 -77t-18 -94l-2 -122l2 -122q3 -53 18 -94t50 -76q38 -38 86 -58t106 -20l82 12q39 12 71 34l72 -73l62 62l-72 70q24 33 34 71q10 37 12 85l1 109l-2 122q-3 53 -17 94q-15 41 -50 77v0z" />
    <glyph glyph-name="R" unicode="R" horiz-adv-x="671" 
d="M494 515q-1 -54 -34 -84q-34 -29 -90 -30h-164v228h164q56 0 90 -30q33 -30 34 -84v0zM576 626q-27 48 -78 75q-50 27 -120 28h-282v-729h110v307h138l154 -307h129l-168 323q41 11 74 36q33 26 52 65q19 40 19 92q0 62 -28 110v0z" />
    <glyph glyph-name="S" unicode="S" horiz-adv-x="604" 
d="M425 715q-54 20 -126 20q-76 -1 -130 -28q-55 -26 -84 -74t-29 -112q0 -45 13 -79q13 -35 40 -60q24 -23 59 -38q35 -14 79 -21l86 -12l49 -11q18 -7 31 -20q15 -13 22 -32t7 -43q-1 -54 -40 -83q-39 -28 -111 -29q-55 0 -101 15t-85 55l-74 -73q52 -52 114 -75
q63 -22 144 -21q77 0 136 26q59 25 92 73q34 47 34 115q0 47 -14 85q-15 38 -45 64q-22 21 -54 34l-82 20l-83 13q-26 3 -47 12t-35 21q-15 13 -21 31q-7 17 -7 37q0 49 35 81q34 31 98 32l86 -12q39 -12 73 -44l71 70q-46 43 -101 63v0z" />
    <glyph glyph-name="T" unicode="T" horiz-adv-x="573" 
d="M543 629v100h-512v-100h201v-629h110v629h201v0z" />
    <glyph glyph-name="U" unicode="U" horiz-adv-x="691" 
d="M497 729v-478q-1 -74 -42 -115q-40 -42 -110 -43q-69 1 -109 43q-40 41 -41 115v478h-111v-483q1 -76 35 -132q34 -57 93 -88q58 -32 133 -32t134 32q59 31 93 88q34 56 35 132v483h-110v0z" />
    <glyph glyph-name="V" unicode="V" horiz-adv-x="578" 
d="M5 729l240 -729h86l242 729h-117l-168 -531l-168 531h-115v0z" />
    <glyph glyph-name="W" unicode="W" horiz-adv-x="892" 
d="M12 729l190 -729h96l148 511l148 -511h96l191 729h-117l-127 -521l-146 521h-89l-147 -521l-127 521h-116v0z" />
    <glyph glyph-name="X" unicode="X" horiz-adv-x="592" 
d="M236 373l-226 -373h127l158 279l159 -279h128l-226 373l211 356h-127l-145 -261l-143 261h-127l211 -356v0z" />
    <glyph glyph-name="Y" unicode="Y" horiz-adv-x="557" 
d="M552 729h-121l-152 -321l-152 321h-121l218 -429v-300h110v300l218 429v0z" />
    <glyph glyph-name="Z" unicode="Z" horiz-adv-x="565" 
d="M49 95v-95h467v99h-339l339 540v90h-452v-100h322l-337 -534v0z" />
    <glyph glyph-name="bracketleft" unicode="[" horiz-adv-x="355" 
d="M88 805v-881h223v93h-118v695h118v93h-223v0z" />
    <glyph glyph-name="backslash" unicode="\" horiz-adv-x="389" 
d="M0 796l289 -872h100l-288 872h-101v0z" />
    <glyph glyph-name="bracketright" unicode="]" horiz-adv-x="355" 
d="M44 16v-92h223v881h-223v-92h121v-697h-121v0z" />
    <glyph glyph-name="asciicircum" unicode="^" horiz-adv-x="585" 
d="M515 410l-175 326h-95l-176 -326h108l115 212l115 -212h108v0z" />
    <glyph glyph-name="underscore" unicode="_" horiz-adv-x="585" 
d="M585 -176v71h-585v-71h585v0z" />
    <glyph glyph-name="grave" unicode="`" horiz-adv-x="512" 
d="M309 613l-76 166h-116l114 -166h78v0z" />
    <glyph glyph-name="a" unicode="a" horiz-adv-x="543" 
d="M144 509q-43 -17 -79 -59l68 -64q21 27 46 39q26 11 68 11q60 0 87 -24t27 -73v-37h-137q-90 -1 -135 -42t-45 -108q0 -33 11 -62q10 -28 30 -49q24 -24 58 -36l82 -11q47 0 79 12q31 13 59 41v-47h102v347q0 88 -53 133q-54 45 -161 45q-63 0 -107 -16v0zM169 210
q24 19 70 19h122v-42l-6 -46q-5 -19 -17 -31q-20 -19 -44 -24l-53 -5q-49 0 -72 19q-24 19 -23 54q0 36 23 56v0z" />
    <glyph glyph-name="b" unicode="b" horiz-adv-x="566" 
d="M324 525l-75 -13q-33 -12 -61 -45v262h-105v-729h103v55q29 -35 62 -48q33 -14 75 -13l72 12q33 12 55 34q26 26 38 62q13 37 17 77l3 81l-3 80q-4 40 -17 76q-12 36 -38 63l-54 33l-72 13v0zM404 260q0 -47 -7 -86q-8 -39 -31 -63t-70 -24q-46 0 -70 24q-23 24 -31 63
t-7 86q-1 46 7 85t31 63q24 23 70 24q47 -1 70 -24q23 -24 31 -63q7 -39 7 -85v0z" />
    <glyph glyph-name="c" unicode="c" horiz-adv-x="497" 
d="M176 499q-52 -26 -85 -84t-34 -155q1 -97 34 -156q33 -58 85 -84q53 -27 112 -26q53 -1 94 17t77 56l-71 69q-24 -27 -47 -38q-23 -12 -53 -11q-30 0 -54 12q-25 11 -42 34q-17 21 -24 51q-7 31 -7 76t7 75t24 51q17 22 42 34q24 12 54 12l53 -11l47 -38l71 69
q-36 39 -77 56t-94 17q-59 0 -112 -26v0z" />
    <glyph glyph-name="d" unicode="d" horiz-adv-x="566" 
d="M243 525l-72 -13q-32 -12 -54 -33q-26 -27 -38 -63q-13 -36 -17 -76l-3 -80q-1 -40 3 -81q4 -40 17 -77q12 -36 38 -62q22 -22 55 -34t72 -12q42 -1 75 13q33 13 62 48v-55h103v729h-105v-262q-28 33 -61 45l-75 13v0zM379 260q1 -47 -7 -86q-7 -39 -30 -63
q-24 -24 -70 -24q-47 0 -70 24q-24 24 -32 63q-7 39 -7 86q0 46 7 85q8 39 32 63q23 23 70 24q46 -1 70 -24q23 -24 30 -63q8 -39 7 -85v0z" />
    <glyph glyph-name="e" unicode="e" horiz-adv-x="552" 
d="M394 302h-234l3 38l11 32q12 30 39 48q27 17 64 18q37 -1 63 -18q27 -18 39 -48l11 -32l4 -38v0zM57 260q0 -98 31 -157t84 -84q53 -26 118 -25l79 9q34 9 62 27t54 45l-67 62q-26 -28 -55 -40q-28 -13 -71 -13q-64 0 -98 39q-33 39 -34 106h337v46q0 74 -26 130t-75 88
q-49 31 -119 32q-67 -1 -116 -32q-50 -31 -77 -90t-27 -143v0z" />
    <glyph glyph-name="f" unicode="f" horiz-adv-x="336" 
d="M40 510v-80h60v-430h104v430h104v80h-104v74q0 29 14 45t44 16h46v89h-66q-48 -1 -80 -21t-47 -53t-15 -70v-80h-60v0z" />
    <glyph glyph-name="g" unicode="g" horiz-adv-x="562" 
d="M242 525q-39 0 -71 -12t-54 -33q-36 -38 -48 -91q-11 -54 -10 -120q-1 -66 10 -120q12 -53 48 -91q22 -21 53 -33q32 -13 71 -13q40 0 73 13t61 47v-67q0 -35 -12 -65t-39 -48q-27 -19 -71 -19q-37 0 -63 11q-26 12 -49 35l-67 -67q40 -37 83 -53q42 -16 100 -15
q70 0 120 28q49 28 76 78q26 49 27 113v516h-102v-56q-29 35 -62 49l-74 13v0zM375 269q1 -42 -6 -79t-30 -60t-69 -24q-47 1 -70 24t-30 60t-7 79t7 79t30 60t70 24q46 -1 69 -24t30 -60t6 -79v0z" />
    <glyph glyph-name="h" unicode="h" horiz-adv-x="580" 
d="M249 510q-34 -14 -61 -43v262h-105v-729h105v318q1 58 31 86q29 28 74 28t74 -27q30 -28 31 -87v-318h104v335q0 56 -21 99t-61 66q-40 24 -98 25q-39 0 -73 -15v0z" />
    <glyph glyph-name="i" unicode="i" horiz-adv-x="270" 
d="M191 621v111h-111v-111h111v0zM83 519v-519h105v519h-105v0z" />
    <glyph glyph-name="j" unicode="j" horiz-adv-x="270" 
d="M191 621v111h-111v-111h111v0zM83 519v-582q1 -30 -12 -45t-44 -15h-46v-89h64q50 0 81 20q32 19 47 52q15 32 15 71v588h-105v0z" />
    <glyph glyph-name="k" unicode="k" horiz-adv-x="561" 
d="M265 239l145 -239h129l-203 315l180 204h-127l-201 -240v450h-105v-729h105v152l77 87v0z" />
    <glyph glyph-name="l" unicode="l" horiz-adv-x="318" 
d="M142 20q31 -20 81 -20h64v89h-46q-31 0 -44 15t-12 45v580h-105v-586q0 -39 15 -71q15 -33 47 -52v0z" />
    <glyph glyph-name="m" unicode="m" horiz-adv-x="898" 
d="M634 525q-51 0 -91 -19t-72 -57q-24 38 -61 57q-38 19 -86 19q-40 0 -76 -15t-62 -43v52h-103v-519h105v316q1 60 32 88q30 28 75 28t74 -28q30 -28 31 -88v-316h104v321q1 38 16 62q15 25 39 37t53 12q45 0 74 -28t30 -88v-316h105v331q0 44 -13 81t-43 66
q-23 22 -57 34q-33 13 -74 13v0z" />
    <glyph glyph-name="n" unicode="n" horiz-adv-x="582" 
d="M324 525q-40 0 -75 -15q-36 -14 -63 -43v52h-103v-519h105v316q1 60 32 88q30 28 75 28t74 -28q30 -28 31 -88v-316h104v331q1 44 -11 81t-41 66q-23 22 -56 34l-72 13v0z" />
    <glyph glyph-name="o" unicode="o" horiz-adv-x="550" 
d="M275 525q-53 -1 -91 -18q-39 -17 -64 -44q-36 -38 -49 -88t-12 -115q-1 -66 12 -116q13 -51 49 -89q25 -27 64 -44q38 -17 91 -17t91 17q39 17 64 44q36 38 49 89q13 50 13 116q0 65 -13 115t-49 88q-25 27 -64 44q-38 17 -91 18v0zM387 260q1 -43 -6 -81q-6 -37 -30 -62
q-14 -14 -34 -22q-19 -8 -42 -8l-42 8q-19 8 -34 22q-23 25 -30 62q-7 38 -6 81q-1 43 6 80q7 38 30 62q15 15 34 22l42 8q23 0 42 -8q20 -7 34 -22q24 -24 30 -62q7 -37 6 -80v0z" />
    <glyph glyph-name="p" unicode="p" horiz-adv-x="566" 
d="M323 525q-42 0 -75 -13q-33 -14 -62 -49v56h-103v-729h105v263q28 -33 61 -46q34 -14 75 -13q39 0 72 12q32 12 54 34q26 26 38 62q13 37 17 77l3 81l-3 80q-4 40 -17 76q-12 36 -38 63l-55 33l-72 13v0zM404 260q0 -47 -7 -86q-8 -39 -31 -63t-70 -24q-46 0 -70 24
q-23 24 -31 63t-7 86q-1 46 7 85t31 63q24 23 70 24q47 -1 70 -24q23 -24 31 -63q7 -39 7 -85v0z" />
    <glyph glyph-name="q" unicode="q" horiz-adv-x="566" 
d="M244 525q-39 0 -72 -13q-33 -12 -55 -33q-26 -27 -38 -63q-13 -36 -17 -76l-3 -80q-1 -40 3 -81q4 -40 17 -77q12 -36 38 -62q22 -22 54 -34q33 -12 72 -12q41 -1 75 13q33 13 61 46v-263h105v729h-103v-56q-29 35 -62 49l-75 13v0zM379 260q1 -47 -7 -86q-7 -39 -30 -63
q-24 -24 -70 -24q-47 0 -70 24q-24 24 -32 63q-7 39 -7 86q0 46 7 85q8 39 32 63q23 23 70 24q46 -1 70 -24q23 -24 30 -63q8 -39 7 -85v0z" />
    <glyph glyph-name="r" unicode="r" horiz-adv-x="450" 
d="M324 525q-45 -1 -81 -18q-37 -17 -57 -45v57h-103v-519h105v315q1 54 30 85q30 31 73 32l44 -9l34 -26l79 79q-27 26 -57 38l-67 11v0z" />
    <glyph glyph-name="s" unicode="s" horiz-adv-x="511" 
d="M155 506q-44 -18 -70 -54q-26 -35 -26 -86q0 -68 40 -102q40 -35 113 -41l83 -7q37 -3 54 -19q16 -16 16 -42q-1 -37 -33 -55q-32 -17 -81 -17l-78 11q-39 11 -71 43l-69 -69q46 -44 100 -60l118 -14q63 0 111 18q49 19 77 56q28 36 28 90v1q0 68 -41 104q-40 36 -113 42
l-82 7q-41 4 -57 20t-15 39q0 30 24 48q23 18 70 19l70 -9q33 -9 58 -29l66 66q-37 32 -85 45l-108 14q-55 0 -99 -19v0z" />
    <glyph glyph-name="t" unicode="t" horiz-adv-x="350" 
d="M36 510v-80h59v-286q0 -38 16 -71q15 -32 46 -52q32 -21 81 -21h62v89h-43q-29 0 -43 16t-14 44v281h100v80h-100v157h-105v-157h-59v0z" />
    <glyph glyph-name="u" unicode="u" horiz-adv-x="582" 
d="M78 519v-332q0 -44 11 -80q12 -37 41 -66q24 -23 56 -35t72 -12t75 14q36 15 63 44v-52h103v519h-105v-317q-1 -59 -32 -87q-30 -29 -75 -28q-45 -1 -74 27t-30 88v317h-105v0z" />
    <glyph glyph-name="v" unicode="v" horiz-adv-x="482" 
d="M8 519l191 -519h85l190 519h-110l-122 -366l-123 366h-111v0z" />
    <glyph glyph-name="w" unicode="w" horiz-adv-x="761" 
d="M8 519l161 -519h90l121 362l122 -362h89l162 519h-112l-100 -366l-120 366h-81l-121 -366l-100 366h-111v0z" />
    <glyph glyph-name="x" unicode="x" horiz-adv-x="515" 
d="M201 265l-178 -265h126l109 177l109 -177h126l-177 265l170 254h-126l-102 -169l-102 169h-126l171 -254v0z" />
    <glyph glyph-name="y" unicode="y" horiz-adv-x="479" 
d="M190 24l-29 -81q-11 -31 -27 -43t-48 -12h-26v-94h42l57 8q27 9 49 30l21 27l17 37l229 623h-111l-121 -366l-124 366h-111l182 -495v0z" />
    <glyph glyph-name="z" unicode="z" horiz-adv-x="480" 
d="M44 83v-83h387v93h-260l260 343v83h-372v-93h243l-258 -343v0z" />
    <glyph glyph-name="braceleft" unicode="{" horiz-adv-x="417" 
d="M298 805l-65 -9q-27 -8 -44 -26q-20 -20 -29 -45q-8 -26 -8 -62v-171q0 -43 -19 -62l-20 -14l-29 -5h-38v-93h38l29 -5l20 -14q19 -19 19 -62v-171q0 -36 8 -62q9 -25 29 -45q17 -18 44 -26l65 -9h73v93h-40l-38 3q-14 3 -22 12q-8 8 -11 23l-4 42v165q-1 49 -21 71
q-21 22 -46 31q25 10 46 32q20 22 21 71v165l4 42q3 15 12 23q7 9 21 12l38 3h40v93h-73v0z" />
    <glyph glyph-name="bar" unicode="|" horiz-adv-x="346" 
d="M121 805v-881h105v881h-105v0z" />
    <glyph glyph-name="braceright" unicode="}" horiz-adv-x="417" 
d="M119 805h-73v-93h40l38 -3q14 -3 22 -12l11 -23l4 -42v-165q1 -49 22 -71t46 -32q-25 -9 -46 -31t-22 -71v-165l-4 -42q-3 -15 -12 -23q-7 -9 -21 -12l-38 -3h-40v-93h73l65 9q27 8 44 26q20 20 29 45q8 26 8 62v171q0 43 19 62q8 9 21 14l29 5h37v93h-37l-29 5l-21 14
q-19 19 -19 62v171q0 36 -8 62q-9 25 -29 45q-17 18 -44 26l-65 9v0z" />
    <glyph glyph-name="asciitilde" unicode="~" horiz-adv-x="588" 
d="M251 356l-56 9l-50 -7l-47 -25l-54 -48l66 -65q28 28 47 37l40 8l40 -7l41 -18l58 -24l56 -9l50 7q24 8 48 25l54 48l-67 65l-47 -37q-19 -9 -40 -8l-41 7l-41 18l-57 24v0z" />
    <glyph glyph-name="uni007F" horiz-adv-x="524" 
d="M347 198q37 22 60 59q22 38 22 85q0 46 -22 84q-23 38 -60 60q-38 22 -85 23q-46 -1 -84 -23q-37 -22 -60 -60q-22 -38 -23 -84q1 -47 23 -85q23 -37 60 -59q38 -23 84 -23q47 0 85 23v0z" />
    <glyph glyph-name="uni0081" horiz-adv-x="524" 
d="M347 198q37 22 60 59q22 38 22 85q0 46 -22 84q-23 38 -60 60q-38 22 -85 23q-46 -1 -84 -23q-37 -22 -60 -60q-22 -38 -23 -84q1 -47 23 -85q23 -37 60 -59q38 -23 84 -23q47 0 85 23v0z" />
    <glyph glyph-name="uni008D" horiz-adv-x="524" 
d="M347 198q37 22 60 59q22 38 22 85q0 46 -22 84q-23 38 -60 60q-38 22 -85 23q-46 -1 -84 -23q-37 -22 -60 -60q-22 -38 -23 -84q1 -47 23 -85q23 -37 60 -59q38 -23 84 -23q47 0 85 23v0z" />
    <glyph glyph-name="uni008F" horiz-adv-x="524" 
d="M347 198q37 22 60 59q22 38 22 85q0 46 -22 84q-23 38 -60 60q-38 22 -85 23q-46 -1 -84 -23q-37 -22 -60 -60q-22 -38 -23 -84q1 -47 23 -85q23 -37 60 -59q38 -23 84 -23q47 0 85 23v0z" />
    <glyph glyph-name="uni0090" horiz-adv-x="524" 
d="M347 198q37 22 60 59q22 38 22 85q0 46 -22 84q-23 38 -60 60q-38 22 -85 23q-46 -1 -84 -23q-37 -22 -60 -60q-22 -38 -23 -84q1 -47 23 -85q23 -37 60 -59q38 -23 84 -23q47 0 85 23v0z" />
    <glyph glyph-name="uni009D" horiz-adv-x="524" 
d="M347 198q37 22 60 59q22 38 22 85q0 46 -22 84q-23 38 -60 60q-38 22 -85 23q-46 -1 -84 -23q-37 -22 -60 -60q-22 -38 -23 -84q1 -47 23 -85q23 -37 60 -59q38 -23 84 -23q47 0 85 23v0z" />
    <glyph glyph-name="uni00A0" unicode="&#xa0;" horiz-adv-x="246" 
 />
    <glyph glyph-name="exclamdown" unicode="&#xa1;" horiz-adv-x="340" 
d="M210 407v112h-114v-112h114v0zM112 302l-22 -512h126l-22 512h-82v0z" />
    <glyph glyph-name="cent" unicode="&#xa2;" horiz-adv-x="510" 
d="M81 506q-24 -55 -24 -132q0 -76 24 -131t66 -88q42 -32 97 -42v-113h82v112q43 6 78 24q34 18 66 52l-69 68q-20 -22 -40 -34q-19 -12 -44 -15v335q25 -3 44 -15l40 -34l69 68q-32 34 -66 52q-35 18 -78 24v92h-82v-93q-55 -10 -97 -42q-42 -33 -66 -88v0zM253 540v-331
q-18 4 -33 14q-16 10 -27 26q-16 21 -24 51t-8 74q0 45 9 75q8 30 24 51l26 26l33 14v0z" />
    <glyph glyph-name="sterling" unicode="&#xa3;" horiz-adv-x="578" 
d="M449 718q-42 17 -98 17q-68 0 -122 -28q-55 -27 -88 -80q-32 -53 -33 -129v-98h-64v-80h64v-320h420v99h-309v221h132v80h-132v90q1 72 36 108q34 37 96 37q39 0 62 -12l42 -32l73 73q-37 37 -79 54v0z" />
    <glyph glyph-name="currency" unicode="&#xa4;" horiz-adv-x="681" 
d="M272 509q-32 -10 -59 -28l-75 75l-68 -69l75 -74q-19 -28 -29 -60t-10 -67q0 -36 10 -68t29 -59l-75 -76l68 -69l75 76q27 -18 59 -29l68 -10l68 10q32 11 59 29l76 -76l69 69l-76 76q18 27 29 59q10 32 10 68q0 35 -10 67q-11 32 -29 60l76 74l-69 69l-76 -75
q-27 18 -59 28l-68 10l-68 -10v0zM340 424q39 -1 71 -19q31 -18 50 -49q18 -32 19 -70q-1 -39 -19 -71q-19 -31 -50 -50q-32 -18 -71 -19q-39 1 -70 19q-32 19 -50 50q-19 32 -19 71q0 38 19 70q18 31 50 49q31 18 70 19v0z" />
    <glyph glyph-name="yen" unicode="&#xa5;" horiz-adv-x="557" 
d="M431 729l-151 -322l-153 322h-121l150 -297h-89v-80h130l27 -52v-53h-157v-80h157v-167h110v167h157v80h-157v53l27 52h130v80h-89l149 297h-120v0z" />
    <glyph glyph-name="brokenbar" unicode="&#xa6;" horiz-adv-x="352" 
d="M121 282v-358h105v358h-105v0zM226 446v359h-105v-359h105v0z" />
    <glyph glyph-name="section" unicode="&#xa7;" horiz-adv-x="556" 
d="M448 653q-23 38 -65 60q-43 21 -103 22q-61 -1 -103 -24q-43 -23 -65 -62q-23 -39 -23 -87q1 -56 25 -88q23 -32 61 -50q-24 -11 -46 -34q-23 -22 -37 -54q-15 -31 -16 -71q0 -76 37 -123q37 -46 108 -68l71 -21q42 -14 61 -38t19 -52q-1 -41 -25 -63q-24 -23 -68 -23
q-43 0 -68 21q-25 22 -28 60h-103q3 -60 31 -99q29 -38 73 -57q44 -18 95 -18q52 0 96 21q45 21 71 62q27 40 28 99q-1 57 -26 92q-25 36 -64 52q24 12 47 34q22 23 37 54q15 32 16 72q-1 75 -38 122t-108 68l-71 22q-36 11 -57 31q-20 21 -20 52q0 38 23 58q24 21 67 21
q39 0 64 -19q24 -18 28 -59h100q-2 49 -24 87v0zM381 267q0 -30 -8 -49q-9 -19 -21 -32q-13 -14 -31 -21l-41 -8l-41 8q-19 7 -32 21q-12 13 -20 32t-8 49q0 29 7 48t21 34l32 21l41 7l40 -7l32 -21q15 -15 22 -35t7 -47v0z" />
    <glyph glyph-name="dieresis" unicode="&#xa8;" horiz-adv-x="512" 
d="M193 618v111h-94v-111h94v0zM414 618v111h-94v-111h94v0z" />
    <glyph glyph-name="copyright" unicode="&#xa9;" horiz-adv-x="883" 
d="M448 569q-84 -1 -133 -55q-49 -55 -50 -149q1 -95 50 -150q49 -54 133 -55q42 0 74 13l60 40l-47 48l-42 -28l-45 -8q-58 1 -85 40q-26 38 -26 100q0 61 26 99q27 39 85 40l45 -8q19 -8 42 -28l47 48q-29 26 -61 40l-73 13v0zM697 518q39 -68 40 -153q-1 -86 -40 -154
t-106 -107q-66 -40 -149 -41q-84 1 -150 41q-67 39 -106 107t-40 154q1 85 40 153q39 67 106 107q66 39 150 40q83 -1 149 -40q67 -40 106 -107v0zM629 684q-84 50 -187 51q-104 -1 -187 -51q-84 -49 -133 -133q-50 -83 -51 -186q1 -104 51 -188q49 -83 133 -133
q83 -49 187 -50q103 1 187 50q83 50 133 133q49 84 50 188q-1 103 -50 186q-50 84 -133 133v0z" />
    <glyph glyph-name="ordfeminine" unicode="&#xaa;" horiz-adv-x="463" 
d="M89 522q-36 -33 -36 -86q0 -26 9 -50q8 -23 24 -39q19 -19 46 -28l65 -9q37 0 62 10q25 9 46 31v-37h83v277q0 70 -42 106q-43 36 -128 36l-86 -13q-35 -13 -63 -46l56 -54q17 22 36 31q20 10 53 9q47 0 69 -18q21 -19 20 -58v-28h-107q-71 -1 -107 -34v0zM303 496v-32
l-4 -37l-13 -23q-15 -15 -34 -19l-43 -3q-38 0 -56 14q-17 14 -17 42t18 43t54 15h95v0z" />
    <glyph glyph-name="guillemotleft" unicode="&#xab;" horiz-adv-x="606" 
d="M274 169l-110 109l110 109v126l-236 -235l236 -235v126v0zM533 169l-111 109l111 109v126l-236 -235l236 -235v126v0z" />
    <glyph glyph-name="logicalnot" unicode="&#xac;" 
d="M496 100v242h-447v-98h349v-144h98v0z" />
    <glyph glyph-name="uni00AD" unicode="&#xad;" horiz-adv-x="436" 
d="M368 235v98h-299v-98h299v0z" />
    <glyph glyph-name="registered" unicode="&#xae;" horiz-adv-x="883" 
d="M463 565h-150v-400h73v158h52l82 -158h82l-88 169q33 11 55 39q22 27 23 69q0 34 -16 62q-17 28 -46 44q-28 17 -67 17v0zM698 518q38 -68 39 -154q-1 -85 -39 -153q-39 -68 -106 -108t-150 -41q-84 1 -151 41t-106 108t-40 153q1 86 40 154t106 108q67 39 151 40
q83 -1 150 -40q67 -40 106 -108v0zM629 684q-84 50 -187 51q-104 -1 -187 -51q-84 -49 -133 -133q-50 -83 -51 -187q1 -103 51 -187q49 -83 133 -133q83 -49 187 -50q103 1 187 50q83 50 133 133q49 84 50 187q-1 104 -50 187q-50 84 -133 133v0zM520 442q-1 -26 -18 -43
q-18 -17 -48 -17h-68v121h68q30 -1 48 -18q17 -17 18 -43v0z" />
    <glyph glyph-name="macron" unicode="&#xaf;" horiz-adv-x="512" 
d="M415 637v75h-317v-75h317v0z" />
    <glyph glyph-name="degree" unicode="&#xb0;" horiz-adv-x="482" 
d="M63 562q0 -50 24 -90t64 -64t90 -24t90 24q41 24 65 64t24 90t-24 90q-24 41 -65 65q-40 24 -90 24t-90 -24t-64 -65q-24 -40 -24 -90v0zM175 630q26 26 66 27q40 -1 66 -27q26 -27 27 -68q-1 -41 -27 -67t-66 -27q-40 1 -66 27q-25 26 -26 67q1 41 26 68v0z" />
    <glyph glyph-name="plusminus" unicode="&#xb1;" 
d="M224 593v-172h-172v-98h172v-173h98v173h172v98h-172v172h-98v0zM52 97v-97h442v97h-442v0z" />
    <glyph glyph-name="uni00B2" unicode="&#xb2;" horiz-adv-x="358" 
d="M46 606h79q1 32 17 44q16 13 37 12q26 0 40 -15q14 -16 14 -41q1 -15 -5 -27l-17 -26l-165 -191v-70h266v70h-171l124 143l35 48q12 22 12 53q-1 59 -37 93q-37 33 -96 34q-58 -1 -95 -34q-37 -34 -38 -93v0z" />
    <glyph glyph-name="uni00B3" unicode="&#xb3;" horiz-adv-x="371" 
d="M172 549v-68h11q31 0 47 -17q16 -16 16 -44q-1 -30 -17 -47q-16 -16 -42 -16q-25 0 -43 14q-17 14 -19 44h-79q1 -45 21 -74q20 -28 52 -42q31 -13 68 -13t69 15q31 15 49 44q19 29 20 72v1q-1 39 -17 63t-41 36q23 11 37 33q14 23 15 58q-1 56 -38 90t-95 35
q-37 0 -67 -15q-29 -15 -47 -42q-18 -28 -19 -67h77q2 25 17 39q14 14 39 14q22 0 38 -14q16 -15 17 -43q0 -24 -14 -40t-44 -16h-11v0z" />
    <glyph glyph-name="acute" unicode="&#xb4;" horiz-adv-x="512" 
d="M396 779h-116l-77 -166h79l114 166v0z" />
    <glyph glyph-name="mu" unicode="&#xb5;" horiz-adv-x="583" 
d="M78 519v-729h105v229q14 -12 33 -19l43 -6q40 0 75 14q35 15 62 44v-52h103v519h-105v-317q-1 -59 -31 -87q-30 -29 -75 -28q-45 -1 -74 27q-30 28 -31 88v317h-105v0z" />
    <glyph glyph-name="paragraph" unicode="&#xb6;" horiz-adv-x="652" 
d="M453 629v-839h104v939h-287q-71 -1 -122 -26q-52 -25 -80 -71t-29 -107q1 -55 27 -100t70 -73q45 -27 102 -28v-534h104v839h111v0z" />
    <glyph glyph-name="periodcentered" unicode="&#xb7;" horiz-adv-x="285" 
d="M205 222v125h-125v-125h125v0z" />
    <glyph glyph-name="cedilla" unicode="&#xb8;" horiz-adv-x="512" 
d="M327 -66h-84l-72 -150h104l52 150v0z" />
    <glyph glyph-name="uni00B9" unicode="&#xb9;" horiz-adv-x="284" 
d="M209 292v437h-79l-89 -77v-89l89 78v-349h79v0z" />
    <glyph glyph-name="ordmasculine" unicode="&#xba;" horiz-adv-x="469" 
d="M202 651l33 6l33 -6l27 -17q19 -20 23 -49l4 -63l-4 -63q-4 -30 -23 -50q-11 -11 -27 -17l-33 -6q-19 0 -33 6q-15 6 -27 17q-18 20 -23 50t-4 63q-1 33 4 63q5 29 23 49q12 11 27 17v0zM63 522q-1 -53 9 -92q11 -40 40 -71q20 -21 50 -35q31 -13 73 -14q42 1 73 14
q31 14 51 35q29 31 39 71q10 39 10 92q0 52 -10 92q-10 39 -39 70q-20 21 -51 35q-31 13 -73 14q-42 -1 -73 -14q-30 -14 -50 -35q-29 -31 -40 -70q-10 -40 -9 -92v0z" />
    <glyph glyph-name="guillemotright" unicode="&#xbb;" horiz-adv-x="606" 
d="M311 278l-237 235v-126l111 -109l-111 -109v-126l237 235v0zM333 43l237 235l-237 235v-126l110 -109l-110 -109v-126v0z" />
    <glyph glyph-name="onequarter" unicode="&#xbc;" horiz-adv-x="827" 
d="M528 729l-343 -729h83l342 729h-82v0zM130 641v-350h79v438h-79l-89 -77v-89l89 78v0zM642 437l-150 -302v-73h178v-62h76v62h41v73h-41v85h-76v-85h-93l150 302h-85v0z" />
    <glyph glyph-name="onehalf" unicode="&#xbd;" horiz-adv-x="847" 
d="M519 729l-343 -729h83l343 729h-83v0zM130 641v-349h79v437h-79l-89 -77v-89l89 78v0zM630 359q16 12 38 12q26 -1 40 -16t14 -41l-5 -27l-18 -26l-163 -191v-70h265v70h-171l124 144l34 47q13 23 13 53q-1 60 -38 93q-37 34 -95 34t-95 -34q-36 -33 -37 -93h78
q0 32 16 45v0z" />
    <glyph glyph-name="threequarters" unicode="&#xbe;" horiz-adv-x="864" 
d="M571 729l-344 -729h83l344 729h-83v0zM172 549v-68h11q31 0 47 -17q16 -16 16 -44q-1 -30 -17 -47q-16 -16 -42 -16q-25 0 -43 14q-17 14 -19 44h-79q1 -45 21 -74q20 -28 52 -42q31 -13 68 -13t69 15q31 15 49 44q19 29 20 72v1q-1 39 -17 63t-41 36q23 11 37 33
q14 23 15 58q-1 56 -38 90t-95 35q-37 0 -67 -15q-29 -15 -47 -42q-18 -28 -19 -67h77q2 25 17 39q14 14 39 14q22 0 38 -14q16 -15 17 -43q0 -24 -14 -40t-44 -16h-11v0zM679 437l-149 -302v-73h178v-62h75v62h41v73h-41v85h-75v-85h-93l150 302h-86v0z" />
    <glyph glyph-name="questiondown" unicode="&#xbf;" horiz-adv-x="523" 
d="M184 519v-112h114v112h-114v0zM293 303h-104v-31l-5 -28l-14 -27l-80 -111q-21 -28 -34 -59q-13 -30 -14 -67q1 -60 28 -104q28 -44 74 -68t102 -24q58 0 105 25q46 25 72 69q27 44 28 102h-105q0 -43 -26 -72t-74 -30q-45 1 -72 29t-27 72q0 22 9 41q8 19 23 37l78 108
q19 23 27 47q9 23 9 54v37v0z" />
    <glyph glyph-name="Agrave" unicode="&#xc0;" horiz-adv-x="640" 
d="M276 729l-268 -729h118l50 146h288l50 -146h118l-267 729h-89v0zM293 965h-116l114 -166h79l-77 166v0zM209 240l114 324l110 -324h-224v0z" />
    <glyph glyph-name="Aacute" unicode="&#xc1;" horiz-adv-x="640" 
d="M276 729l-268 -729h118l50 146h288l50 -146h118l-267 729h-89v0zM264 799h79l114 166h-116l-77 -166v0zM209 240l114 324l110 -324h-224v0z" />
    <glyph glyph-name="Acircumflex" unicode="&#xc2;" horiz-adv-x="640" 
d="M494 799l-132 165h-88l-132 -165h87l89 100l89 -100h87v0zM276 729l-268 -729h118l50 146h288l50 -146h118l-267 729h-89v0zM209 240l114 324l110 -324h-224v0z" />
    <glyph glyph-name="Atilde" unicode="&#xc3;" horiz-adv-x="640" 
d="M490 869l-49 48q-21 -20 -35 -26t-26 -5l-28 5l-28 14l-38 19l-39 6q-24 1 -48 -11q-25 -12 -58 -46l49 -48q21 21 34 26l25 5l29 -6l28 -14l38 -17l39 -6q23 -1 48 11q25 11 59 45v0zM276 729l-268 -729h118l50 146h288l50 -146h118l-267 729h-89v0zM209 240l114 324
l110 -324h-224v0z" />
    <glyph glyph-name="Adieresis" unicode="&#xc4;" horiz-adv-x="640" 
d="M475 915h-94v-110h94v110v0zM254 805v110h-94v-110h94v0zM276 729l-267 -729h117l51 146h287l50 -146h118l-267 729h-89v0zM209 240l114 324l110 -324h-224v0z" />
    <glyph glyph-name="Aring" unicode="&#xc5;" horiz-adv-x="640" 
d="M253 1006q-29 -17 -46 -46t-17 -64q0 -36 17 -65t46 -46t65 -17q35 0 64 17t46 46t18 65q-1 35 -18 64t-46 46t-64 18q-36 -1 -65 -18v0zM383 896q0 -28 -19 -46t-46 -19q-28 1 -46 19q-19 18 -20 46q1 27 20 45q18 19 46 19q27 0 46 -19q19 -18 19 -45v0zM276 729
l-267 -729h117l50 146h288l50 -146h118l-267 729h-89v0zM433 240h-224l114 324l110 -324v0z" />
    <glyph glyph-name="AE" unicode="&#xc6;" horiz-adv-x="975" 
d="M453 260h-193l193 369v-369v0zM453 166v-166h466v99h-356v217h303v100h-303v213h356v100h-531l-383 -729h121l86 166h241v0z" />
    <glyph glyph-name="Ccedilla" unicode="&#xc7;" horiz-adv-x="643" 
d="M452 709q-54 26 -121 26q-57 0 -106 -20q-48 -20 -86 -58q-35 -36 -50 -77t-18 -94l-2 -122l2 -122q3 -53 18 -94t50 -76q38 -38 86 -58q49 -20 106 -20q66 0 120 26q55 25 91 75t49 123h-112q-13 -56 -50 -90t-98 -35q-33 0 -61 12q-27 11 -47 32q-17 19 -27 44t-13 68
l-4 115l4 116q3 43 13 68t27 43q20 21 47 33q28 11 61 11q60 -1 97 -34q37 -34 50 -90h113q-13 72 -49 122t-90 76v0zM383 -66h-84l-72 -150h104l52 150v0z" />
    <glyph glyph-name="Egrave" unicode="&#xc8;" horiz-adv-x="617" 
d="M562 729h-466v-729h466v99h-356v219h303v99h-303v212h356v100v0zM372 799l-77 166h-115l113 -166h79v0z" />
    <glyph glyph-name="Eacute" unicode="&#xc9;" horiz-adv-x="617" 
d="M562 729h-466v-729h466v99h-356v219h303v99h-303v212h356v100v0zM344 799l114 166h-116l-76 -166h78v0z" />
    <glyph glyph-name="Ecircumflex" unicode="&#xca;" horiz-adv-x="617" 
d="M495 799l-132 165h-88l-132 -165h87l89 100l89 -100h87v0zM562 729h-466v-729h466v99h-356v219h303v99h-303v212h356v100v0z" />
    <glyph glyph-name="Edieresis" unicode="&#xcb;" horiz-adv-x="617" 
d="M476 915h-94v-110h94v110v0zM561 729h-465v-729h465v99h-355v219h303v99h-303v212h355v100v0zM255 805v110h-94v-110h94v0z" />
    <glyph glyph-name="Igrave" unicode="&#xcc;" horiz-adv-x="301" 
d="M191 799l-77 166h-115l113 -166h79v0zM96 729v-729h110v729h-110v0z" />
    <glyph glyph-name="Iacute" unicode="&#xcd;" horiz-adv-x="301" 
d="M288 965h-116l-76 -166h79l113 166v0zM96 729v-729h110v729h-110v0z" />
    <glyph glyph-name="Icircumflex" unicode="&#xce;" horiz-adv-x="301" 
d="M328 799l-132 165h-88l-132 -165h87l89 100l89 -100h87v0zM96 729v-729h110v729h-110v0z" />
    <glyph glyph-name="Idieresis" unicode="&#xcf;" horiz-adv-x="301" 
d="M311 805v110h-94v-110h94v0zM90 915h-94v-110h94v110v0zM96 729v-729h110v729h-110v0z" />
    <glyph glyph-name="Eth" unicode="&#xd0;" horiz-adv-x="700" 
d="M511 526l9 -62l2 -103l-2 -104q-2 -36 -8 -57q-6 -20 -18 -37q-21 -32 -55 -48q-34 -17 -81 -17h-133v227h142v85h-142v220h133q45 0 77 -15q31 -15 55 -48l21 -41v0zM577 631q-37 48 -89 73t-117 25h-256v-319h-76v-85h76v-325h253q69 0 122 26q52 26 87 70q26 32 38 66
q12 33 15 81l2 121l-2 117q-2 47 -14 81q-12 35 -39 69v0z" />
    <glyph glyph-name="Ntilde" unicode="&#xd1;" horiz-adv-x="739" 
d="M543 869l-49 48l-35 -26l-26 -5l-28 5q-13 5 -28 14l-37 19l-40 6q-23 1 -48 -11q-24 -12 -58 -46l49 -48l34 26l25 5l29 -6l29 -14q19 -11 37 -17l40 -6q23 -1 47 11q25 11 59 45v0zM534 729v-512l-337 512h-101v-729h110v513l337 -513h101v729h-110v0z" />
    <glyph glyph-name="Ograve" unicode="&#xd2;" horiz-adv-x="662" 
d="M467 547l13 -68l3 -115l-3 -115l-13 -67q-10 -25 -27 -44q-20 -21 -48 -33t-61 -12t-61 12t-48 33q-17 19 -27 44q-9 24 -13 67q-3 43 -3 115t3 115q4 43 13 68q10 25 27 43q20 21 48 33t61 12t61 -12l48 -33l27 -43v0zM524 657q-38 38 -86 58q-49 20 -107 20t-106 -20
t-86 -58q-35 -36 -50 -77t-18 -94l-2 -122l2 -122q3 -53 18 -94t50 -76q38 -38 86 -58t106 -20t107 20q48 20 86 58q35 35 50 76q14 41 17 94l2 122l-2 122q-3 53 -17 94q-15 41 -50 77v0zM384 799l-77 166h-115l113 -166h79v0z" />
    <glyph glyph-name="Oacute" unicode="&#xd3;" horiz-adv-x="662" 
d="M467 547l13 -68l3 -115l-3 -115l-13 -67q-10 -25 -27 -44q-20 -21 -48 -33t-61 -12t-61 12t-48 33q-17 19 -27 44q-9 24 -13 67q-3 43 -3 115t3 115q4 43 13 68q10 25 27 43q20 21 48 33t61 12t61 -12l48 -33l27 -43v0zM524 657q-38 38 -86 58q-49 20 -107 20t-106 -20
t-86 -58q-35 -36 -50 -77t-18 -94l-2 -122l2 -122q3 -53 18 -94t50 -76q38 -38 86 -58t106 -20t107 20q48 20 86 58q35 35 50 76q14 41 17 94l2 122l-2 122q-3 53 -17 94q-15 41 -50 77v0zM278 799h79l113 166h-115l-77 -166v0z" />
    <glyph glyph-name="Ocircumflex" unicode="&#xd4;" horiz-adv-x="662" 
d="M507 799l-132 165h-88l-132 -165h87l89 100l89 -100h87v0zM467 547l13 -68l3 -115l-3 -115l-13 -67q-10 -25 -27 -44q-20 -21 -48 -33t-61 -12t-61 12t-48 33q-17 19 -27 44q-9 24 -13 67q-3 43 -3 115t3 115q4 43 13 68q10 25 27 43q20 21 48 33t61 12t61 -12l48 -33
l27 -43v0zM524 657q-38 38 -86 58q-49 20 -107 20t-106 -20t-86 -58q-35 -36 -50 -77t-18 -94l-2 -122l2 -122q3 -53 18 -94t50 -76q38 -38 86 -58t106 -20t107 20q48 20 86 58q35 35 50 76q14 41 17 94l2 122l-2 122q-3 53 -17 94q-15 41 -50 77v0z" />
    <glyph glyph-name="Otilde" unicode="&#xd5;" horiz-adv-x="662" 
d="M504 869l-49 48l-34 -26l-26 -5l-29 5l-28 14l-38 19l-39 6q-24 1 -48 -11t-58 -46l49 -48l34 26l25 5l29 -6l29 -14q19 -11 37 -17l40 -6q23 -1 48 11q24 11 58 45v0zM467 547l13 -68l3 -115l-3 -115l-13 -67q-10 -25 -27 -44q-20 -21 -48 -33t-61 -12t-61 12t-48 33
q-17 19 -27 44q-9 24 -13 67q-3 43 -3 115t3 115q4 43 13 68q10 25 27 43q20 21 48 33t61 12t61 -12l48 -33l27 -43v0zM524 657q-38 38 -86 58q-49 20 -107 20t-106 -20t-86 -58q-35 -36 -50 -77t-18 -94l-2 -122l2 -122q3 -53 18 -94t50 -76q38 -38 86 -58t106 -20t107 20
q48 20 86 58q35 35 50 76q14 41 17 94l2 122l-2 122q-3 53 -17 94q-15 41 -50 77v0z" />
    <glyph glyph-name="Odieresis" unicode="&#xd6;" horiz-adv-x="662" 
d="M489 915h-94v-110h94v110v0zM467 547l13 -68l3 -115l-3 -115l-13 -67q-10 -25 -27 -44q-20 -21 -48 -33t-61 -12t-61 12t-48 33q-17 19 -27 44q-9 24 -13 67q-3 43 -3 115t3 115q4 43 13 68q10 25 27 43q20 21 48 33t61 12t61 -12l48 -33l27 -43v0zM524 657
q-38 38 -86 58q-49 20 -107 20t-106 -20t-86 -58q-35 -36 -50 -77t-18 -94l-2 -122l2 -122q3 -53 18 -94t50 -76q38 -38 86 -58t106 -20t107 20q48 20 86 58q35 35 50 76q14 41 17 94l2 122l-2 122q-3 53 -17 94q-15 41 -50 77v0zM267 915h-94v-110h94v110v0z" />
    <glyph glyph-name="multiply" unicode="&#xd7;" 
d="M273 219l149 -149l66 65l-150 149l150 150l-66 65l-149 -149l-149 149l-65 -65l149 -150l-149 -149l65 -65l149 149v0z" />
    <glyph glyph-name="Oslash" unicode="&#xd8;" horiz-adv-x="668" 
d="M475 517l6 -62l2 -91l-3 -115l-13 -68l-27 -43q-20 -21 -48 -33t-61 -12l-44 6q-20 6 -37 17l212 443l13 -42v0zM524 657l-4 3l-3 3l53 111h-85l-31 -67l-58 20l-65 8q-58 0 -106 -20t-86 -58q-35 -35 -50 -77q-15 -41 -18 -93l-2 -123l2 -122q3 -53 18 -94t50 -76l6 -7
l-52 -110h84l32 66q27 -13 58 -20l64 -7q58 0 107 20q48 20 86 58q35 35 50 76q14 41 17 94l2 122l-2 123q-3 52 -17 93q-15 42 -50 77v0zM375 630l38 -17l-212 -443q-8 17 -13 42l-6 61l-2 91q0 72 3 115q4 43 13 68q10 25 27 43q20 21 48 33q27 12 60 12l44 -5v0z" />
    <glyph glyph-name="Ugrave" unicode="&#xd9;" horiz-adv-x="691" 
d="M497 729v-478q-1 -74 -42 -115q-40 -42 -110 -43q-69 1 -109 43q-40 41 -41 115v478h-111v-483q1 -76 35 -132q34 -57 93 -88q58 -32 133 -32t134 32q59 31 93 88q34 56 35 132v483h-110v0zM400 799l-77 166h-116l114 -166h79v0z" />
    <glyph glyph-name="Uacute" unicode="&#xda;" horiz-adv-x="691" 
d="M497 729v-478q-1 -74 -42 -115q-40 -42 -110 -43q-69 1 -109 43q-40 41 -41 115v478h-111v-483q1 -76 35 -132q34 -57 93 -88q58 -32 133 -32t134 32q59 31 93 88q34 56 35 132v483h-110v0zM372 799l114 166h-116l-77 -166h79v0z" />
    <glyph glyph-name="Ucircumflex" unicode="&#xdb;" horiz-adv-x="691" 
d="M522 799l-132 165h-88l-132 -165h87l89 100l89 -100h87v0zM497 729v-478q-1 -74 -42 -115q-40 -42 -110 -43q-69 1 -109 43q-40 41 -41 115v478h-111v-483q1 -76 35 -132q34 -57 93 -88q58 -32 133 -32t134 32q59 31 93 88q34 56 35 132v483h-110v0z" />
    <glyph glyph-name="Udieresis" unicode="&#xdc;" horiz-adv-x="691" 
d="M504 805v110h-94v-110h94v0zM497 729v-478q-1 -74 -42 -115q-40 -42 -110 -43q-69 1 -109 43q-40 41 -41 115v478h-111v-483q1 -76 35 -132q34 -57 93 -88q58 -32 133 -32t134 32q59 31 93 88q34 56 35 132v483h-110v0zM283 805v110h-94v-110h94v0z" />
    <glyph glyph-name="Yacute" unicode="&#xdd;" horiz-adv-x="557" 
d="M431 729l-152 -321l-152 321h-121l218 -429v-300h110v300l218 429h-121v0zM226 799h79l113 166h-115l-77 -166v0z" />
    <glyph glyph-name="Thorn" unicode="&#xde;" horiz-adv-x="652" 
d="M206 589v140h-110v-729h110v147h166q71 1 124 29q52 29 80 78q29 49 29 113q0 65 -29 114q-28 50 -80 79q-53 28 -124 29h-166v0zM365 489q58 0 93 -32t36 -90q-1 -57 -36 -89q-35 -31 -93 -31h-159v242h159v0z" />
    <glyph glyph-name="germandbls" unicode="&#xdf;" horiz-adv-x="579" 
d="M484 660q-27 39 -74 57q-48 19 -108 19q-65 0 -114 -22q-49 -23 -77 -67q-27 -45 -28 -113v-534h106v528q-1 54 25 84q25 31 85 32l49 -6q20 -6 34 -19l19 -27l7 -34q-1 -38 -22 -57q-21 -20 -54 -20h-32v-83h36l31 -5l22 -14l15 -23l4 -32v-159l-6 -35q-5 -15 -16 -24
q-10 -9 -22 -13l-31 -4h-33v-89h55l67 10q28 10 49 30q21 19 32 49q10 29 10 66v169q0 49 -16 75q-15 27 -48 43q28 17 45 46q18 28 18 73q0 60 -28 99v0z" />
    <glyph glyph-name="agrave" unicode="&#xe0;" horiz-adv-x="543" 
d="M317 613l-77 166h-116l114 -166h79v0zM144 509q-43 -17 -79 -59l68 -64q21 27 46 39q26 11 68 11q60 0 87 -24t27 -73v-37h-137q-90 -1 -135 -42t-45 -108q0 -33 11 -62q10 -28 30 -49q24 -24 58 -36l82 -11q47 0 79 12q31 13 59 41v-47h102v347q0 88 -53 133
q-54 45 -161 45q-63 0 -107 -16v0zM169 210q24 19 70 19h122v-42l-6 -46q-5 -19 -17 -31q-20 -19 -44 -24l-53 -5q-49 0 -72 19q-24 19 -23 54q0 36 23 56v0z" />
    <glyph glyph-name="aacute" unicode="&#xe1;" horiz-adv-x="543" 
d="M403 779h-116l-77 -166h79l114 166v0zM144 509q-43 -17 -79 -59l68 -64q21 27 46 39q26 11 68 11q60 0 87 -24t27 -73v-37h-137q-90 -1 -135 -42t-45 -108q0 -33 11 -62q10 -28 30 -49q24 -24 58 -36l82 -11q47 0 79 12q31 13 59 41v-47h102v347q0 88 -53 133
q-54 45 -161 45q-63 0 -107 -16v0zM169 210q24 19 70 19h122v-42l-6 -46q-5 -19 -17 -31q-20 -19 -44 -24l-53 -5q-49 0 -72 19q-24 19 -23 54q0 36 23 56v0z" />
    <glyph glyph-name="acircumflex" unicode="&#xe2;" horiz-adv-x="543" 
d="M353 613h87l-132 165h-89l-132 -165h87l89 99l90 -99v0zM144 509q-43 -17 -79 -59l68 -64q21 27 46 39q26 11 68 11q60 0 87 -24t27 -73v-37h-137q-90 -1 -135 -42t-45 -108q0 -33 11 -62q10 -28 30 -49q24 -24 58 -36l82 -11q47 0 79 12q31 13 59 41v-47h102v347
q0 88 -53 133q-54 45 -161 45q-63 0 -107 -16v0zM169 210q24 19 70 19h122v-42l-6 -46q-5 -19 -17 -31q-20 -19 -44 -24l-53 -5q-49 0 -72 19q-24 19 -23 54q0 36 23 56v0z" />
    <glyph glyph-name="atilde" unicode="&#xe3;" horiz-adv-x="543" 
d="M196 669l29 -5l28 -14q20 -12 37 -18l40 -6q23 -1 48 11t59 46l-50 48l-34 -26l-26 -6l-28 5q-13 5 -28 15l-38 18l-39 6l-48 -11q-25 -11 -59 -45l49 -48l34 26l26 4v0zM144 509q-43 -17 -79 -59l68 -64q21 27 46 39q26 11 68 11q60 0 87 -24t27 -73v-37h-137
q-90 -1 -135 -42t-45 -108q0 -33 11 -62q10 -28 30 -49q24 -24 58 -36l82 -11q47 0 79 12q31 13 59 41v-47h102v347q0 88 -53 133q-54 45 -161 45q-63 0 -107 -16v0zM169 210q24 19 70 19h122v-42l-6 -46q-5 -19 -17 -31q-20 -19 -44 -24l-53 -5q-49 0 -72 19q-24 19 -23 54
q0 36 23 56v0z" />
    <glyph glyph-name="adieresis" unicode="&#xe4;" horiz-adv-x="543" 
d="M421 729h-94v-111h94v111v0zM200 618v111h-94v-111h94v0zM144 509q-43 -17 -79 -59l68 -64q21 27 46 39q26 11 68 11q60 0 87 -24t27 -73v-37h-137q-90 -1 -135 -42t-45 -108q0 -33 11 -62q10 -28 30 -49q24 -24 58 -36l82 -11q47 0 79 12q32 13 59 41v-47h102v347
q0 88 -53 133q-54 45 -161 45q-63 0 -107 -16v0zM169 210q24 19 70 19h122v-42l-6 -46q-5 -19 -17 -31q-20 -19 -44 -24l-53 -5q-49 0 -72 19q-24 19 -23 54q0 36 23 56v0z" />
    <glyph glyph-name="aring" unicode="&#xe5;" horiz-adv-x="543" 
d="M309 763q19 -18 20 -45q-1 -28 -20 -46q-18 -18 -46 -19q-27 1 -46 19t-19 46q0 27 19 45q19 19 46 19q28 0 46 -19v0zM328 828q-29 17 -65 18q-35 -1 -64 -18t-46 -46t-18 -64q1 -36 18 -65t46 -46t64 -17q36 0 65 17t46 46t17 65q0 35 -17 64t-46 46v0zM144 509
q-43 -17 -79 -59l68 -64q21 27 46 39q26 11 68 11q60 0 87 -24t27 -73v-37h-137q-90 -1 -135 -42t-45 -108q0 -33 11 -62q10 -28 30 -49q24 -24 58 -36l81 -11l79 12q32 13 60 41v-47h102v347q0 88 -53 133q-54 45 -161 45q-63 0 -107 -16v0zM169 210q24 19 70 19h122v-42
l-6 -46q-5 -19 -17 -31q-20 -19 -44 -24l-53 -5q-49 0 -72 19q-24 19 -23 54q0 36 23 56v0z" />
    <glyph glyph-name="ae" unicode="&#xe6;" horiz-adv-x="857" 
d="M494 507q-39 -17 -67 -51q-23 34 -67 51q-44 18 -109 18q-63 0 -107 -16q-43 -17 -79 -59l68 -64q21 27 46 39q26 11 68 11q60 0 87 -24t27 -73v-37h-137q-90 -1 -135 -42t-45 -108q0 -32 11 -61q10 -29 30 -50q24 -24 57 -36l83 -11q59 -1 104 16q44 17 82 65
q32 -42 79 -62q47 -19 104 -19l79 9q34 9 62 27t54 45l-67 62q-26 -28 -55 -40q-28 -13 -71 -13q-64 0 -98 39t-34 106h337v46q0 74 -26 130t-75 88q-49 31 -119 32q-49 0 -87 -18v0zM169 210q24 19 70 19h122v-42l-6 -46q-5 -19 -17 -31q-20 -19 -44 -24l-53 -5
q-49 0 -72 19q-24 19 -23 54q0 36 23 56v0zM698 302h-234l4 38l11 32q12 30 38 48q27 17 64 18q37 -1 64 -18q27 -18 39 -48l10 -32l4 -38v0z" />
    <glyph glyph-name="ccedilla" unicode="&#xe7;" horiz-adv-x="497" 
d="M176 499q-52 -26 -85 -84t-34 -155q1 -97 34 -156q33 -58 85 -84q53 -27 112 -26q53 -1 94 17t77 56l-71 69q-24 -27 -47 -38q-23 -12 -53 -11q-30 0 -54 12q-25 11 -42 34q-17 21 -24 51q-7 31 -7 76t7 75t24 51q17 22 42 34q24 12 54 12l53 -11l47 -38l71 69
q-36 39 -77 56t-94 17q-59 0 -112 -26v0zM327 -66h-84l-72 -150h104l52 150v0z" />
    <glyph glyph-name="egrave" unicode="&#xe8;" horiz-adv-x="552" 
d="M333 613l-77 166h-115l113 -166h79v0zM394 302h-234l3 38l11 32q12 30 39 48q27 17 64 18q37 -1 63 -18q27 -18 39 -48l11 -32l4 -38v0zM57 260q0 -98 31 -157t84 -84q53 -26 118 -25l79 9q34 9 62 27t54 45l-67 62q-26 -28 -55 -40q-28 -13 -71 -13q-64 0 -98 39
q-33 39 -34 106h337v46q0 74 -26 130t-75 88q-49 31 -119 32q-67 -1 -116 -32q-50 -31 -77 -90t-27 -143v0z" />
    <glyph glyph-name="eacute" unicode="&#xe9;" horiz-adv-x="552" 
d="M306 613l113 166h-115l-77 -166h79v0zM394 302h-234l3 38l11 32q12 30 39 48q27 17 64 18q37 -1 63 -18q27 -18 39 -48l11 -32l4 -38v0zM57 260q0 -98 31 -157t84 -84q53 -26 118 -25l79 9q34 9 62 27t54 45l-67 62q-26 -28 -55 -40q-28 -13 -71 -13q-64 0 -98 39
q-33 39 -34 106h337v46q0 74 -26 130t-75 88q-49 31 -119 32q-67 -1 -116 -32q-50 -31 -77 -90t-27 -143v0z" />
    <glyph glyph-name="ecircumflex" unicode="&#xea;" horiz-adv-x="552" 
d="M369 613h87l-132 165h-88l-132 -165h87l89 99l89 -99v0zM394 302h-234l3 38l11 32q12 30 39 48q27 17 64 18q37 -1 63 -18q27 -18 39 -48l11 -32l4 -38v0zM57 260q0 -98 31 -157t84 -84q53 -26 118 -25l79 9q34 9 62 27t54 45l-67 62q-26 -28 -55 -40q-28 -13 -71 -13
q-64 0 -98 39q-33 39 -34 106h337v46q0 74 -26 130t-75 88q-49 31 -119 32q-67 -1 -116 -32q-50 -31 -77 -90t-27 -143v0z" />
    <glyph glyph-name="edieresis" unicode="&#xeb;" horiz-adv-x="552" 
d="M437 729h-94v-111h94v111v0zM216 618v111h-94v-111h94v0zM393 302h-233l3 38l11 32q12 30 39 48q27 17 64 18q37 -1 63 -18q27 -18 39 -48l11 -32l3 -38v0zM57 260q1 -98 31 -157q31 -59 84 -84q52 -26 118 -25l79 9q34 9 62 27l53 45l-66 62q-27 -28 -55 -40
q-28 -13 -71 -13q-64 0 -98 39t-34 106h337v46q-1 74 -26 130q-26 56 -75 88q-49 31 -119 32q-67 -1 -116 -32q-50 -31 -77 -90t-27 -143v0z" />
    <glyph glyph-name="igrave" unicode="&#xec;" horiz-adv-x="270" 
d="M180 613l-77 166h-116l114 -166h79v0zM83 519v-519h105v519h-105v0z" />
    <glyph glyph-name="iacute" unicode="&#xed;" horiz-adv-x="270" 
d="M276 779h-116l-77 -166h79l114 166v0zM83 519v-519h105v519h-105v0z" />
    <glyph glyph-name="icircumflex" unicode="&#xee;" horiz-adv-x="270" 
d="M315 613l-132 165h-88l-133 -165h87l90 99l89 -99h87v0zM83 519v-519h105v519h-105v0z" />
    <glyph glyph-name="idieresis" unicode="&#xef;" horiz-adv-x="270" 
d="M294 618v111h-94v-111h94v0zM73 729h-94v-111h94v111v0zM83 519v-519h105v519h-105v0z" />
    <glyph glyph-name="eth" unicode="&#xf0;" horiz-adv-x="550" 
d="M422 662h-89l-40 72h-110l40 -72h-80v-73h118l47 -83l-39 5l-39 -3q-33 -6 -60 -19t-47 -33q-36 -38 -48 -87q-13 -50 -12 -114q-1 -65 12 -114q12 -50 48 -87q25 -27 63 -43q37 -17 89 -17q51 0 89 17q39 16 63 43q36 37 49 87q13 49 12 114l-5 82q-6 36 -20 72l-40 83
l-52 97h51v73v0zM383 255q1 -42 -5 -78t-29 -61q-13 -14 -33 -21l-41 -8q-23 0 -41 8q-19 7 -33 21q-22 25 -28 61q-7 36 -6 78q-1 41 6 77q6 37 28 61q14 14 33 22q18 8 41 8l41 -8q20 -8 33 -22q23 -24 29 -61q6 -36 5 -77v0z" />
    <glyph glyph-name="ntilde" unicode="&#xf1;" horiz-adv-x="582" 
d="M467 683l-49 48q-20 -20 -34 -26l-26 -6l-28 5q-14 5 -29 15l-37 18l-39 6q-24 1 -49 -11q-24 -11 -58 -45l49 -48q21 20 34 26l26 4l29 -5l28 -14q20 -12 37 -18l40 -6q23 -1 48 11q24 12 58 46v0zM83 519v-519h105v316q1 60 32 88q30 28 75 28t74 -28q30 -28 31 -88
v-316h104v331q1 44 -11 81t-41 66q-23 22 -56 34l-72 13q-40 0 -75 -15q-36 -14 -63 -43v52h-103v0z" />
    <glyph glyph-name="ograve" unicode="&#xf2;" horiz-adv-x="550" 
d="M321 613l-77 166h-116l114 -166h79v0zM275 525q-53 -1 -91 -18q-39 -17 -64 -44q-36 -38 -49 -88t-12 -115q-1 -66 12 -116q13 -51 49 -89q25 -27 64 -44q38 -17 91 -17t91 17q39 17 64 44q36 38 49 89q13 50 13 116q0 65 -13 115t-49 88q-25 27 -64 44q-38 17 -91 18v0z
M387 260q1 -43 -6 -81q-6 -37 -30 -62q-14 -14 -34 -22q-19 -8 -42 -8l-42 8q-19 8 -34 22q-23 25 -30 62q-7 38 -6 81q-1 43 6 80q7 38 30 62q15 15 34 22l42 8q23 0 42 -8q20 -7 34 -22q24 -24 30 -62q7 -37 6 -80v0z" />
    <glyph glyph-name="oacute" unicode="&#xf3;" horiz-adv-x="550" 
d="M300 613l114 166h-116l-76 -166h78v0zM275 525q-53 -1 -91 -18q-39 -17 -64 -44q-36 -38 -49 -88t-12 -115q-1 -66 12 -116q13 -51 49 -89q25 -27 64 -44q38 -17 91 -17t91 17q39 17 64 44q36 38 49 89q13 50 13 116q0 65 -13 115t-49 88q-25 27 -64 44q-38 17 -91 18v0z
M387 260q1 -43 -6 -81q-6 -37 -30 -62q-14 -14 -34 -22q-19 -8 -42 -8l-42 8q-19 8 -34 22q-23 25 -30 62q-7 38 -6 81q-1 43 6 80q7 38 30 62q15 15 34 22l42 8q23 0 42 -8q20 -7 34 -22q24 -24 30 -62q7 -37 6 -80v0z" />
    <glyph glyph-name="ocircumflex" unicode="&#xf4;" horiz-adv-x="550" 
d="M364 613h87l-132 165h-88l-132 -165h87l89 99l89 -99v0zM275 525q-53 -1 -91 -18q-39 -17 -64 -44q-36 -38 -49 -88t-12 -115q-1 -66 12 -116q13 -51 49 -89q25 -27 64 -44q38 -17 91 -17t91 17q39 17 64 44q36 38 49 89q13 50 13 116q0 65 -13 115t-49 88q-25 27 -64 44
q-38 17 -91 18v0zM387 260q1 -43 -6 -81q-6 -37 -30 -62q-14 -14 -34 -22q-19 -8 -42 -8l-42 8q-19 8 -34 22q-23 25 -30 62q-7 38 -6 81q-1 43 6 80q7 38 30 62q15 15 34 22l42 8q23 0 42 -8q20 -7 34 -22q24 -24 30 -62q7 -37 6 -80v0z" />
    <glyph glyph-name="otilde" unicode="&#xf5;" horiz-adv-x="550" 
d="M182 665l25 4l29 -5l29 -14q19 -12 37 -18l39 -6q23 -1 48 11t59 46l-49 48l-35 -26l-26 -6l-28 5l-28 15l-38 18l-39 6q-24 1 -48 -11q-24 -11 -58 -45l49 -48l34 26v0zM275 525q-53 -1 -91 -18q-39 -17 -64 -44q-36 -38 -49 -88t-12 -115q-1 -66 12 -116q13 -51 49 -89
q25 -27 64 -44q38 -17 91 -17t91 17q39 17 64 44q36 38 49 89q13 50 13 116q0 65 -13 115t-49 88q-25 27 -64 44q-38 17 -91 18v0zM387 260q1 -43 -6 -81q-6 -37 -30 -62q-14 -14 -34 -22q-19 -8 -42 -8l-42 8q-19 8 -34 22q-23 25 -30 62q-7 38 -6 81q-1 43 6 80
q7 38 30 62q15 15 34 22l42 8q23 0 42 -8q20 -7 34 -22q24 -24 30 -62q7 -37 6 -80v0z" />
    <glyph glyph-name="odieresis" unicode="&#xf6;" horiz-adv-x="550" 
d="M432 729h-94v-111h94v111v0zM211 618v111h-94v-111h94v0zM275 525q-53 -1 -91 -18q-39 -17 -64 -44q-36 -38 -49 -88t-12 -115q-1 -66 12 -116q13 -51 49 -89q25 -27 64 -44q38 -17 91 -17t91 17q39 17 64 44q36 38 49 89q13 50 13 116q0 65 -13 115t-49 88
q-25 27 -64 44q-38 17 -91 18v0zM387 260q1 -43 -6 -81q-6 -37 -30 -62q-14 -14 -34 -22q-19 -8 -42 -8l-42 8q-19 8 -34 22q-23 25 -30 62q-7 38 -6 81q-1 43 6 80q7 38 30 62q15 15 34 22l42 8q23 0 42 -8q20 -7 34 -22q24 -24 30 -62q7 -37 6 -80v0z" />
    <glyph glyph-name="divide" unicode="&#xf7;" 
d="M217 535v-111h112v111h-112v0zM49 235h447v98h-447v-98v0zM329 145h-112v-111h112v111v0z" />
    <glyph glyph-name="oslash" unicode="&#xf8;" horiz-adv-x="550" 
d="M420 564l-38 -65l-48 19l-59 7q-53 -1 -91 -18q-39 -17 -64 -44q-36 -38 -49 -88t-12 -115q-1 -65 12 -115q12 -51 48 -89l-59 -101h70l38 64l48 -18l59 -7q53 0 91 17q39 17 64 44q36 38 49 89q13 50 13 116q0 65 -13 115t-49 88l61 101h-71v0zM336 414l-157 -266
q-10 24 -13 52q-3 29 -3 60q-1 43 6 80q7 38 30 62q15 15 34 22l42 8l33 -5l28 -13v0zM387 260q1 -43 -6 -81q-6 -37 -30 -61q-14 -15 -34 -23q-19 -8 -42 -8l-33 5q-15 5 -28 13l158 266q10 -23 13 -52l2 -59v0z" />
    <glyph glyph-name="ugrave" unicode="&#xf9;" horiz-adv-x="582" 
d="M341 613l-77 166h-115l113 -166h79v0zM78 519v-332q0 -44 11 -80q12 -37 41 -66q24 -23 56 -35t72 -12t75 14q36 15 63 44v-52h103v519h-105v-317q-1 -59 -32 -87q-30 -29 -75 -28q-45 -1 -74 27t-30 88v317h-105v0z" />
    <glyph glyph-name="uacute" unicode="&#xfa;" horiz-adv-x="582" 
d="M314 613l113 166h-116l-76 -166h79v0zM78 519v-332q0 -44 11 -80q12 -37 41 -66q24 -23 56 -35t72 -12t75 14q36 15 63 44v-52h103v519h-105v-317q-1 -59 -32 -87q-30 -29 -75 -28q-45 -1 -74 27t-30 88v317h-105v0z" />
    <glyph glyph-name="ucircumflex" unicode="&#xfb;" horiz-adv-x="582" 
d="M377 613h87l-132 165h-88l-132 -165h87l89 99l89 -99v0zM78 519v-332q0 -44 11 -80q12 -37 41 -66q24 -23 56 -35t72 -12t75 14q36 15 63 44v-52h103v519h-105v-317q-1 -59 -32 -87q-30 -29 -75 -28q-45 -1 -74 27t-30 88v317h-105v0z" />
    <glyph glyph-name="udieresis" unicode="&#xfc;" horiz-adv-x="582" 
d="M446 729h-94v-111h94v111v0zM224 618v111h-94v-111h94v0zM78 519v-332q0 -44 11 -80q12 -37 41 -66q23 -23 56 -35q32 -12 72 -12t76 14q36 15 63 44l-1 -52h103v519h-105v-317q0 -39 -14 -65q-15 -26 -39 -38t-54 -12q-45 -1 -74 27t-30 88v317h-105v0z" />
    <glyph glyph-name="yacute" unicode="&#xfd;" horiz-adv-x="479" 
d="M8 519l182 -495l-29 -81q-11 -31 -27 -43t-48 -12h-26v-94h42l57 8q27 9 49 30l21 27l17 37l229 623h-111l-121 -366l-124 366h-111v0zM263 779l-76 -166h78l114 166h-116v0z" />
    <glyph glyph-name="thorn" unicode="&#xfe;" horiz-adv-x="567" 
d="M324 525l-75 -13q-33 -12 -61 -45v262h-105v-939h105v263q28 -33 61 -46q34 -14 75 -13q39 0 72 12q32 12 54 34q26 26 38 62q13 37 17 77l3 81l-3 80q-4 40 -17 76q-12 36 -38 63l-54 33l-72 13v0zM404 260q0 -47 -7 -86q-8 -39 -31 -63t-70 -24q-46 0 -70 24
q-23 24 -31 63t-7 86q-1 46 7 85t31 63q24 23 70 24q47 -1 70 -24q23 -24 31 -63q7 -39 7 -85v0z" />
    <glyph glyph-name="ydieresis" unicode="&#xff;" horiz-adv-x="479" 
d="M176 618v111h-94v-111h94v0zM9 519l181 -495l-29 -81q-11 -31 -27 -43t-48 -12h-26v-94h42l57 8q27 9 49 30l21 27l17 37l229 623h-111l-121 -366l-124 366h-110v0zM397 729h-94v-111h94v111v0z" />
    <glyph glyph-name="OE" unicode="&#x152;" horiz-adv-x="1000" 
d="M467 547l13 -68l3 -115l-3 -115l-13 -67q-10 -25 -27 -44q-20 -21 -48 -33t-61 -12t-60 12q-28 12 -48 33q-17 19 -27 44q-9 24 -13 67q-3 43 -3 115q0 73 3 115q4 43 13 68q10 25 27 43q20 21 48 33q27 12 60 12t61 -12l48 -33l27 -43v0zM483 669q-31 35 -70 50
q-40 16 -84 16q-58 0 -105 -19t-85 -57q-34 -35 -49 -77q-15 -41 -19 -95l-2 -123l2 -123q4 -53 19 -95t49 -76q38 -38 85 -57t105 -19q41 0 82 15q41 16 72 50v-59h461v98h-351v221h298v97h-298v214h350v99h-460v-60v0z" />
    <glyph glyph-name="oe" unicode="&#x153;" horiz-adv-x="883" 
d="M511 504q-41 -21 -68 -62q-25 39 -68 61q-43 21 -100 22q-53 -1 -91 -18q-39 -17 -64 -44q-36 -38 -49 -88t-12 -115q-1 -66 12 -116q13 -51 49 -89q25 -27 64 -44q38 -17 91 -17q56 0 99 22t68 60q30 -42 76 -62t103 -20l79 9q33 9 61 27l53 45l-66 62q-27 -28 -55 -40
q-28 -13 -71 -13q-64 0 -98 39t-34 106h337v46q-1 74 -27 130q-25 56 -75 88q-49 31 -119 32q-53 0 -95 -21v0zM387 260q1 -43 -6 -80q-6 -38 -30 -62q-14 -15 -34 -23q-19 -8 -42 -8l-42 8q-19 8 -34 23q-23 24 -30 62q-7 37 -6 80q-1 43 6 80q7 38 30 62q15 15 34 22l42 8
q23 0 42 -8q20 -7 34 -22q24 -24 30 -62q7 -37 6 -80v0zM723 302h-233q0 23 3 38l11 32q13 30 39 48q26 17 63 18q38 -1 64 -18q27 -18 40 -48l10 -32l3 -38v0z" />
    <glyph glyph-name="Scaron" unicode="&#x160;" horiz-adv-x="604" 
d="M425 715q-54 20 -126 20q-76 -1 -130 -28q-55 -26 -84 -74t-29 -112q0 -45 13 -79q13 -35 40 -60q24 -23 59 -38q35 -14 79 -21l86 -12l49 -11q18 -7 31 -20q15 -13 22 -32t7 -43q-1 -54 -40 -83q-39 -28 -111 -29q-55 0 -101 15t-85 55l-74 -73q52 -52 114 -75
q63 -22 144 -21q77 0 136 26q59 25 92 73q34 47 34 115q0 47 -14 85q-15 38 -45 64q-22 21 -54 34l-82 20l-83 13q-26 3 -47 12t-35 21q-15 13 -21 31q-7 17 -7 37q0 49 35 81q34 31 98 32l86 -12q39 -12 73 -44l71 70q-46 43 -101 63v0zM343 799l133 165h-87l-90 -99
l-89 99h-87l132 -165h88v0z" />
    <glyph glyph-name="scaron" unicode="&#x161;" horiz-adv-x="511" 
d="M298 613l132 165h-87l-89 -100l-89 100h-87l132 -165h88v0zM155 506q-44 -18 -70 -54q-26 -35 -26 -86q0 -68 40 -102q40 -35 113 -41l83 -7q37 -3 54 -19q16 -16 16 -42q-1 -37 -33 -55q-32 -17 -81 -17l-78 11q-39 11 -71 43l-69 -69q46 -44 100 -60l118 -14
q63 0 111 18q49 19 77 56q28 36 28 90v1q0 68 -41 104q-40 36 -113 42l-82 7q-41 4 -57 20t-15 39q0 30 24 48q23 18 70 19l70 -9q33 -9 58 -29l66 66q-37 32 -85 45l-108 14q-55 0 -99 -19v0z" />
    <glyph glyph-name="Ydieresis" unicode="&#x178;" horiz-adv-x="557" 
d="M436 915h-94v-110h94v110v0zM431 729l-152 -321l-153 321h-120l218 -429v-300h110v300l218 429h-121v0zM215 805v110h-94v-110h94v0z" />
    <glyph glyph-name="Zcaron" unicode="&#x17d;" horiz-adv-x="565" 
d="M516 729h-452v-100h322l-337 -534v-95h467v99h-339l339 540v90v0zM332 799l132 165h-87l-89 -99l-89 99h-87l132 -165h88v0z" />
    <glyph glyph-name="zcaron" unicode="&#x17e;" horiz-adv-x="480" 
d="M289 613l132 165h-87l-89 -100l-89 100h-87l132 -165h88v0zM302 426l-258 -343v-83h387v93h-260l260 343v83h-372v-93h243v0z" />
    <glyph glyph-name="florin" unicode="&#x192;" horiz-adv-x="425" 
d="M394 645v89h-64q-49 -1 -84 -21q-34 -20 -55 -53t-28 -70l-34 -190h-98v-80h84l-93 -530h104l93 530h118v80h-103l32 184q6 29 22 45q17 16 46 16h60v0z" />
    <glyph glyph-name="circumflex" unicode="&#x2c6;" horiz-adv-x="512" 
d="M432 613l-132 165h-88l-132 -165h87l89 99l89 -99h87v0z" />
    <glyph glyph-name="tilde" unicode="&#x2dc;" horiz-adv-x="512" 
d="M189 669l29 -5l28 -14q19 -12 37 -18l40 -6q23 -1 48 11q24 12 58 46l-49 48l-34 -26l-26 -6l-28 5l-29 15l-37 18l-39 6q-24 1 -49 -11q-24 -11 -58 -45l49 -48l34 26l26 4v0z" />
    <glyph glyph-name="endash" unicode="&#x2013;" 
d="M494 235v98h-442v-98h442v0z" />
    <glyph glyph-name="emdash" unicode="&#x2014;" horiz-adv-x="995" 
d="M69 236h858v100h-858v-100v0z" />
    <glyph glyph-name="quoteleft" unicode="&#x2018;" horiz-adv-x="274" 
d="M195 622v202l-115 -95v-107h115v0z" />
    <glyph glyph-name="quoteright" unicode="&#x2019;" horiz-adv-x="274" 
d="M195 621v108h-115v-201l115 93v0z" />
    <glyph glyph-name="quotesinglbase" unicode="&#x201a;" horiz-adv-x="273" 
d="M80 107v-201l115 94v107h-115v0z" />
    <glyph glyph-name="quotedblleft" unicode="&#x201c;" horiz-adv-x="470" 
d="M195 622v202l-115 -95v-107h115v0zM390 622v202l-114 -95v-107h114v0z" />
    <glyph glyph-name="quotedblright" unicode="&#x201d;" horiz-adv-x="470" 
d="M195 621v108h-115v-201l115 93v0zM390 621v108h-114v-201l114 93v0z" />
    <glyph glyph-name="quotedblbase" unicode="&#x201e;" horiz-adv-x="471" 
d="M80 107v-201l115 94v107h-115v0zM276 107v-201l114 94v107h-114v0z" />
    <glyph glyph-name="dagger" unicode="&#x2020;" horiz-adv-x="605" 
d="M355 729h-105v-199h-183v-93h183v-437h105v437h184v93h-184v199v0z" />
    <glyph glyph-name="daggerdbl" unicode="&#x2021;" horiz-adv-x="605" 
d="M355 729h-105v-199h-183v-93h183v-354h-183v-94h183v-199h105v199h184v94h-184v354h184v93h-184v199v0z" />
    <glyph glyph-name="bullet" unicode="&#x2022;" horiz-adv-x="524" 
d="M347 198q37 22 60 59q22 38 22 85q0 46 -22 84q-23 38 -60 60q-38 22 -85 23q-46 -1 -84 -23q-37 -22 -60 -60q-22 -38 -23 -84q1 -47 23 -85q23 -37 60 -59q38 -23 84 -23q47 0 85 23v0z" />
    <glyph glyph-name="ellipsis" unicode="&#x2026;" horiz-adv-x="822" 
d="M351 120v-120h120v120h-120v0zM80 120v-120h120v120h-120v0zM623 120v-120h120v120h-120v0z" />
    <glyph glyph-name="perthousand" unicode="&#x2030;" horiz-adv-x="1225" 
d="M561 729l-344 -729h84l343 729h-83v0zM79 671q-19 -31 -19 -75v-104q0 -44 19 -75t51 -47q33 -17 73 -17t73 17q32 16 51 47t19 75v104q0 44 -19 75t-51 48q-33 17 -73 17t-73 -17q-32 -17 -51 -48v0zM154 647q16 19 49 19t49 -19q15 -20 15 -54v-98q0 -34 -15 -53
q-16 -19 -49 -19t-49 18q-15 19 -15 54v98q0 35 15 54v0zM709 288q15 -20 15 -55v-97q0 -35 -15 -54q-16 -19 -49 -20q-33 0 -49 19t-16 55v97q0 36 16 55t49 19t49 -19v0zM660 377q-41 0 -73 -17t-51 -48t-20 -75v-104q1 -44 20 -76q19 -31 51 -47q32 -17 73 -17
q40 0 72 17q33 16 52 47q19 32 19 76v104q0 44 -19 75t-52 48q-32 17 -72 17v0zM1071 288q16 -20 16 -55v-97q0 -35 -16 -54t-49 -20q-33 0 -49 19q-15 19 -15 55v97q0 36 15 55q16 19 49 19t49 -19v0zM1022 377q-40 0 -72 -17q-33 -17 -52 -48t-19 -75v-104q0 -44 19 -76
q19 -31 52 -47q32 -17 72 -17q41 0 73 17q32 16 51 47q19 32 20 76v104q-1 44 -20 75t-51 48t-73 17v0z" />
    <glyph glyph-name="guilsinglleft" unicode="&#x2039;" horiz-adv-x="347" 
d="M274 43v126l-110 109l110 109v126l-236 -235l236 -235v0z" />
    <glyph glyph-name="guilsinglright" unicode="&#x203a;" horiz-adv-x="347" 
d="M311 278l-237 235v-126l111 -109l-111 -109v-126l237 235v0z" />
    <glyph glyph-name="Euro" unicode="&#x20ac;" horiz-adv-x="697" 
d="M497 709q-55 26 -122 26q-57 0 -105 -20t-86 -58q-35 -36 -50 -79q-14 -43 -17 -99h-73v-69h70v-88h-70v-68h73q3 -59 17 -102q14 -44 50 -80q38 -38 86 -58t105 -20q66 0 121 26q54 26 91 76q36 50 49 122h-112q-13 -56 -51 -91q-37 -34 -98 -35q-33 0 -61 12
q-27 12 -47 33q-19 20 -27 46q-9 26 -12 71h188v68h-192v88h192v69h-188q3 43 12 68q8 25 27 44q20 21 47 33q28 12 61 12q60 -1 98 -35q37 -34 50 -91h113q-13 73 -49 123t-90 76v0z" />
    <glyph glyph-name="trademark" unicode="&#x2122;" horiz-adv-x="904" 
d="M427 729v-437h79v285l92 -183h73l92 183v-285h79v437h-79l-129 -249l-128 249h-79v0zM355 658v71h-313v-71h117v-366h78v366h118v0z" />
  </font>
</defs>
</svg>
